<svg height="600" width="600">
  <line x1="551.632" y1="313.781" x2="600" y2="329.262" style="stroke:rgb(0,0,0);stroke-width:4" />
  <line x1="600" y1="329.262" x2="588.713" y2="335.076" style="stroke:rgb(0,0,0);stroke-width:4" />
  <line x1="600" y1="329.262" x2="594.186" y2="317.975" style="stroke:rgb(0,0,0);stroke-width:4" />
  <line x1="138.867" y1="531.303" x2="100.262" y2="564.711" style="stroke:rgb(0,0,0);stroke-width:4" />
  <line x1="100.262" y1="564.711" x2="101.18" y2="551.981" style="stroke:rgb(0,0,0);stroke-width:4" />
  <line x1="100.262" y1="564.711" x2="112.992" y2="565.63" style="stroke:rgb(0,0,0);stroke-width:4" />
  <line x1="156.634" y1="64.6224" x2="146.463" y2="14.6553" style="stroke:rgb(0,0,0);stroke-width:4" />
  <line x1="146.463" y1="14.6553" x2="157.094" y2="21.6904" style="stroke:rgb(0,0,0);stroke-width:4" />
  <line x1="146.463" y1="14.6553" x2="139.428" y2="25.2862" style="stroke:rgb(0,0,0);stroke-width:4" />
  <path d="M357.357 524.882 C 352.956 534.393, 342.01 548.741, 336.559 552.434" fill="none" style="stroke:rgb(0,0,0);stroke-width:4" />
  <path d="M336.559 552.434 C 331.107 556.126, 323.011 561.246, 319.272 563.816" fill="none" style="stroke:rgb(0,0,0);stroke-width:4" />
  <path d="M357.357 524.882 C 370.143 528.665, 392.682 531.726, 400.091 530.715" fill="none" style="stroke:rgb(0,0,0);stroke-width:4" />
  <path d="M400.091 530.715 C 407.5 529.704, 417.931 527.292, 423.299 526.181" fill="none" style="stroke:rgb(0,0,0);stroke-width:4" />
  <path d="M357.357 524.882 C 349.113 511.73, 333.827 487.514, 328.979 478.048" fill="none" style="stroke:rgb(0,0,0);stroke-width:4" />
  <path d="M328.979 478.048 C 324.132 468.582, 318.813 451.454, 316.15 442.194" fill="none" style="stroke:rgb(0,0,0);stroke-width:4" />
  <path d="M507.077 377.093 C 493.665 370.626, 468.775 358.818, 459.636 354.228" fill="none" style="stroke:rgb(0,0,0);stroke-width:4" />
  <path d="M459.636 354.228 C 450.498 349.637, 435.644 340.827, 427.592 335.858" fill="none" style="stroke:rgb(0,0,0);stroke-width:4" />
  <path d="M507.077 377.093 C 510.267 389.378, 512.274 410.851, 511.108 418.101" fill="none" style="stroke:rgb(0,0,0);stroke-width:4" />
  <path d="M511.108 418.101 C 509.943 425.35, 507.839 435.78, 506.884 440.896" fill="none" style="stroke:rgb(0,0,0);stroke-width:4" />
  <path d="M507.077 377.093 C 517.026 371.736, 530.483 356.749, 534.966 349.029" fill="none" style="stroke:rgb(0,0,0);stroke-width:4" />
  <path d="M534.966 349.029 C 539.449 341.308, 548.27 324.639, 551.632 313.781" fill="none" style="stroke:rgb(0,0,0);stroke-width:4" />
  <path d="M551.632 313.781 C 551.025 301.157, 547.728 278.245, 546.577 270.493" fill="none" style="stroke:rgb(0,0,0);stroke-width:4" />
  <path d="M546.577 270.493 C 545.426 262.742, 545.627 251.75, 545.439 245.973" fill="none" style="stroke:rgb(0,0,0);stroke-width:4" />
  <path d="M138.867 531.303 C 131.003 522.858, 120.677 506.617, 116.246 498.785" fill="none" style="stroke:rgb(0,0,0);stroke-width:4" />
  <path d="M116.246 498.785 C 111.815 490.954, 105.627 471.732, 105.84 460.377" fill="none" style="stroke:rgb(0,0,0);stroke-width:4" />
  <path d="M138.867 531.303 C 150.007 536.959, 171.187 545.276, 178.433 548.101" fill="none" style="stroke:rgb(0,0,0);stroke-width:4" />
  <path d="M178.433 548.101 C 185.68 550.927, 195.178 556.649, 200.223 559.381" fill="none" style="stroke:rgb(0,0,0);stroke-width:4" />
  <path d="M105.84 460.377 C 93.6902 457.04, 73.8209 447.992, 68.063 443.385" fill="none" style="stroke:rgb(0,0,0);stroke-width:4" />
  <path d="M68.063 443.385 C 62.3052 438.779, 54.4276 431.868, 50.3467 428.461" fill="none" style="stroke:rgb(0,0,0);stroke-width:4" />
  <path d="M105.84 460.377 C 118.249 451.745, 140.845 436.081, 149.45 430.438" fill="none" style="stroke:rgb(0,0,0);stroke-width:4" />
  <path d="M149.45 430.438 C 158.054 424.796, 173.246 416.131, 181.413 411.719" fill="none" style="stroke:rgb(0,0,0);stroke-width:4" />
  <path d="M316.15 442.194 C 304.703 440.652, 283.993 437.691, 277.786 436.625" fill="none" style="stroke:rgb(0,0,0);stroke-width:4" />
  <path d="M277.786 436.625 C 271.58 435.56, 265.495 434.373, 262.56 433.897" fill="none" style="stroke:rgb(0,0,0);stroke-width:4" />
  <path d="M316.15 442.194 C 321.923 432.586, 332.235 415.116, 334.21 406.503" fill="none" style="stroke:rgb(0,0,0);stroke-width:4" />
  <path d="M334.21 406.503 C 336.186 397.89, 335.068 378.019, 334.539 367.512" fill="none" style="stroke:rgb(0,0,0);stroke-width:4" />
  <path d="M181.413 411.719 C 192.126 415.202, 211.781 421.507, 217.737 423.183" fill="none" style="stroke:rgb(0,0,0);stroke-width:4" />
  <path d="M217.737 423.183 C 223.693 424.859, 229.596 426.214, 232.528 427.041" fill="none" style="stroke:rgb(0,0,0);stroke-width:4" />
  <path d="M181.413 411.719 C 181.727 402.913, 182.711 387.121, 183.333 382.434" fill="none" style="stroke:rgb(0,0,0);stroke-width:4" />
  <path d="M183.333 382.434 C 183.954 377.747, 184.942 373.135, 185.356 370.912" fill="none" style="stroke:rgb(0,0,0);stroke-width:4" />
  <path d="M427.592 335.858 C 425.265 324.888, 420.638 304.589, 419.063 298.612" fill="none" style="stroke:rgb(0,0,0);stroke-width:4" />
  <path d="M419.063 298.612 C 417.489 292.634, 415.717 286.987, 414.794 283.967" fill="none" style="stroke:rgb(0,0,0);stroke-width:4" />
  <path d="M427.592 335.858 C 419.865 339.897, 405.507 347.116, 401.069 348.917" fill="none" style="stroke:rgb(0,0,0);stroke-width:4" />
  <path d="M401.069 348.917 C 396.63 350.717, 392.214 352.182, 390.043 353.228" fill="none" style="stroke:rgb(0,0,0);stroke-width:4" />
  <path d="M334.539 367.512 C 341.885 365.849, 355.19 362.797, 359.235 361.898" fill="none" style="stroke:rgb(0,0,0);stroke-width:4" />
  <path d="M359.235 361.898 C 363.28 360.998, 367.306 360.066, 369.201 359.544" fill="none" style="stroke:rgb(0,0,0);stroke-width:4" />
  <path d="M334.539 367.512 C 327.75 357.441, 315.496 338.709, 309.588 331.245" fill="none" style="stroke:rgb(0,0,0);stroke-width:4" />
  <path d="M309.588 331.245 C 303.68 323.781, 289.795 310.297, 282.262 303.078" fill="none" style="stroke:rgb(0,0,0);stroke-width:4" />
  <path d="M437.302 127.128 C 430.137 140.847, 416.909 166.405, 411.153 175.317" fill="none" style="stroke:rgb(0,0,0);stroke-width:4" />
  <path d="M411.153 175.317 C 405.398 184.229, 393.119 197.215, 386.288 204.218" fill="none" style="stroke:rgb(0,0,0);stroke-width:4" />
  <path d="M437.302 127.128 C 447.705 126.105, 465.518 128.291, 471.391 131.183" fill="none" style="stroke:rgb(0,0,0);stroke-width:4" />
  <path d="M471.391 131.183 C 477.265 134.074, 485.667 138.659, 489.735 140.669" fill="none" style="stroke:rgb(0,0,0);stroke-width:4" />
  <path d="M437.302 127.128 C 434.045 114.233, 425.408 93.1776, 420.857 87.2504" fill="none" style="stroke:rgb(0,0,0);stroke-width:4" />
  <path d="M420.857 87.2504 C 416.307 81.3231, 408.981 73.5363, 405.377 69.444" fill="none" style="stroke:rgb(0,0,0);stroke-width:4" />
  <path d="M386.288 204.218 C 375.277 204.086, 354.784 203.979, 346.304 206.529" fill="none" style="stroke:rgb(0,0,0);stroke-width:4" />
  <path d="M346.304 206.529 C 337.825 209.079, 321.21 220.015, 312.072 225.877" fill="none" style="stroke:rgb(0,0,0);stroke-width:4" />
  <path d="M386.288 204.218 C 390.645 214.81, 398.369 234.101, 400.573 239.993" fill="none" style="stroke:rgb(0,0,0);stroke-width:4" />
  <path d="M400.573 239.993 C 402.777 245.884, 404.73 251.89, 405.642 254.812" fill="none" style="stroke:rgb(0,0,0);stroke-width:4" />
  <path d="M156.634 64.6224 C 167.634 62.0636, 186.818 61.1729, 195.815 61.1424" fill="none" style="stroke:rgb(0,0,0);stroke-width:4" />
  <path d="M195.815 61.1424 C 204.813 61.1119, 224.561 65.3304, 234.496 71.278" fill="none" style="stroke:rgb(0,0,0);stroke-width:4" />
  <path d="M156.634 64.6224 C 145.967 71.4837, 128.258 85.5573, 122.169 90.4047" fill="none" style="stroke:rgb(0,0,0);stroke-width:4" />
  <path d="M122.169 90.4047 C 116.08 95.252, 106.221 100.7, 101.499 103.666" fill="none" style="stroke:rgb(0,0,0);stroke-width:4" />
  <path d="M52.3831 256.654 C 68.018 255.946, 96.5507 254.552, 107.145 255.056" fill="none" style="stroke:rgb(0,0,0);stroke-width:4" />
  <path d="M107.145 255.056 C 117.74 255.559, 135.275 259.652, 144.52 262.051" fill="none" style="stroke:rgb(0,0,0);stroke-width:4" />
  <path d="M52.3831 256.654 C 46.5063 248.346, 39.4376 231.672, 38.9274 225.146" fill="none" style="stroke:rgb(0,0,0);stroke-width:4" />
  <path d="M38.9274 225.146 C 38.4171 218.621, 38.2309 209.236, 37.8733 204.538" fill="none" style="stroke:rgb(0,0,0);stroke-width:4" />
  <path d="M52.3831 256.654 C 42.7501 266.142, 28.9479 284.259, 26.1515 291.126" fill="none" style="stroke:rgb(0,0,0);stroke-width:4" />
  <path d="M26.1515 291.126 C 23.3551 297.993, 20.1465 308.235, 18.3615 313.371" fill="none" style="stroke:rgb(0,0,0);stroke-width:4" />
  <path d="M234.496 71.278 C 243.433 62.4326, 260.888 49.9615, 267.782 47.3375" fill="none" style="stroke:rgb(0,0,0);stroke-width:4" />
  <path d="M267.782 47.3375 C 274.676 44.7136, 284.802 41.4048, 289.658 39.7182" fill="none" style="stroke:rgb(0,0,0);stroke-width:4" />
  <path d="M234.496 71.278 C 235.731 86.2061, 237.89 113.495, 238.45 123.765" fill="none" style="stroke:rgb(0,0,0);stroke-width:4" />
  <path d="M238.45 123.765 C 239.009 134.034, 238.916 151.472, 238.63 160.734" fill="none" style="stroke:rgb(0,0,0);stroke-width:4" />
  <path d="M200.214 315.82 C 190.659 310.922, 172.641 301.904, 166.21 295.787" fill="none" style="stroke:rgb(0,0,0);stroke-width:4" />
  <path d="M166.21 295.787 C 159.778 289.67, 149.948 271.804, 144.52 262.051" fill="none" style="stroke:rgb(0,0,0);stroke-width:4" />
  <path d="M200.214 315.82 C 197.981 322.929, 193.629 336.015, 192.422 339.961" fill="none" style="stroke:rgb(0,0,0);stroke-width:4" />
  <path d="M192.422 339.961 C 191.214 343.908, 190.329 347.769, 189.74 349.716" fill="none" style="stroke:rgb(0,0,0);stroke-width:4" />
  <path d="M200.214 315.82 C 212.465 315.071, 234.879 313.862, 244.292 312.484" fill="none" style="stroke:rgb(0,0,0);stroke-width:4" />
  <path d="M244.292 312.484 C 253.704 311.107, 272.313 305.945, 282.262 303.078" fill="none" style="stroke:rgb(0,0,0);stroke-width:4" />
  <path d="M282.262 303.078 C 284.769 292.83, 289.489 274.247, 293.029 265.473" fill="none" style="stroke:rgb(0,0,0);stroke-width:4" />
  <path d="M293.029 265.473 C 296.569 256.699, 306.753 236.682, 312.072 225.877" fill="none" style="stroke:rgb(0,0,0);stroke-width:4" />
  <path d="M312.072 225.877 C 307.046 220.315, 297.838 210.074, 295.019 207.054" fill="none" style="stroke:rgb(0,0,0);stroke-width:4" />
  <path d="M295.019 207.054 C 292.199 204.035, 289.365 201.155, 287.988 199.637" fill="none" style="stroke:rgb(0,0,0);stroke-width:4" />
  <path d="M144.52 262.051 C 151.579 252.966, 164.618 236.503, 168.66 231.701" fill="none" style="stroke:rgb(0,0,0);stroke-width:4" />
  <path d="M168.66 231.701 C 172.702 226.9, 176.889 222.361, 178.972 220.046" fill="none" style="stroke:rgb(0,0,0);stroke-width:4" />
  <path d="M238.63 160.734 C 230.207 168.301, 215.006 182.141, 210.58 186.493" fill="none" style="stroke:rgb(0,0,0);stroke-width:4" />
  <path d="M210.58 186.493 C 206.155 190.845, 202.04 195.466, 199.997 197.657" fill="none" style="stroke:rgb(0,0,0);stroke-width:4" />
  <path d="M238.63 160.734 C 246.077 165.414, 259.369 174.341, 263.121 177.284" fill="none" style="stroke:rgb(0,0,0);stroke-width:4" />
  <path d="M263.121 177.284 C 266.872 180.227, 270.276 183.396, 272.022 184.924" fill="none" style="stroke:rgb(0,0,0);stroke-width:4" />
  <path d="M279.37 572.419 C 274.36 572.014, 265.667 573.399, 261.108 573.252" fill="none" style="stroke:rgb(0,0,0);stroke-width:4" />
  <path d="M261.108 573.252 C 256.55 573.106, 246.708 571.141, 242.3 571.259" fill="none" style="stroke:rgb(0,0,0);stroke-width:4" />
  <path d="M319.272 563.816 C 319.694 571.742, 317.951 584.405, 312.588 585.345" fill="none" style="stroke:rgb(0,0,0);stroke-width:4" />
  <path d="M312.588 585.345 C 307.226 586.285, 289.019 577.924, 279.37 572.419" fill="none" style="stroke:rgb(0,0,0);stroke-width:4" />
  <path d="M319.272 563.816 C 303.992 554.259, 276.283 536.758, 271.705 537.69" fill="none" style="stroke:rgb(0,0,0);stroke-width:1" />
  <path d="M271.705 537.69 C 267.127 538.622, 274.884 560.425, 279.37 572.419" fill="none" style="stroke:rgb(0,0,0);stroke-width:1" />
  <path d="M242.3 571.259 C 237.091 576.083, 226.444 583.113, 220.977 581.646" fill="none" style="stroke:rgb(0,0,0);stroke-width:1" />
  <path d="M220.977 581.646 C 215.509 580.178, 205.117 567.209, 200.223 559.381" fill="none" style="stroke:rgb(0,0,0);stroke-width:1" />
  <path d="M242.3 571.259 C 237.119 559.205, 227.697 537.215, 222.871 535.901" fill="none" style="stroke:rgb(0,0,0);stroke-width:4" />
  <path d="M222.871 535.901 C 218.045 534.587, 206.429 550.638, 200.223 559.381" fill="none" style="stroke:rgb(0,0,0);stroke-width:4" />
  <path d="M460.144 503.97 C 463.192 500.538, 471.193 495.303, 474.353 492.088" fill="none" style="stroke:rgb(0,0,0);stroke-width:4" />
  <path d="M474.353 492.088 C 477.514 488.874, 482.418 481.054, 485.954 477.859" fill="none" style="stroke:rgb(0,0,0);stroke-width:4" />
  <path d="M423.299 526.181 C 423.633 512.107, 424.393 486.123, 428.553 483.493" fill="none" style="stroke:rgb(0,0,0);stroke-width:1" />
  <path d="M428.553 483.493 C 432.714 480.863, 450.377 495.741, 460.144 503.97" fill="none" style="stroke:rgb(0,0,0);stroke-width:1" />
  <path d="M423.299 526.181 C 431.055 530.131, 445.535 534.809, 450.271 531.817" fill="none" style="stroke:rgb(0,0,0);stroke-width:4" />
  <path d="M450.271 531.817 C 455.007 528.826, 458.949 513.042, 460.144 503.97" fill="none" style="stroke:rgb(0,0,0);stroke-width:4" />
  <path d="M485.954 477.859 C 476.752 469.13, 460.132 453.049, 462.59 448.82" fill="none" style="stroke:rgb(0,0,0);stroke-width:4" />
  <path d="M462.59 448.82 C 465.049 444.59, 492.134 442.189, 506.884 440.896" fill="none" style="stroke:rgb(0,0,0);stroke-width:4" />
  <path d="M485.954 477.859 C 495.102 476.203, 511.421 471.152, 514.379 466.422" fill="none" style="stroke:rgb(0,0,0);stroke-width:1" />
  <path d="M514.379 466.422 C 517.336 461.693, 511.481 448.262, 506.884 440.896" fill="none" style="stroke:rgb(0,0,0);stroke-width:1" />
  <path d="M250.122 431.329 C 249.405 431.297, 247.932 431.128, 247.287 430.944" fill="none" style="stroke:rgb(0,0,0);stroke-width:4" />
  <path d="M247.287 430.944 C 246.641 430.759, 245.234 430.313, 244.361 430.099" fill="none" style="stroke:rgb(0,0,0);stroke-width:4" />
  <path d="M262.56 433.897 C 257.289 440.976, 247.344 454.491, 245.759 454.515" fill="none" style="stroke:rgb(0,0,0);stroke-width:4" />
  <path d="M245.759 454.515 C 244.175 454.54, 247.9 439.741, 250.122 431.329" fill="none" style="stroke:rgb(0,0,0);stroke-width:4" />
  <path d="M262.56 433.897 C 262.628 425.785, 262.946 410.33, 261.608 409.71" fill="none" style="stroke:rgb(0,0,0);stroke-width:1" />
  <path d="M261.608 409.71 C 260.27 409.091, 253.733 423.262, 250.122 431.329" fill="none" style="stroke:rgb(0,0,0);stroke-width:1" />
  <path d="M244.361 430.099 C 240.896 438.102, 234.439 452.407, 233.097 451.761" fill="none" style="stroke:rgb(0,0,0);stroke-width:1" />
  <path d="M233.097 451.761 C 231.756 451.114, 232.297 435.281, 232.528 427.041" fill="none" style="stroke:rgb(0,0,0);stroke-width:1" />
  <path d="M244.361 430.099 C 246.663 421.843, 250.627 406.799, 249.111 406.647" fill="none" style="stroke:rgb(0,0,0);stroke-width:4" />
  <path d="M249.111 406.647 C 247.596 406.495, 237.716 420.01, 232.528 427.041" fill="none" style="stroke:rgb(0,0,0);stroke-width:4" />
  <path d="M377.047 357.666 C 377.605 357.397, 378.501 356.88, 378.987 356.77" fill="none" style="stroke:rgb(0,0,0);stroke-width:4" />
  <path d="M378.987 356.77 C 379.472 356.66, 380.581 356.422, 381.057 356.157" fill="none" style="stroke:rgb(0,0,0);stroke-width:4" />
  <path d="M369.201 359.544 C 366.998 349.345, 362.613 329.728, 363.451 329.189" fill="none" style="stroke:rgb(0,0,0);stroke-width:1" />
  <path d="M363.451 329.189 C 364.289 328.65, 372.597 347.329, 377.047 357.666" fill="none" style="stroke:rgb(0,0,0);stroke-width:1" />
  <path d="M369.201 359.544 C 374.647 368.863, 385.36 387.218, 386.476 387.328" fill="none" style="stroke:rgb(0,0,0);stroke-width:4" />
  <path d="M386.476 387.328 C 387.592 387.437, 380.802 368.143, 377.047 357.666" fill="none" style="stroke:rgb(0,0,0);stroke-width:4" />
  <path d="M381.057 356.157 C 377.411 345.485, 371.012 326.462, 372.285 326.564" fill="none" style="stroke:rgb(0,0,0);stroke-width:4" />
  <path d="M372.285 326.564 C 373.558 326.666, 384.449 344.225, 390.043 353.228" fill="none" style="stroke:rgb(0,0,0);stroke-width:4" />
  <path d="M381.057 356.157 C 385.782 366.805, 394.126 385.254, 395.004 384.364" fill="none" style="stroke:rgb(0,0,0);stroke-width:1" />
  <path d="M395.004 384.364 C 395.883 383.474, 392.033 363.561, 390.043 353.228" fill="none" style="stroke:rgb(0,0,0);stroke-width:1" />
  <path d="M517.392 171.006 C 519.382 175.405, 525.031 182.308, 527.194 186.275" fill="none" style="stroke:rgb(0,0,0);stroke-width:4" />
  <path d="M527.194 186.275 C 529.358 190.243, 532.356 199.556, 534.686 203.438" fill="none" style="stroke:rgb(0,0,0);stroke-width:4" />
  <path d="M489.735 140.669 C 496.33 136.332, 507.886 131.512, 511.415 135.571" fill="none" style="stroke:rgb(0,0,0);stroke-width:4" />
  <path d="M511.415 135.571 C 514.943 139.629, 517.216 159.618, 517.392 171.006" fill="none" style="stroke:rgb(0,0,0);stroke-width:4" />
  <path d="M489.735 140.669 C 489.135 158.539, 488.079 191.735, 491.207 195.307" fill="none" style="stroke:rgb(0,0,0);stroke-width:1" />
  <path d="M491.207 195.307 C 494.336 198.879, 509.221 180.852, 517.392 171.006" fill="none" style="stroke:rgb(0,0,0);stroke-width:1" />
  <path d="M534.686 203.438 C 541.256 205.463, 552.834 211.288, 554.395 216.785" fill="none" style="stroke:rgb(0,0,0);stroke-width:1" />
  <path d="M554.395 216.785 C 555.956 222.281, 549.755 237.724, 545.439 245.973" fill="none" style="stroke:rgb(0,0,0);stroke-width:1" />
  <path d="M534.686 203.438 C 526.803 213.89, 512.433 233.103, 513.711 237.979" fill="none" style="stroke:rgb(0,0,0);stroke-width:4" />
  <path d="M513.711 237.979 C 514.989 242.856, 534.736 244.91, 545.439 245.973" fill="none" style="stroke:rgb(0,0,0);stroke-width:4" />
  <path d="M367.585 48.6439 C 363.137 47.7429, 354.525 43.4928, 350.157 42.3662" fill="none" style="stroke:rgb(0,0,0);stroke-width:4" />
  <path d="M350.157 42.3662 C 345.788 41.2396, 336.612 40.9119, 332.007 39.4883" fill="none" style="stroke:rgb(0,0,0);stroke-width:4" />
  <path d="M405.377 69.444 C 393.173 76.2201, 370.361 88.6499, 365.942 86.3549" fill="none" style="stroke:rgb(0,0,0);stroke-width:1" />
  <path d="M365.942 86.3549 C 361.524 84.06, 365.44 61.2301, 367.585 48.6439" fill="none" style="stroke:rgb(0,0,0);stroke-width:1" />
  <path d="M405.377 69.444 C 404.874 60.75, 401.621 45.8917, 396.651 43.284" fill="none" style="stroke:rgb(0,0,0);stroke-width:4" />
  <path d="M396.651 43.284 C 391.68 40.6763, 376.038 45.1344, 367.585 48.6439" fill="none" style="stroke:rgb(0,0,0);stroke-width:4" />
  <path d="M332.007 39.4883 C 329.071 51.7761, 323.43 74.2813, 318.591 74.2683" fill="none" style="stroke:rgb(0,0,0);stroke-width:4" />
  <path d="M318.591 74.2683 C 313.753 74.2553, 298.219 51.865, 289.658 39.7182" fill="none" style="stroke:rgb(0,0,0);stroke-width:4" />
  <path d="M332.007 39.4883 C 325.959 32.2867, 313.497 20.6389, 307.967 20.4314" fill="none" style="stroke:rgb(0,0,0);stroke-width:1" />
  <path d="M307.967 20.4314 C 302.437 20.2239, 293.726 31.9867, 289.658 39.7182" fill="none" style="stroke:rgb(0,0,0);stroke-width:1" />
  <path d="M409.867 266.444 C 410.277 267.28, 410.999 268.545, 411.16 269.204" fill="none" style="stroke:rgb(0,0,0);stroke-width:4" />
  <path d="M411.16 269.204 C 411.322 269.862, 411.472 271.461, 411.612 272.169" fill="none" style="stroke:rgb(0,0,0);stroke-width:4" />
  <path d="M405.642 254.812 C 414.333 255.757, 431.451 257.419, 432.331 258.771" fill="none" style="stroke:rgb(0,0,0);stroke-width:4" />
  <path d="M432.331 258.771 C 433.212 260.124, 418.206 264.278, 409.867 266.444" fill="none" style="stroke:rgb(0,0,0);stroke-width:4" />
  <path d="M405.642 254.812 C 398.738 258.683, 385.019 266.128, 385.142 267.625" fill="none" style="stroke:rgb(0,0,0);stroke-width:1" />
  <path d="M385.142 267.625 C 385.264 269.123, 401.096 267.494, 409.867 266.444" fill="none" style="stroke:rgb(0,0,0);stroke-width:1" />
  <path d="M411.612 272.169 C 420.275 271.222, 435.803 269.612, 435.892 271.118" fill="none" style="stroke:rgb(0,0,0);stroke-width:1" />
  <path d="M435.892 271.118 C 435.981 272.624, 422.043 280.133, 414.794 283.967" fill="none" style="stroke:rgb(0,0,0);stroke-width:1" />
  <path d="M411.612 272.169 C 403.18 274.407, 388.296 278.46, 389.034 279.832" fill="none" style="stroke:rgb(0,0,0);stroke-width:4" />
  <path d="M389.034 279.832 C 389.771 281.205, 406.245 283.05, 414.794 283.967" fill="none" style="stroke:rgb(0,0,0);stroke-width:4" />
  <path d="M50.528 165.467 C 53.4003 161.363, 56.4468 153.179, 58.8684 149.333" fill="none" style="stroke:rgb(0,0,0);stroke-width:4" />
  <path d="M58.8684 149.333 C 61.29 145.486, 68.0181 138.069, 70.077 134.264" fill="none" style="stroke:rgb(0,0,0);stroke-width:4" />
  <path d="M37.8733 204.538 C 31.0553 201.001, 21.1428 193.076, 22.941 187.973" fill="none" style="stroke:rgb(0,0,0);stroke-width:4" />
  <path d="M22.941 187.973 C 24.7392 182.87, 40.979 171.26, 50.528 165.467" fill="none" style="stroke:rgb(0,0,0);stroke-width:4" />
  <path d="M37.8733 204.538 C 53.8464 196.106, 83.3259 180.397, 84.8828 175.874" fill="none" style="stroke:rgb(0,0,0);stroke-width:1" />
  <path d="M84.8828 175.874 C 86.4397 171.351, 63.2875 167.525, 50.528 165.467" fill="none" style="stroke:rgb(0,0,0);stroke-width:1" />
  <path d="M70.077 134.264 C 68.5027 127.403, 67.7377 114.658, 71.6632 110.616" fill="none" style="stroke:rgb(0,0,0);stroke-width:1" />
  <path d="M71.6632 110.616 C 75.5887 106.575, 92.0646 104.02, 101.499 103.666" fill="none" style="stroke:rgb(0,0,0);stroke-width:1" />
  <path d="M70.077 134.264 C 83.0875 135.74, 106.888 138.383, 110.45 134.868" fill="none" style="stroke:rgb(0,0,0);stroke-width:4" />
  <path d="M110.45 134.868 C 114.012 131.354, 105.923 113.412, 101.499 103.666" fill="none" style="stroke:rgb(0,0,0);stroke-width:4" />
  <path d="M19.0899 356.125 C 20.6395 360.547, 21.1855 369.899, 22.3995 374.266" fill="none" style="stroke:rgb(0,0,0);stroke-width:4" />
  <path d="M22.3995 374.266 C 23.6135 378.632, 28.0936 386.953, 29.1419 391.473" fill="none" style="stroke:rgb(0,0,0);stroke-width:4" />
  <path d="M18.3615 313.371 C 30.4424 320.631, 52.6145 334.136, 52.7434 339.077" fill="none" style="stroke:rgb(0,0,0);stroke-width:1" />
  <path d="M52.7434 339.077 C 52.8722 344.019, 31.0643 351.891, 19.0899 356.125" fill="none" style="stroke:rgb(0,0,0);stroke-width:1" />
  <path d="M18.3615 313.371 C 11.0422 318.169, -0.283331 328.223, 0 333.848" fill="none" style="stroke:rgb(0,0,0);stroke-width:4" />
  <path d="M0 333.848 C 0.283331 339.473, 11.9731 350.795, 19.0899 356.125" fill="none" style="stroke:rgb(0,0,0);stroke-width:4" />
  <path d="M29.1419 391.473 C 41.3185 387.962, 63.2715 381.693, 65.6257 385.998" fill="none" style="stroke:rgb(0,0,0);stroke-width:4" />
  <path d="M65.6257 385.998 C 67.9798 390.303, 56.6292 415.066, 50.3467 428.461" fill="none" style="stroke:rgb(0,0,0);stroke-width:4" />
  <path d="M29.1419 391.473 C 25.909 400.493, 21.8459 417.048, 24.5167 421.94" fill="none" style="stroke:rgb(0,0,0);stroke-width:1" />
  <path d="M24.5167 421.94 C 27.1875 426.831, 41.853 428.77, 50.3467 428.461" fill="none" style="stroke:rgb(0,0,0);stroke-width:1" />
  <path d="M187.629 357.606 C 187.741 358.114, 187.638 359.072, 187.293 359.513" fill="none" style="stroke:rgb(0,0,0);stroke-width:4" />
  <path d="M187.293 359.513 C 186.947 359.955, 186.448 361.038, 186.425 361.689" fill="none" style="stroke:rgb(0,0,0);stroke-width:4" />
  <path d="M189.74 349.716 C 199.757 352.921, 219.03 359.077, 219.056 360.052" fill="none" style="stroke:rgb(0,0,0);stroke-width:1" />
  <path d="M219.056 360.052 C 219.081 361.028, 198.752 358.816, 187.629 357.606" fill="none" style="stroke:rgb(0,0,0);stroke-width:1" />
  <path d="M189.74 349.716 C 178.928 349.768, 158.306 349.781, 157.579 350.673" fill="none" style="stroke:rgb(0,0,0);stroke-width:4" />
  <path d="M157.579 350.673 C 156.851 351.565, 176.417 355.496, 187.629 357.606" fill="none" style="stroke:rgb(0,0,0);stroke-width:4" />
  <path d="M186.425 361.689 C 197.798 363.849, 217.847 367.87, 217.211 368.905" fill="none" style="stroke:rgb(0,0,0);stroke-width:4" />
  <path d="M217.211 368.905 C 216.575 369.941, 195.992 370.531, 185.356 370.912" fill="none" style="stroke:rgb(0,0,0);stroke-width:4" />
  <path d="M186.425 361.689 C 175.244 360.443, 155.221 358.378, 155.447 359.549" fill="none" style="stroke:rgb(0,0,0);stroke-width:1" />
  <path d="M155.447 359.549 C 155.673 360.72, 175.161 367.397, 185.356 370.912" fill="none" style="stroke:rgb(0,0,0);stroke-width:1" />
  <path d="M282.684 193.294 C 282.283 192.987, 281.596 192.174, 281.187 191.898" fill="none" style="stroke:rgb(0,0,0);stroke-width:4" />
  <path d="M281.187 191.898 C 280.778 191.622, 279.747 191.203, 279.25 190.833" fill="none" style="stroke:rgb(0,0,0);stroke-width:4" />
  <path d="M287.988 199.637 C 280.23 206.614, 265.364 219.979, 264.446 219.543" fill="none" style="stroke:rgb(0,0,0);stroke-width:1" />
  <path d="M264.446 219.543 C 263.528 219.107, 275.742 202.57, 282.684 193.294" fill="none" style="stroke:rgb(0,0,0);stroke-width:1" />
  <path d="M287.988 199.637 C 293.5 190.055, 303.99 171.93, 303.557 170.908" fill="none" style="stroke:rgb(0,0,0);stroke-width:4" />
  <path d="M303.557 170.908 C 303.124 169.886, 289.982 184.839, 282.684 193.294" fill="none" style="stroke:rgb(0,0,0);stroke-width:4" />
  <path d="M279.25 190.833 C 271.89 199.291, 258.408 214.603, 257.749 213.631" fill="none" style="stroke:rgb(0,0,0);stroke-width:4" />
  <path d="M257.749 213.631 C 257.089 212.659, 266.958 194.392, 272.022 184.924" fill="none" style="stroke:rgb(0,0,0);stroke-width:4" />
  <path d="M279.25 190.833 C 286.003 181.659, 297.881 165.143, 296.733 164.775" fill="none" style="stroke:rgb(0,0,0);stroke-width:1" />
  <path d="M296.733 164.775 C 295.585 164.407, 280.093 177.968, 272.022 184.924" fill="none" style="stroke:rgb(0,0,0);stroke-width:1" />
  <path d="M187.166 210.521 C 187.683 210.035, 188.714 208.916, 189.186 208.398" fill="none" style="stroke:rgb(0,0,0);stroke-width:4" />
  <path d="M189.186 208.398 C 189.658 207.879, 190.726 206.912, 191.365 206.348" fill="none" style="stroke:rgb(0,0,0);stroke-width:4" />
  <path d="M178.972 220.046 C 175.559 212.161, 168.934 196.704, 169.682 195.246" fill="none" style="stroke:rgb(0,0,0);stroke-width:4" />
  <path d="M169.682 195.246 C 170.429 193.787, 181.151 204.481, 187.166 210.521" fill="none" style="stroke:rgb(0,0,0);stroke-width:4" />
  <path d="M178.972 220.046 C 185.815 224.208, 199.032 232.29, 200.314 231.494" fill="none" style="stroke:rgb(0,0,0);stroke-width:1" />
  <path d="M200.314 231.494 C 201.596 230.697, 192.476 217.852, 187.166 210.521" fill="none" style="stroke:rgb(0,0,0);stroke-width:1" />
  <path d="M191.365 206.348 C 186.121 199.265, 176.97 186.477, 178.225 185.671" fill="none" style="stroke:rgb(0,0,0);stroke-width:1" />
  <path d="M178.225 185.671 C 179.479 184.865, 192.946 193.307, 199.997 197.657" fill="none" style="stroke:rgb(0,0,0);stroke-width:1" />
  <path d="M191.365 206.348 C 197.306 212.466, 208.377 223.535, 209.303 222.334" fill="none" style="stroke:rgb(0,0,0);stroke-width:4" />
  <path d="M209.303 222.334 C 210.229 221.133, 203.475 205.719, 199.997 197.657" fill="none" style="stroke:rgb(0,0,0);stroke-width:4" />
  <ellipse cx="357.357" cy="524.882" rx="1.47043" ry="1.47043"  style="fill:rgb(0,0,0)" />
  <ellipse cx="507.077" cy="377.093" rx="1.47043" ry="1.47043"  style="fill:rgb(0,0,0)" />
  <ellipse cx="551.632" cy="313.781" rx="1.47043" ry="1.47043"  style="fill:rgb(0,0,0)" />
  <ellipse cx="138.867" cy="531.303" rx="1.47043" ry="1.47043"  style="fill:rgb(0,0,0)" />
  <ellipse cx="282.31" cy="303.056" rx="1.47043" ry="1.47043"  style="fill:rgb(0,0,0)" />
  <ellipse cx="105.84" cy="460.377" rx="1.47043" ry="1.47043"  style="fill:rgb(0,0,0)" />
  <ellipse cx="316.15" cy="442.194" rx="1.47043" ry="1.47043"  style="fill:rgb(0,0,0)" />
  <ellipse cx="181.413" cy="411.719" rx="1.47043" ry="1.47043"  style="fill:rgb(0,0,0)" />
  <ellipse cx="427.592" cy="335.858" rx="1.47043" ry="1.47043"  style="fill:rgb(0,0,0)" />
  <ellipse cx="334.539" cy="367.512" rx="1.47043" ry="1.47043"  style="fill:rgb(0,0,0)" />
  <ellipse cx="437.302" cy="127.128" rx="1.47043" ry="1.47043"  style="fill:rgb(0,0,0)" />
  <ellipse cx="386.288" cy="204.218" rx="1.47043" ry="1.47043"  style="fill:rgb(0,0,0)" />
  <ellipse cx="156.634" cy="64.6224" rx="1.47043" ry="1.47043"  style="fill:rgb(0,0,0)" />
  <ellipse cx="52.3831" cy="256.654" rx="1.47043" ry="1.47043"  style="fill:rgb(0,0,0)" />
  <ellipse cx="234.496" cy="71.278" rx="1.47043" ry="1.47043"  style="fill:rgb(0,0,0)" />
  <ellipse cx="200.214" cy="315.82" rx="1.47043" ry="1.47043"  style="fill:rgb(0,0,0)" />
  <ellipse cx="282.262" cy="303.078" rx="1.47043" ry="1.47043"  style="fill:rgb(0,0,0)" />
  <ellipse cx="312.072" cy="225.877" rx="1.47043" ry="1.47043"  style="fill:rgb(0,0,0)" />
  <ellipse cx="144.52" cy="262.051" rx="1.47043" ry="1.47043"  style="fill:rgb(0,0,0)" />
  <ellipse cx="238.63" cy="160.734" rx="1.47043" ry="1.47043"  style="fill:rgb(0,0,0)" />
  <ellipse cx="279.37" cy="572.419" rx="1.47043" ry="1.47043"  style="fill:rgb(0,0,0)" />
  <ellipse cx="319.272" cy="563.816" rx="1.47043" ry="1.47043"  style="fill:rgb(0,0,0)" />
  <ellipse cx="200.223" cy="559.381" rx="1.47043" ry="1.47043"  style="fill:rgb(0,0,0)" />
  <ellipse cx="242.3" cy="571.259" rx="1.47043" ry="1.47043"  style="fill:rgb(0,0,0)" />
  <ellipse cx="460.144" cy="503.97" rx="1.47043" ry="1.47043"  style="fill:rgb(0,0,0)" />
  <ellipse cx="423.299" cy="526.181" rx="1.47043" ry="1.47043"  style="fill:rgb(0,0,0)" />
  <ellipse cx="506.884" cy="440.896" rx="1.47043" ry="1.47043"  style="fill:rgb(0,0,0)" />
  <ellipse cx="485.954" cy="477.859" rx="1.47043" ry="1.47043"  style="fill:rgb(0,0,0)" />
  <ellipse cx="250.122" cy="431.329" rx="1.47043" ry="1.47043"  style="fill:rgb(0,0,0)" />
  <ellipse cx="262.56" cy="433.897" rx="1.47043" ry="1.47043"  style="fill:rgb(0,0,0)" />
  <ellipse cx="232.528" cy="427.041" rx="1.47043" ry="1.47043"  style="fill:rgb(0,0,0)" />
  <ellipse cx="244.361" cy="430.099" rx="1.47043" ry="1.47043"  style="fill:rgb(0,0,0)" />
  <ellipse cx="377.047" cy="357.666" rx="1.47043" ry="1.47043"  style="fill:rgb(0,0,0)" />
  <ellipse cx="369.201" cy="359.544" rx="1.47043" ry="1.47043"  style="fill:rgb(0,0,0)" />
  <ellipse cx="390.043" cy="353.228" rx="1.47043" ry="1.47043"  style="fill:rgb(0,0,0)" />
  <ellipse cx="381.057" cy="356.157" rx="1.47043" ry="1.47043"  style="fill:rgb(0,0,0)" />
  <ellipse cx="517.392" cy="171.006" rx="1.47043" ry="1.47043"  style="fill:rgb(0,0,0)" />
  <ellipse cx="489.735" cy="140.669" rx="1.47043" ry="1.47043"  style="fill:rgb(0,0,0)" />
  <ellipse cx="545.439" cy="245.973" rx="1.47043" ry="1.47043"  style="fill:rgb(0,0,0)" />
  <ellipse cx="534.686" cy="203.438" rx="1.47043" ry="1.47043"  style="fill:rgb(0,0,0)" />
  <ellipse cx="367.585" cy="48.6439" rx="1.47043" ry="1.47043"  style="fill:rgb(0,0,0)" />
  <ellipse cx="405.377" cy="69.444" rx="1.47043" ry="1.47043"  style="fill:rgb(0,0,0)" />
  <ellipse cx="289.658" cy="39.7182" rx="1.47043" ry="1.47043"  style="fill:rgb(0,0,0)" />
  <ellipse cx="332.007" cy="39.4883" rx="1.47043" ry="1.47043"  style="fill:rgb(0,0,0)" />
  <ellipse cx="409.867" cy="266.444" rx="1.47043" ry="1.47043"  style="fill:rgb(0,0,0)" />
  <ellipse cx="405.642" cy="254.812" rx="1.47043" ry="1.47043"  style="fill:rgb(0,0,0)" />
  <ellipse cx="414.794" cy="283.967" rx="1.47043" ry="1.47043"  style="fill:rgb(0,0,0)" />
  <ellipse cx="411.612" cy="272.169" rx="1.47043" ry="1.47043"  style="fill:rgb(0,0,0)" />
  <ellipse cx="50.528" cy="165.467" rx="1.47043" ry="1.47043"  style="fill:rgb(0,0,0)" />
  <ellipse cx="37.8733" cy="204.538" rx="1.47043" ry="1.47043"  style="fill:rgb(0,0,0)" />
  <ellipse cx="101.499" cy="103.666" rx="1.47043" ry="1.47043"  style="fill:rgb(0,0,0)" />
  <ellipse cx="70.077" cy="134.264" rx="1.47043" ry="1.47043"  style="fill:rgb(0,0,0)" />
  <ellipse cx="19.0899" cy="356.125" rx="1.47043" ry="1.47043"  style="fill:rgb(0,0,0)" />
  <ellipse cx="18.3615" cy="313.371" rx="1.47043" ry="1.47043"  style="fill:rgb(0,0,0)" />
  <ellipse cx="50.3467" cy="428.461" rx="1.47043" ry="1.47043"  style="fill:rgb(0,0,0)" />
  <ellipse cx="29.1419" cy="391.473" rx="1.47043" ry="1.47043"  style="fill:rgb(0,0,0)" />
  <ellipse cx="187.629" cy="357.606" rx="1.47043" ry="1.47043"  style="fill:rgb(0,0,0)" />
  <ellipse cx="189.74" cy="349.716" rx="1.47043" ry="1.47043"  style="fill:rgb(0,0,0)" />
  <ellipse cx="185.356" cy="370.912" rx="1.47043" ry="1.47043"  style="fill:rgb(0,0,0)" />
  <ellipse cx="186.425" cy="361.689" rx="1.47043" ry="1.47043"  style="fill:rgb(0,0,0)" />
  <ellipse cx="282.684" cy="193.294" rx="1.47043" ry="1.47043"  style="fill:rgb(0,0,0)" />
  <ellipse cx="287.988" cy="199.637" rx="1.47043" ry="1.47043"  style="fill:rgb(0,0,0)" />
  <ellipse cx="272.022" cy="184.924" rx="1.47043" ry="1.47043"  style="fill:rgb(0,0,0)" />
  <ellipse cx="279.25" cy="190.833" rx="1.47043" ry="1.47043"  style="fill:rgb(0,0,0)" />
  <ellipse cx="187.166" cy="210.521" rx="1.47043" ry="1.47043"  style="fill:rgb(0,0,0)" />
  <ellipse cx="178.972" cy="220.046" rx="1.47043" ry="1.47043"  style="fill:rgb(0,0,0)" />
  <ellipse cx="199.997" cy="197.657" rx="1.47043" ry="1.47043"  style="fill:rgb(0,0,0)" />
  <ellipse cx="191.365" cy="206.348" rx="1.47043" ry="1.47043"  style="fill:rgb(0,0,0)" />
</svg>
