<svg height="600" width="600">
  <line x1="568.354" y1="303.063" x2="600" y2="304.522" style="stroke:rgb(0,0,0);stroke-width:5" />
  <line x1="600" y1="304.522" x2="594.148" y2="309.858" style="stroke:rgb(0,0,0);stroke-width:5" />
  <line x1="600" y1="304.522" x2="594.664" y2="298.67" style="stroke:rgb(0,0,0);stroke-width:5" />
  <line x1="140.398" y1="551.718" x2="123.035" y2="578.323" style="stroke:rgb(0,0,0);stroke-width:5" />
  <line x1="123.035" y1="578.323" x2="121.401" y2="570.551" style="stroke:rgb(0,0,0);stroke-width:5" />
  <line x1="123.035" y1="578.323" x2="130.808" y2="576.689" style="stroke:rgb(0,0,0);stroke-width:5" />
  <line x1="139.034" y1="56.9802" x2="124.399" y2="28.1479" style="stroke:rgb(0,0,0);stroke-width:5" />
  <line x1="124.399" y1="28.1479" x2="132.083" y2="30.6576" style="stroke:rgb(0,0,0);stroke-width:5" />
  <line x1="124.399" y1="28.1479" x2="121.889" y2="35.832" style="stroke:rgb(0,0,0);stroke-width:5" />
  <path d="M535.306 424.615 C 541.078 413.694, 552.096 391.926, 556.279 377.893" fill="none" style="stroke:rgb(0,0,0);stroke-width:5" />
  <path d="M556.279 377.893 C 560.462 363.86, 565.968 324.852, 568.354 303.063" fill="none" style="stroke:rgb(0,0,0);stroke-width:5" />
  <path d="M535.306 424.615 C 529.879 413.889, 519.833 393.527, 513.959 391.955" fill="none" style="stroke:rgb(0,0,0);stroke-width:5" />
  <path d="M513.959 391.955 C 508.084 390.383, 492.225 405.256, 483.495 413.636" fill="none" style="stroke:rgb(0,0,0);stroke-width:5" />
  <path d="M535.306 424.615 C 529.347 442.07, 516.815 473.45, 508.211 484.4" fill="none" style="stroke:rgb(0,0,0);stroke-width:5" />
  <path d="M508.211 484.4 C 499.607 495.35, 477.681 509.933, 466.391 516.541" fill="none" style="stroke:rgb(0,0,0);stroke-width:5" />
  <path d="M483.495 413.636 C 481.194 408.955, 476.873 400.033, 474.654 395.962" fill="none" style="stroke:rgb(0,0,0);stroke-width:5" />
  <path d="M474.654 395.962 C 472.435 391.892, 467.227 382.835, 464.438 377.677" fill="none" style="stroke:rgb(0,0,0);stroke-width:5" />
  <path d="M483.495 413.636 C 477.183 429.455, 465.58 458.343, 463.575 470.129" fill="none" style="stroke:rgb(0,0,0);stroke-width:1" />
  <path d="M463.575 470.129 C 461.571 481.915, 464.622 504.48, 466.391 516.541" fill="none" style="stroke:rgb(0,0,0);stroke-width:1" />
  <path d="M466.391 516.541 C 456.665 525.067, 437.481 541.286, 426.696 546.98" fill="none" style="stroke:rgb(0,0,0);stroke-width:5" />
  <path d="M426.696 546.98 C 415.91 552.674, 390.907 559.182, 378.017 561.995" fill="none" style="stroke:rgb(0,0,0);stroke-width:5" />
  <path d="M568.354 303.063 C 565.686 281.477, 559.447 243.117, 554.631 228.86" fill="none" style="stroke:rgb(0,0,0);stroke-width:1" />
  <path d="M554.631 228.86 C 549.814 214.602, 536.213 191.7, 528.676 180.54" fill="none" style="stroke:rgb(0,0,0);stroke-width:1" />
  <path d="M464.438 377.677 C 468.185 365.913, 475.367 344.302, 477.515 336.341" fill="none" style="stroke:rgb(0,0,0);stroke-width:5" />
  <path d="M477.515 336.341 C 479.662 328.38, 481.217 315.75, 481.911 309.195" fill="none" style="stroke:rgb(0,0,0);stroke-width:5" />
  <path d="M464.438 377.677 C 457.689 383.936, 445.133 395.394, 440.656 399.123" fill="none" style="stroke:rgb(0,0,0);stroke-width:5" />
  <path d="M440.656 399.123 C 436.18 402.852, 429.322 407.13, 425.61 409.148" fill="none" style="stroke:rgb(0,0,0);stroke-width:5" />
  <path d="M378.017 561.995 C 375.472 550.451, 370.791 529.274, 368.612 520.855" fill="none" style="stroke:rgb(0,0,0);stroke-width:1" />
  <path d="M368.612 520.855 C 366.433 512.437, 361.705 496.885, 359.198 488.538" fill="none" style="stroke:rgb(0,0,0);stroke-width:1" />
  <path d="M378.017 561.995 C 365.431 568.477, 340.76 579.681, 327.342 581.804" fill="none" style="stroke:rgb(0,0,0);stroke-width:5" />
  <path d="M327.342 581.804 C 313.923 583.926, 282.81 581.068, 266.447 578.687" fill="none" style="stroke:rgb(0,0,0);stroke-width:5" />
  <path d="M528.676 180.54 C 522.536 165.147, 509.401 136.729, 500.847 126.147" fill="none" style="stroke:rgb(0,0,0);stroke-width:5" />
  <path d="M500.847 126.147 C 492.293 115.565, 470.227 99.7819, 458.275 92.1372" fill="none" style="stroke:rgb(0,0,0);stroke-width:5" />
  <path d="M528.676 180.54 C 522.793 191.355, 511.796 211.099, 508.002 217.858" fill="none" style="stroke:rgb(0,0,0);stroke-width:5" />
  <path d="M508.002 217.858 C 504.208 224.617, 498.814 234.418, 495.896 239.63" fill="none" style="stroke:rgb(0,0,0);stroke-width:5" />
  <path d="M481.911 309.195 C 487.6 302.964, 497.972 291.813, 499.549 283.837" fill="none" style="stroke:rgb(0,0,0);stroke-width:1" />
  <path d="M499.549 283.837 C 501.126 275.861, 497.746 252.229, 495.896 239.63" fill="none" style="stroke:rgb(0,0,0);stroke-width:1" />
  <path d="M481.911 309.195 C 475.656 306.169, 464.332 300.792, 461.692 294.383" fill="none" style="stroke:rgb(0,0,0);stroke-width:5" />
  <path d="M461.692 294.383 C 459.053 287.975, 458.684 265.471, 458.526 253.431" fill="none" style="stroke:rgb(0,0,0);stroke-width:5" />
  <path d="M495.896 239.63 C 489.767 234.101, 478.277 223.825, 473.977 225.351" fill="none" style="stroke:rgb(0,0,0);stroke-width:5" />
  <path d="M473.977 225.351 C 469.678 226.878, 462.483 244.054, 458.526 253.431" fill="none" style="stroke:rgb(0,0,0);stroke-width:5" />
  <path d="M458.526 253.431 C 455.278 252.249, 449.467 250.455, 445.98 250.922" fill="none" style="stroke:rgb(0,0,0);stroke-width:5" />
  <path d="M445.98 250.922 C 442.493 251.389, 433.181 254.314, 428.279 255.693" fill="none" style="stroke:rgb(0,0,0);stroke-width:5" />
  <path d="M425.61 409.148 C 424.224 399.566, 421.522 381.663, 418.19 378.668" fill="none" style="stroke:rgb(0,0,0);stroke-width:1" />
  <path d="M418.19 378.668 C 414.858 375.672, 403.029 380.642, 396.55 383.28" fill="none" style="stroke:rgb(0,0,0);stroke-width:1" />
  <path d="M425.61 409.148 C 422.206 419.61, 415.857 439.154, 411.692 443.306" fill="none" style="stroke:rgb(0,0,0);stroke-width:5" />
  <path d="M411.692 443.306 C 407.527 447.457, 395.893 445.851, 389.643 445.023" fill="none" style="stroke:rgb(0,0,0);stroke-width:5" />
  <path d="M396.55 383.28 C 395.831 378.63, 394.765 369.463, 394.442 363.877" fill="none" style="stroke:rgb(0,0,0);stroke-width:5" />
  <path d="M394.442 363.877 C 394.119 358.292, 393.597 343.382, 393.371 335.126" fill="none" style="stroke:rgb(0,0,0);stroke-width:5" />
  <path d="M396.55 383.28 C 391.682 392.215, 382.814 408.251, 382.036 415.24" fill="none" style="stroke:rgb(0,0,0);stroke-width:5" />
  <path d="M382.036 415.24 C 381.257 422.23, 386.672 437.066, 389.643 445.023" fill="none" style="stroke:rgb(0,0,0);stroke-width:5" />
  <path d="M389.643 445.023 C 387.01 450.003, 382.15 458.983, 378.619 463.955" fill="none" style="stroke:rgb(0,0,0);stroke-width:5" />
  <path d="M378.619 463.955 C 375.089 468.926, 364.726 481.704, 359.198 488.538" fill="none" style="stroke:rgb(0,0,0);stroke-width:5" />
  <path d="M359.198 488.538 C 351.7 484.977, 338.111 478.548, 332.288 474.994" fill="none" style="stroke:rgb(0,0,0);stroke-width:5" />
  <path d="M332.288 474.994 C 326.465 471.441, 314.569 462.421, 308.225 457.639" fill="none" style="stroke:rgb(0,0,0);stroke-width:5" />
  <path d="M266.447 578.687 C 259.923 568.144, 248.27 548.887, 244.355 542.228" fill="none" style="stroke:rgb(0,0,0);stroke-width:5" />
  <path d="M244.355 542.228 C 240.44 535.569, 234.912 526.037, 232.087 521.109" fill="none" style="stroke:rgb(0,0,0);stroke-width:5" />
  <path d="M266.447 578.687 C 253 579.574, 226.424 579.916, 211.707 576.971" fill="none" style="stroke:rgb(0,0,0);stroke-width:1" />
  <path d="M211.707 576.971 C 196.99 574.025, 160.541 560.198, 140.398 551.718" fill="none" style="stroke:rgb(0,0,0);stroke-width:1" />
  <path d="M140.398 551.718 C 122.729 538.743, 91.5769 514.462, 81.5192 503.849" fill="none" style="stroke:rgb(0,0,0);stroke-width:5" />
  <path d="M81.5192 503.849 C 71.4615 493.237, 58.3049 472.907, 51.781 462.496" fill="none" style="stroke:rgb(0,0,0);stroke-width:5" />
  <path d="M139.034 56.9802 C 121.651 70.0292, 91.4514 94.4981, 81.4853 105.775" fill="none" style="stroke:rgb(0,0,0);stroke-width:1" />
  <path d="M81.4853 105.775 C 71.5191 117.052, 58.5137 140.305, 52.6232 152.424" fill="none" style="stroke:rgb(0,0,0);stroke-width:1" />
  <path d="M139.034 56.9802 C 159.101 48.0613, 195.644 33.0796, 209.838 29.661" fill="none" style="stroke:rgb(0,0,0);stroke-width:5" />
  <path d="M209.838 29.661 C 224.033 26.2425, 248.277 24.9579, 260.61 24.4474" fill="none" style="stroke:rgb(0,0,0);stroke-width:5" />
  <path d="M458.275 92.1372 C 449.433 82.3796, 431.525 64.0112, 421.211 57.509" fill="none" style="stroke:rgb(0,0,0);stroke-width:5" />
  <path d="M421.211 57.509 C 410.897 51.0067, 387.063 42.4245, 374.79 38.2359" fill="none" style="stroke:rgb(0,0,0);stroke-width:5" />
  <path d="M458.275 92.1372 C 449.686 100.278, 433.805 115.213, 427.562 121.338" fill="none" style="stroke:rgb(0,0,0);stroke-width:1" />
  <path d="M427.562 121.338 C 421.318 127.464, 410.107 139.356, 404.09 145.791" fill="none" style="stroke:rgb(0,0,0);stroke-width:1" />
  <path d="M428.279 255.693 C 427.463 246.022, 425.801 227.84, 422.842 222.158" fill="none" style="stroke:rgb(0,0,0);stroke-width:5" />
  <path d="M422.842 222.158 C 419.882 216.477, 408.867 209.798, 402.925 205.968" fill="none" style="stroke:rgb(0,0,0);stroke-width:5" />
  <path d="M428.279 255.693 C 424.065 267.61, 416.522 289.224, 412.524 298.311" fill="none" style="stroke:rgb(0,0,0);stroke-width:1" />
  <path d="M412.524 298.311 C 408.525 307.398, 398.614 325.501, 393.371 335.126" fill="none" style="stroke:rgb(0,0,0);stroke-width:1" />
  <path d="M393.371 335.126 C 387.482 337.613, 376.62 342.463, 371.898 344.358" fill="none" style="stroke:rgb(0,0,0);stroke-width:5" />
  <path d="M371.898 344.358 C 367.177 346.253, 357.822 349.073, 352.937 350.467" fill="none" style="stroke:rgb(0,0,0);stroke-width:5" />
  <path d="M308.225 457.639 C 307.51 448.339, 306.114 431.09, 306.432 424.272" fill="none" style="stroke:rgb(0,0,0);stroke-width:5" />
  <path d="M306.432 424.272 C 306.751 417.455, 309.868 404.859, 311.667 397.947" fill="none" style="stroke:rgb(0,0,0);stroke-width:5" />
  <path d="M308.225 457.639 C 302.013 460.885, 290.93 467.267, 284.601 466.988" fill="none" style="stroke:rgb(0,0,0);stroke-width:5" />
  <path d="M284.601 466.988 C 278.272 466.709, 261.729 458.911, 252.974 454.808" fill="none" style="stroke:rgb(0,0,0);stroke-width:5" />
  <path d="M232.087 521.109 C 240.023 518.518, 254.555 513.843, 255.347 509.396" fill="none" style="stroke:rgb(0,0,0);stroke-width:5" />
  <path d="M255.347 509.396 C 256.14 504.949, 245.121 490.055, 239.113 481.969" fill="none" style="stroke:rgb(0,0,0);stroke-width:5" />
  <path d="M232.087 521.109 C 220.037 516.258, 197.961 507.566, 191.894 502.122" fill="none" style="stroke:rgb(0,0,0);stroke-width:1" />
  <path d="M191.894 502.122 C 185.826 496.679, 181.491 481.791, 179.265 473.95" fill="none" style="stroke:rgb(0,0,0);stroke-width:1" />
  <path d="M239.113 481.969 C 241.647 479.89, 246.429 475.736, 247.968 472.528" fill="none" style="stroke:rgb(0,0,0);stroke-width:5" />
  <path d="M247.968 472.528 C 249.508 469.32, 251.656 459.894, 252.974 454.808" fill="none" style="stroke:rgb(0,0,0);stroke-width:5" />
  <path d="M239.113 481.969 C 228.529 476.108, 209.414 465.387, 202.642 464.48" fill="none" style="stroke:rgb(0,0,0);stroke-width:5" />
  <path d="M202.642 464.48 C 195.871 463.574, 185.062 470.285, 179.265 473.95" fill="none" style="stroke:rgb(0,0,0);stroke-width:5" />
  <path d="M179.265 473.95 C 173.633 469.951, 163.443 462.404, 157.634 456.57" fill="none" style="stroke:rgb(0,0,0);stroke-width:5" />
  <path d="M157.634 456.57 C 151.824 450.735, 136.56 433.581, 128.355 424.549" fill="none" style="stroke:rgb(0,0,0);stroke-width:5" />
  <path d="M51.781 462.496 C 63.8329 463.083, 86.4124 464.348, 90.7261 460.089" fill="none" style="stroke:rgb(0,0,0);stroke-width:5" />
  <path d="M90.7261 460.089 C 95.0398 455.83, 90.2441 434.823, 87.3487 423.012" fill="none" style="stroke:rgb(0,0,0);stroke-width:5" />
  <path d="M51.781 462.496 C 39.6024 448.656, 18.6426 421.948, 13.4551 409.116" fill="none" style="stroke:rgb(0,0,0);stroke-width:5" />
  <path d="M13.4551 409.116 C 8.26769 396.284, 6.62822 370.147, 6.58231 356.806" fill="none" style="stroke:rgb(0,0,0);stroke-width:5" />
  <path d="M87.3487 423.012 C 92.5846 423.316, 102.29 423.675, 106.958 423.763" fill="none" style="stroke:rgb(0,0,0);stroke-width:5" />
  <path d="M106.958 423.763 C 111.627 423.852, 122.425 424.262, 128.355 424.549" fill="none" style="stroke:rgb(0,0,0);stroke-width:5" />
  <path d="M87.3487 423.012 C 76.8926 409.581, 57.5408 384.766, 48.2977 377.217" fill="none" style="stroke:rgb(0,0,0);stroke-width:1" />
  <path d="M48.2977 377.217 C 39.0545 369.667, 18.0232 361.38, 6.58231 356.806" fill="none" style="stroke:rgb(0,0,0);stroke-width:1" />
  <path d="M6.58231 356.806 C 4.08315 344.306, -0.400372 319.185, 0 306.976" fill="none" style="stroke:rgb(0,0,0);stroke-width:5" />
  <path d="M0 306.976 C 0.400372 294.768, 7.35301 270.151, 11.5206 257.331" fill="none" style="stroke:rgb(0,0,0);stroke-width:5" />
  <path d="M52.6232 152.424 C 42.411 165.395, 24.4747 190.793, 19.6301 203.473" fill="none" style="stroke:rgb(0,0,0);stroke-width:5" />
  <path d="M19.6301 203.473 C 14.7855 216.154, 12.1706 243.209, 11.5206 257.331" fill="none" style="stroke:rgb(0,0,0);stroke-width:5" />
  <path d="M52.6232 152.424 C 65.002 152.08, 87.5031 151.653, 95.2885 151.596" fill="none" style="stroke:rgb(0,0,0);stroke-width:5" />
  <path d="M95.2885 151.596 C 103.074 151.54, 114.214 151.572, 119.906 151.635" fill="none" style="stroke:rgb(0,0,0);stroke-width:5" />
  <path d="M260.61 24.4474 C 253.989 34.7138, 241.375 53.5749, 242.998 59.4155" fill="none" style="stroke:rgb(0,0,0);stroke-width:5" />
  <path d="M242.998 59.4155 C 244.62 65.2561, 265.471 71.5577, 277.082 74.7728" fill="none" style="stroke:rgb(0,0,0);stroke-width:5" />
  <path d="M260.61 24.4474 C 278.899 20.8409, 312.391 16.1821, 326.093 18.1962" fill="none" style="stroke:rgb(0,0,0);stroke-width:5" />
  <path d="M326.093 18.1962 C 339.795 20.2103, 363.393 31.7634, 374.79 38.2359" fill="none" style="stroke:rgb(0,0,0);stroke-width:5" />
  <path d="M277.082 74.7728 C 274.123 79.3314, 269.077 87.3768, 266.724 91.3226" fill="none" style="stroke:rgb(0,0,0);stroke-width:5" />
  <path d="M266.724 91.3226 C 264.372 95.2684, 258.701 104.591, 255.647 109.509" fill="none" style="stroke:rgb(0,0,0);stroke-width:5" />
  <path d="M277.082 74.7728 C 293.899 72.5224, 324.988 68.1097, 336.172 63.8944" fill="none" style="stroke:rgb(0,0,0);stroke-width:1" />
  <path d="M336.172 63.8944 C 347.356 59.679, 365.121 45.8233, 374.79 38.2359" fill="none" style="stroke:rgb(0,0,0);stroke-width:1" />
  <path d="M404.09 145.791 C 395.334 144.541, 379.033 142.021, 372.951 141.465" fill="none" style="stroke:rgb(0,0,0);stroke-width:5" />
  <path d="M372.951 141.465 C 366.869 140.909, 356.702 141.184, 351.154 141.301" fill="none" style="stroke:rgb(0,0,0);stroke-width:5" />
  <path d="M404.09 145.791 C 404.836 154.087, 406.152 169.2, 405.972 176.106" fill="none" style="stroke:rgb(0,0,0);stroke-width:5" />
  <path d="M405.972 176.106 C 405.792 183.012, 403.893 197.988, 402.925 205.968" fill="none" style="stroke:rgb(0,0,0);stroke-width:5" />
  <path d="M402.925 205.968 C 395.199 211.182, 380.875 221.018, 374.84 224.244" fill="none" style="stroke:rgb(0,0,0);stroke-width:5" />
  <path d="M374.84 224.244 C 368.806 227.469, 356.509 231.278, 349.682 233.257" fill="none" style="stroke:rgb(0,0,0);stroke-width:5" />
  <path d="M352.937 350.467 C 352.705 342.379, 352.695 327.448, 352.33 322.367" fill="none" style="stroke:rgb(0,0,0);stroke-width:5" />
  <path d="M352.33 322.367 C 351.965 317.286, 349.643 310.816, 348.272 307.665" fill="none" style="stroke:rgb(0,0,0);stroke-width:5" />
  <path d="M352.937 350.467 C 347.879 358.766, 338.866 373.94, 334.171 379.403" fill="none" style="stroke:rgb(0,0,0);stroke-width:1" />
  <path d="M334.171 379.403 C 329.475 384.866, 317.853 393.432, 311.667 397.947" fill="none" style="stroke:rgb(0,0,0);stroke-width:1" />
  <path d="M311.667 397.947 C 306.676 394.346, 297.241 387.6, 293.96 384.93" fill="none" style="stroke:rgb(0,0,0);stroke-width:5" />
  <path d="M293.96 384.93 C 290.68 382.259, 285.8 377.257, 283.037 374.451" fill="none" style="stroke:rgb(0,0,0);stroke-width:5" />
  <path d="M252.974 454.808 C 244.886 445.368, 229.728 427.787, 223.867 419.753" fill="none" style="stroke:rgb(0,0,0);stroke-width:1" />
  <path d="M223.867 419.753 C 218.005 411.719, 207.65 394.177, 201.947 384.561" fill="none" style="stroke:rgb(0,0,0);stroke-width:1" />
  <path d="M128.355 424.549 C 126.293 415.466, 122.679 398.989, 121.749 393.26" fill="none" style="stroke:rgb(0,0,0);stroke-width:5" />
  <path d="M121.749 393.26 C 120.819 387.53, 120.784 379.548, 121.058 375.631" fill="none" style="stroke:rgb(0,0,0);stroke-width:5" />
  <path d="M11.5206 257.331 C 22.9145 260.792, 44.1819 267.285, 52.7296 269.701" fill="none" style="stroke:rgb(0,0,0);stroke-width:1" />
  <path d="M52.7296 269.701 C 61.2773 272.118, 77.2057 276.051, 85.9125 278.183" fill="none" style="stroke:rgb(0,0,0);stroke-width:1" />
  <path d="M119.906 151.635 C 118.267 159.854, 115.08 174.837, 118.625 177.748" fill="none" style="stroke:rgb(0,0,0);stroke-width:5" />
  <path d="M118.625 177.748 C 122.17 180.659, 140.751 178.458, 150.694 177.197" fill="none" style="stroke:rgb(0,0,0);stroke-width:5" />
  <path d="M119.906 151.635 C 130.127 143.584, 148.645 128.783, 156.417 126.198" fill="none" style="stroke:rgb(0,0,0);stroke-width:1" />
  <path d="M156.417 126.198 C 164.188 123.614, 179.44 127.199, 187.446 129.203" fill="none" style="stroke:rgb(0,0,0);stroke-width:1" />
  <path d="M150.694 177.197 C 151.412 180.659, 152.737 186.703, 154.861 189.525" fill="none" style="stroke:rgb(0,0,0);stroke-width:5" />
  <path d="M154.861 189.525 C 156.984 192.348, 164.382 198.924, 168.14 202.435" fill="none" style="stroke:rgb(0,0,0);stroke-width:5" />
  <path d="M150.694 177.197 C 160.98 171.072, 180.058 159.71, 184.258 154.195" fill="none" style="stroke:rgb(0,0,0);stroke-width:5" />
  <path d="M184.258 154.195 C 188.458 148.679, 187.756 136.045, 187.446 129.203" fill="none" style="stroke:rgb(0,0,0);stroke-width:5" />
  <path d="M187.446 129.203 C 193.706 126.367, 205.336 121.286, 213.201 119.119" fill="none" style="stroke:rgb(0,0,0);stroke-width:5" />
  <path d="M213.201 119.119 C 221.066 116.952, 243.536 112.185, 255.647 109.509" fill="none" style="stroke:rgb(0,0,0);stroke-width:5" />
  <path d="M255.647 109.509 C 264.499 112.343, 280.99 117.47, 286.374 119.529" fill="none" style="stroke:rgb(0,0,0);stroke-width:5" />
  <path d="M286.374 119.529 C 291.759 121.587, 298.329 125.684, 301.771 127.956" fill="none" style="stroke:rgb(0,0,0);stroke-width:5" />
  <path d="M351.154 141.301 C 348.725 135.283, 344.652 124.247, 338.962 122.734" fill="none" style="stroke:rgb(0,0,0);stroke-width:5" />
  <path d="M338.962 122.734 C 333.272 121.221, 312.654 125.585, 301.771 127.956" fill="none" style="stroke:rgb(0,0,0);stroke-width:5" />
  <path d="M351.154 141.301 C 345.729 147.847, 335.579 159.996, 329.128 162.846" fill="none" style="stroke:rgb(0,0,0);stroke-width:5" />
  <path d="M329.128 162.846 C 322.676 165.696, 304.335 166.023, 294.17 166.254" fill="none" style="stroke:rgb(0,0,0);stroke-width:5" />
  <path d="M301.771 127.956 C 294.245 134.001, 280.162 145.434, 279.286 149.844" fill="none" style="stroke:rgb(0,0,0);stroke-width:1" />
  <path d="M279.286 149.844 C 278.411 154.254, 288.693 161.969, 294.17 166.254" fill="none" style="stroke:rgb(0,0,0);stroke-width:1" />
  <path d="M294.17 166.254 C 290.495 169.273, 283.258 174.957, 278.623 178.046" fill="none" style="stroke:rgb(0,0,0);stroke-width:5" />
  <path d="M278.623 178.046 C 273.989 181.136, 261.285 188.985, 254.288 193.319" fill="none" style="stroke:rgb(0,0,0);stroke-width:5" />
  <path d="M349.682 233.257 C 342.59 230.13, 329.456 224.469, 322.339 223.091" fill="none" style="stroke:rgb(0,0,0);stroke-width:1" />
  <path d="M322.339 223.091 C 315.222 221.712, 297.402 221.285, 287.774 221.082" fill="none" style="stroke:rgb(0,0,0);stroke-width:1" />
  <path d="M349.682 233.257 C 349.07 239.379, 347.91 250.862, 347.234 255.018" fill="none" style="stroke:rgb(0,0,0);stroke-width:5" />
  <path d="M347.234 255.018 C 346.559 259.173, 344.755 265.794, 343.753 269.466" fill="none" style="stroke:rgb(0,0,0);stroke-width:5" />
  <path d="M348.272 307.665 C 351.702 300.963, 358.264 288.732, 357.742 284.299" fill="none" style="stroke:rgb(0,0,0);stroke-width:5" />
  <path d="M357.742 284.299 C 357.22 279.865, 348.399 272.996, 343.753 269.466" fill="none" style="stroke:rgb(0,0,0);stroke-width:5" />
  <path d="M348.272 307.665 C 342.141 310.453, 331.031 315.597, 327.199 314.572" fill="none" style="stroke:rgb(0,0,0);stroke-width:1" />
  <path d="M327.199 314.572 C 323.366 313.547, 317.72 304.005, 314.761 298.87" fill="none" style="stroke:rgb(0,0,0);stroke-width:1" />
  <path d="M343.753 269.466 C 337.35 270.703, 325.614 273.014, 322.306 276.426" fill="none" style="stroke:rgb(0,0,0);stroke-width:5" />
  <path d="M322.306 276.426 C 318.998 279.838, 316.237 292.229, 314.761 298.87" fill="none" style="stroke:rgb(0,0,0);stroke-width:5" />
  <path d="M314.761 298.87 C 311.432 299.807, 305.534 301.35, 301.92 301.954" fill="none" style="stroke:rgb(0,0,0);stroke-width:5" />
  <path d="M301.92 301.954 C 298.307 302.558, 288.351 303.922, 283.053 304.682" fill="none" style="stroke:rgb(0,0,0);stroke-width:5" />
  <path d="M283.037 374.451 C 285.083 368.376, 288.825 356.872, 287.612 352.315" fill="none" style="stroke:rgb(0,0,0);stroke-width:5" />
  <path d="M287.612 352.315 C 286.399 347.759, 277.089 339.491, 271.9 334.909" fill="none" style="stroke:rgb(0,0,0);stroke-width:5" />
  <path d="M283.037 374.451 C 277.675 376.756, 267.428 381, 263.374 379.336" fill="none" style="stroke:rgb(0,0,0);stroke-width:5" />
  <path d="M263.374 379.336 C 259.32 377.671, 251.951 366.161, 247.805 359.917" fill="none" style="stroke:rgb(0,0,0);stroke-width:5" />
  <path d="M271.9 334.909 C 272.682 331.598, 274.196 325.79, 275.588 322.339" fill="none" style="stroke:rgb(0,0,0);stroke-width:5" />
  <path d="M275.588 322.339 C 276.98 318.887, 281.044 309.581, 283.053 304.682" fill="none" style="stroke:rgb(0,0,0);stroke-width:5" />
  <path d="M271.9 334.909 C 265.955 334.939, 254.597 335.102, 251.803 337.955" fill="none" style="stroke:rgb(0,0,0);stroke-width:1" />
  <path d="M251.803 337.955 C 249.008 340.807, 248.318 353.148, 247.805 359.917" fill="none" style="stroke:rgb(0,0,0);stroke-width:1" />
  <path d="M247.805 359.917 C 244.443 359.502, 237.801 358.165, 233.185 356" fill="none" style="stroke:rgb(0,0,0);stroke-width:5" />
  <path d="M233.185 356 C 228.57 353.835, 215.519 346.349, 208.415 342.269" fill="none" style="stroke:rgb(0,0,0);stroke-width:5" />
  <path d="M201.947 384.561 C 202.655 378.311, 203.917 366.456, 204.584 361.551" fill="none" style="stroke:rgb(0,0,0);stroke-width:5" />
  <path d="M204.584 361.551 C 205.252 356.645, 207.224 347.355, 208.415 342.269" fill="none" style="stroke:rgb(0,0,0);stroke-width:5" />
  <path d="M201.947 384.561 C 194.729 380.717, 181.674 373.817, 176.662 371.34" fill="none" style="stroke:rgb(0,0,0);stroke-width:5" />
  <path d="M176.662 371.34 C 171.65 368.862, 163.062 365.381, 158.661 363.8" fill="none" style="stroke:rgb(0,0,0);stroke-width:5" />
  <path d="M121.058 375.631 C 130.282 379.235, 147.233 386.011, 151.501 384.662" fill="none" style="stroke:rgb(0,0,0);stroke-width:1" />
  <path d="M151.501 384.662 C 155.769 383.313, 157.619 370.622, 158.661 363.8" fill="none" style="stroke:rgb(0,0,0);stroke-width:1" />
  <path d="M121.058 375.631 C 113.534 367.176, 99.6673 351.859, 98.2156 346.263" fill="none" style="stroke:rgb(0,0,0);stroke-width:5" />
  <path d="M98.2156 346.263 C 96.7639 340.668, 104.102 331.483, 108.001 326.629" fill="none" style="stroke:rgb(0,0,0);stroke-width:5" />
  <path d="M158.661 363.8 C 153.348 354.984, 143.867 339.144, 138.093 334.976" fill="none" style="stroke:rgb(0,0,0);stroke-width:5" />
  <path d="M138.093 334.976 C 132.32 330.807, 116.47 328.061, 108.001 326.629" fill="none" style="stroke:rgb(0,0,0);stroke-width:5" />
  <path d="M108.001 326.629 C 105.095 321.87, 99.9153 313.136, 97.4483 307.541" fill="none" style="stroke:rgb(0,0,0);stroke-width:5" />
  <path d="M97.4483 307.541 C 94.9814 301.947, 89.1169 286.458, 85.9125 278.183" fill="none" style="stroke:rgb(0,0,0);stroke-width:5" />
  <path d="M85.9125 278.183 C 92.5216 273.461, 104.932 264.612, 110.902 261.288" fill="none" style="stroke:rgb(0,0,0);stroke-width:5" />
  <path d="M110.902 261.288 C 116.872 257.963, 130.473 252.239, 137.937 249.037" fill="none" style="stroke:rgb(0,0,0);stroke-width:5" />
  <path d="M168.14 202.435 C 160.089 208.147, 145.495 218.478, 142.143 223.84" fill="none" style="stroke:rgb(0,0,0);stroke-width:5" />
  <path d="M142.143 223.84 C 138.79 229.202, 138.283 242.172, 137.937 249.037" fill="none" style="stroke:rgb(0,0,0);stroke-width:5" />
  <path d="M168.14 202.435 C 180.49 200.129, 203.154 195.823, 213.04 194.76" fill="none" style="stroke:rgb(0,0,0);stroke-width:1" />
  <path d="M213.04 194.76 C 222.926 193.697, 243.337 193.445, 254.288 193.319" fill="none" style="stroke:rgb(0,0,0);stroke-width:1" />
  <path d="M254.288 193.319 C 259.428 197.194, 269.209 204.395, 273.125 207.54" fill="none" style="stroke:rgb(0,0,0);stroke-width:5" />
  <path d="M273.125 207.54 C 277.04 210.685, 284.002 217.365, 287.774 221.082" fill="none" style="stroke:rgb(0,0,0);stroke-width:5" />
  <path d="M287.774 221.082 C 280.813 225.248, 267.796 233.155, 263.609 236.084" fill="none" style="stroke:rgb(0,0,0);stroke-width:5" />
  <path d="M263.609 236.084 C 259.421 239.013, 254.885 243.982, 252.669 246.834" fill="none" style="stroke:rgb(0,0,0);stroke-width:5" />
  <path d="M283.053 304.682 C 279.741 300.423, 273.827 292.694, 271.483 289.909" fill="none" style="stroke:rgb(0,0,0);stroke-width:5" />
  <path d="M271.483 289.909 C 269.14 287.125, 264.773 282.778, 262.491 280.532" fill="none" style="stroke:rgb(0,0,0);stroke-width:5" />
  <path d="M208.415 342.269 C 203.867 333.898, 195.139 318.141, 192.703 311.235" fill="none" style="stroke:rgb(0,0,0);stroke-width:1" />
  <path d="M192.703 311.235 C 190.267 304.33, 188.775 290.045, 187.976 282.187" fill="none" style="stroke:rgb(0,0,0);stroke-width:1" />
  <path d="M137.937 249.037 C 146.316 253.229, 161.845 260.849, 167.646 264.565" fill="none" style="stroke:rgb(0,0,0);stroke-width:5" />
  <path d="M167.646 264.565 C 173.447 268.281, 182.938 277.236, 187.976 282.187" fill="none" style="stroke:rgb(0,0,0);stroke-width:5" />
  <path d="M252.669 246.834 C 245.344 247.194, 231.788 247.937, 228.318 250.602" fill="none" style="stroke:rgb(0,0,0);stroke-width:5" />
  <path d="M228.318 250.602 C 224.848 253.266, 223.338 263.994, 222.536 269.774" fill="none" style="stroke:rgb(0,0,0);stroke-width:5" />
  <path d="M252.669 246.834 C 258.346 250.653, 268.976 257.862, 270.067 261.735" fill="none" style="stroke:rgb(0,0,0);stroke-width:1" />
  <path d="M270.067 261.735 C 271.158 265.607, 265.439 275.246, 262.491 280.532" fill="none" style="stroke:rgb(0,0,0);stroke-width:1" />
  <path d="M222.536 269.774 C 218.785 270.609, 211.997 272.108, 208.033 273.562" fill="none" style="stroke:rgb(0,0,0);stroke-width:5" />
  <path d="M208.033 273.562 C 204.07 275.017, 193.577 279.724, 187.976 282.187" fill="none" style="stroke:rgb(0,0,0);stroke-width:5" />
  <path d="M222.536 269.774 C 226.737 274.602, 234.645 283.752, 239.233 285.016" fill="none" style="stroke:rgb(0,0,0);stroke-width:5" />
  <path d="M239.233 285.016 C 243.821 286.281, 255.891 282.511, 262.491 280.532" fill="none" style="stroke:rgb(0,0,0);stroke-width:5" />
</svg>
