<svg height="600" width="600">
  <line x1="545.534" y1="234.759" x2="589.798" y2="336.734" style="stroke:rgb(0,0,0);stroke-width:4" />
  <line x1="589.798" y1="336.734" x2="563.947" y2="326.532" style="stroke:rgb(0,0,0);stroke-width:4" />
  <line x1="589.798" y1="336.734" x2="600" y2="310.882" style="stroke:rgb(0,0,0);stroke-width:4" />
  <line x1="210.367" y1="562.213" x2="98.0316" y2="548.422" style="stroke:rgb(0,0,0);stroke-width:4" />
  <line x1="98.0316" y1="548.422" x2="120.328" y2="531.002" style="stroke:rgb(0,0,0);stroke-width:4" />
  <line x1="98.0316" y1="548.422" x2="115.452" y2="570.718" style="stroke:rgb(0,0,0);stroke-width:4" />
  <line x1="93.507" y1="107.706" x2="161.448" y2="17.2122" style="stroke:rgb(0,0,0);stroke-width:4" />
  <line x1="161.448" y1="17.2122" x2="165.435" y2="45.2198" style="stroke:rgb(0,0,0);stroke-width:4" />
  <line x1="161.448" y1="17.2122" x2="133.44" y2="21.1992" style="stroke:rgb(0,0,0);stroke-width:4" />
  <path d="M276.385 491.758 C 224.617 485.702, 146.833 474.927, 131.083 469.275" fill="none" style="stroke:rgb(0,0,0);stroke-width:4" />
  <path d="M131.083 469.275 C 115.333 463.623, 109.662 450.153, 109.473 443.266" fill="none" style="stroke:rgb(0,0,0);stroke-width:4" />
  <path d="M276.385 491.758 C 276.144 496.029, 275.232 504.3, 275.585 509.183" fill="none" style="stroke:rgb(0,0,0);stroke-width:4" />
  <path d="M275.585 509.183 C 275.938 514.066, 279.963 527.237, 282.61 534.644" fill="none" style="stroke:rgb(0,0,0);stroke-width:4" />
  <path d="M276.385 491.758 C 328.016 489.421, 405.596 484.093, 422.003 479.663" fill="none" style="stroke:rgb(0,0,0);stroke-width:4" />
  <path d="M422.003 479.663 C 438.41 475.232, 447.81 462.317, 450.344 455.272" fill="none" style="stroke:rgb(0,0,0);stroke-width:4" />
  <path d="M450.344 455.272 C 465.769 450.862, 488.944 439.684, 493.728 431.528" fill="none" style="stroke:rgb(0,0,0);stroke-width:4" />
  <path d="M493.728 431.528 C 498.513 423.372, 496.676 397.134, 493.02 380.44" fill="none" style="stroke:rgb(0,0,0);stroke-width:4" />
  <path d="M450.344 455.272 C 433.94 450.213, 403.93 440.863, 395.014 437.837" fill="none" style="stroke:rgb(0,0,0);stroke-width:4" />
  <path d="M395.014 437.837 C 386.098 434.811, 378.028 431.064, 374.183 429.079" fill="none" style="stroke:rgb(0,0,0);stroke-width:4" />
  <path d="M451.576 211.681 C 423.726 168.164, 380.224 103.619, 368.129 91.6156" fill="none" style="stroke:rgb(0,0,0);stroke-width:4" />
  <path d="M368.129 91.6156 C 356.035 79.6127, 340.181 77.9897, 332.863 79.3451" fill="none" style="stroke:rgb(0,0,0);stroke-width:4" />
  <path d="M451.576 211.681 C 472.258 259.717, 501.831 332.597, 504.777 348.979" fill="none" style="stroke:rgb(0,0,0);stroke-width:4" />
  <path d="M504.777 348.979 C 507.723 365.361, 498.871 376.86, 493.02 380.44" fill="none" style="stroke:rgb(0,0,0);stroke-width:4" />
  <path d="M451.576 211.681 C 455.365 209.776, 462.951 206.447, 467.004 203.699" fill="none" style="stroke:rgb(0,0,0);stroke-width:4" />
  <path d="M467.004 203.699 C 471.056 200.952, 480.442 190.9, 485.518 184.917" fill="none" style="stroke:rgb(0,0,0);stroke-width:4" />
  <path d="M493.02 380.44 C 479.489 365.294, 454.447 336.668, 444.961 328.387" fill="none" style="stroke:rgb(0,0,0);stroke-width:4" />
  <path d="M444.961 328.387 C 435.476 320.105, 419.136 314.435, 410.257 311.85" fill="none" style="stroke:rgb(0,0,0);stroke-width:4" />
  <path d="M332.863 79.3451 C 336.711 96.1049, 343.675 126.822, 345.518 136.058" fill="none" style="stroke:rgb(0,0,0);stroke-width:4" />
  <path d="M345.518 136.058 C 347.361 145.295, 348.052 154.1, 348.174 158.387" fill="none" style="stroke:rgb(0,0,0);stroke-width:4" />
  <path d="M332.863 79.3451 C 321.38 68.2166, 300.392 53.7913, 290.937 53.7163" fill="none" style="stroke:rgb(0,0,0);stroke-width:4" />
  <path d="M290.937 53.7163 C 281.482 53.6414, 259.555 68.1995, 247.031 79.6107" fill="none" style="stroke:rgb(0,0,0);stroke-width:4" />
  <path d="M121.608 200.135 C 152.556 158.442, 200.953 96.2023, 213.706 85.2633" fill="none" style="stroke:rgb(0,0,0);stroke-width:4" />
  <path d="M213.706 85.2633 C 226.46 74.3243, 240.775 76.3016, 247.031 79.6107" fill="none" style="stroke:rgb(0,0,0);stroke-width:4" />
  <path d="M121.608 200.135 C 117.821 197.696, 111.22 192.829, 106.777 190.682" fill="none" style="stroke:rgb(0,0,0);stroke-width:4" />
  <path d="M106.777 190.682 C 102.335 188.534, 88.7492 185.32, 81.2338 183.972" fill="none" style="stroke:rgb(0,0,0);stroke-width:4" />
  <path d="M121.608 200.135 C 97.6871 246.078, 63.4154 315.875, 59.0886 332.336" fill="none" style="stroke:rgb(0,0,0);stroke-width:4" />
  <path d="M59.0886 332.336 C 54.7619 348.797, 61.3367 363.511, 66.214 369.157" fill="none" style="stroke:rgb(0,0,0);stroke-width:4" />
  <path d="M247.031 79.6107 C 240.53 98.8538, 228.204 134.807, 225.754 147.137" fill="none" style="stroke:rgb(0,0,0);stroke-width:4" />
  <path d="M225.754 147.137 C 223.304 159.468, 226.238 176.453, 228.248 185.488" fill="none" style="stroke:rgb(0,0,0);stroke-width:4" />
  <path d="M109.473 443.266 C 129.374 439.102, 166.863 431.745, 178.844 427.705" fill="none" style="stroke:rgb(0,0,0);stroke-width:4" />
  <path d="M178.844 427.705 C 190.824 423.666, 203.885 412.451, 210.572 406.122" fill="none" style="stroke:rgb(0,0,0);stroke-width:4" />
  <path d="M109.473 443.266 C 93.2112 438.094, 69.6414 426.556, 64.9927 418.354" fill="none" style="stroke:rgb(0,0,0);stroke-width:4" />
  <path d="M64.9927 418.354 C 60.3441 410.153, 62.2843 384.637, 66.214 369.157" fill="none" style="stroke:rgb(0,0,0);stroke-width:4" />
  <path d="M66.214 369.157 C 78.7159 357.425, 101.872 336.128, 108.947 329.923" fill="none" style="stroke:rgb(0,0,0);stroke-width:4" />
  <path d="M108.947 329.923 C 116.021 323.718, 123.253 318.569, 126.992 316.263" fill="none" style="stroke:rgb(0,0,0);stroke-width:4" />
  <path d="M326.949 402.449 C 317.933 403.44, 301.109 405.415, 295.936 406.167" fill="none" style="stroke:rgb(0,0,0);stroke-width:4" />
  <path d="M295.936 406.167 C 290.764 406.919, 285.145 408.557, 282.063 409.676" fill="none" style="stroke:rgb(0,0,0);stroke-width:4" />
  <path d="M326.949 402.449 C 331.633 406.201, 340.239 413.168, 343.229 415.26" fill="none" style="stroke:rgb(0,0,0);stroke-width:4" />
  <path d="M343.229 415.26 C 346.219 417.353, 351.548 419.145, 354.819 419.967" fill="none" style="stroke:rgb(0,0,0);stroke-width:4" />
  <path d="M326.949 402.449 C 331.461 397.555, 339.618 388.634, 341.946 385.836" fill="none" style="stroke:rgb(0,0,0);stroke-width:4" />
  <path d="M341.946 385.836 C 344.273 383.039, 345.307 379.663, 345.331 377.855" fill="none" style="stroke:rgb(0,0,0);stroke-width:4" />
  <path d="M210.572 406.122 C 208.534 397.766, 204.712 382.144, 205.66 374.759" fill="none" style="stroke:rgb(0,0,0);stroke-width:4" />
  <path d="M205.66 374.759 C 206.608 367.374, 214.248 350.739, 218.207 341.61" fill="none" style="stroke:rgb(0,0,0);stroke-width:4" />
  <path d="M210.572 406.122 C 221.147 406.836, 240.414 408.015, 246.487 408.372" fill="none" style="stroke:rgb(0,0,0);stroke-width:4" />
  <path d="M246.487 408.372 C 252.559 408.729, 259.395 409.775, 262.777 410.572" fill="none" style="stroke:rgb(0,0,0);stroke-width:4" />
  <path d="M410.257 311.85 C 403.974 317.801, 392.22 328.873, 385.354 331.783" fill="none" style="stroke:rgb(0,0,0);stroke-width:4" />
  <path d="M385.354 331.783 C 378.487 334.693, 360.388 336.416, 350.55 337.44" fill="none" style="stroke:rgb(0,0,0);stroke-width:4" />
  <path d="M410.257 311.85 C 405.643 302.272, 396.988 284.93, 394.234 279.485" fill="none" style="stroke:rgb(0,0,0);stroke-width:4" />
  <path d="M394.234 279.485 C 391.48 274.04, 389.026 267.535, 388.041 264.157" fill="none" style="stroke:rgb(0,0,0);stroke-width:4" />
  <path d="M348.834 212.483 C 342.339 211.105, 330.535 208.486, 326.933 207.917" fill="none" style="stroke:rgb(0,0,0);stroke-width:4" />
  <path d="M326.933 207.917 C 323.331 207.347, 319.866 208.273, 318.297 209.098" fill="none" style="stroke:rgb(0,0,0);stroke-width:4" />
  <path d="M348.834 212.483 C 354.143 219.813, 364.22 233.385, 367.45 237.497" fill="none" style="stroke:rgb(0,0,0);stroke-width:4" />
  <path d="M367.45 237.497 C 370.679 241.609, 374.913 245.691, 377.456 247.793" fill="none" style="stroke:rgb(0,0,0);stroke-width:4" />
  <path d="M348.834 212.483 C 349.749 206.612, 351.595 195.672, 351.855 192.02" fill="none" style="stroke:rgb(0,0,0);stroke-width:4" />
  <path d="M351.855 192.02 C 352.114 188.369, 350.834 182.983, 349.966 179.833" fill="none" style="stroke:rgb(0,0,0);stroke-width:4" />
  <path d="M350.55 337.44 C 351.015 343.554, 351.823 354.872, 351.879 358.336" fill="none" style="stroke:rgb(0,0,0);stroke-width:4" />
  <path d="M351.879 358.336 C 351.934 361.801, 350.618 365.41, 349.534 367.294" fill="none" style="stroke:rgb(0,0,0);stroke-width:4" />
  <path d="M350.55 337.44 C 339.893 333.067, 319.722 325.186, 311.869 321.132" fill="none" style="stroke:rgb(0,0,0);stroke-width:4" />
  <path d="M311.869 321.132 C 304.017 317.077, 290.484 306.721, 283.144 300.968" fill="none" style="stroke:rgb(0,0,0);stroke-width:4" />
  <path d="M228.248 185.488 C 236.568 188.036, 251.957 192.637, 257.934 197.127" fill="none" style="stroke:rgb(0,0,0);stroke-width:4" />
  <path d="M257.934 197.127 C 263.912 201.616, 274.609 216.322, 280.421 224.104" fill="none" style="stroke:rgb(0,0,0);stroke-width:4" />
  <path d="M228.248 185.488 C 222.348 194.318, 211.586 210.775, 208.309 215.899" fill="none" style="stroke:rgb(0,0,0);stroke-width:4" />
  <path d="M208.309 215.899 C 205.032 221.022, 200.79 226.303, 198.24 228.965" fill="none" style="stroke:rgb(0,0,0);stroke-width:4" />
  <path d="M173.435 288.677 C 177.241 280.335, 183.967 265.112, 185.854 260.251" fill="none" style="stroke:rgb(0,0,0);stroke-width:4" />
  <path d="M185.854 260.251 C 187.74 255.39, 189.083 249.472, 189.574 246.394" fill="none" style="stroke:rgb(0,0,0);stroke-width:4" />
  <path d="M173.435 288.677 C 167.941 290.79, 157.596 294.883, 154.287 296.477" fill="none" style="stroke:rgb(0,0,0);stroke-width:4" />
  <path d="M154.287 296.477 C 150.978 298.07, 146.867 301.714, 144.523 304.151" fill="none" style="stroke:rgb(0,0,0);stroke-width:4" />
  <path d="M173.435 288.677 C 175.521 294.865, 179.21 306.232, 180.518 309.61" fill="none" style="stroke:rgb(0,0,0);stroke-width:4" />
  <path d="M180.518 309.61 C 181.827 312.989, 184.336 315.548, 185.831 316.53" fill="none" style="stroke:rgb(0,0,0);stroke-width:4" />
  <path d="M218.207 341.61 C 227.269 334.504, 244.128 320.857, 251.522 316.089" fill="none" style="stroke:rgb(0,0,0);stroke-width:4" />
  <path d="M251.522 316.089 C 258.917 311.321, 274.527 304.647, 283.144 300.968" fill="none" style="stroke:rgb(0,0,0);stroke-width:4" />
  <path d="M218.207 341.61 C 212.622 338.928, 202.468 333.879, 199.492 332.122" fill="none" style="stroke:rgb(0,0,0);stroke-width:4" />
  <path d="M199.492 332.122 C 196.516 330.366, 194.193 327.298, 193.253 325.377" fill="none" style="stroke:rgb(0,0,0);stroke-width:4" />
  <path d="M280.421 224.104 C 282.095 235.791, 285.49 257.242, 285.903 266.089" fill="none" style="stroke:rgb(0,0,0);stroke-width:4" />
  <path d="M285.903 266.089 C 286.316 274.936, 284.282 291.916, 283.144 300.968" fill="none" style="stroke:rgb(0,0,0);stroke-width:4" />
  <path d="M280.421 224.104 C 285.576 220.735, 295.12 214.728, 298.136 213.058" fill="none" style="stroke:rgb(0,0,0);stroke-width:4" />
  <path d="M298.136 213.058 C 301.151 211.387, 305.043 210.895, 307.292 211.108" fill="none" style="stroke:rgb(0,0,0);stroke-width:4" />
  <path d="M546.355 196.419 C 545.916 194.236, 546.628 193.564, 547.453 195.579" fill="none" style="stroke:rgb(0,0,0);stroke-width:1" />
  <path d="M547.453 195.579 C 548.278 197.593, 547.565 198.265, 546.355 196.419" fill="none" style="stroke:rgb(0,0,0);stroke-width:1" />
  <path d="M546.355 196.419 C 545.864 197.168, 544.252 196.917, 543.949 200.501" fill="none" style="stroke:rgb(0,0,0);stroke-width:1" />
  <path d="M543.949 200.501 C 543.646 204.085, 544.847 223.507, 545.534 234.759" fill="none" style="stroke:rgb(0,0,0);stroke-width:1" />
  <path d="M545.534 234.759 C 541.47 232.13, 535.209 231.962, 529.302 227.978" fill="none" style="stroke:rgb(0,0,0);stroke-width:4" />
  <path d="M529.302 227.978 C 523.394 223.994, 499.646 199.241, 485.518 184.917" fill="none" style="stroke:rgb(0,0,0);stroke-width:4" />
  <path d="M447.105 72.9872 C 445.188 70.0954, 445.323 67.7539, 447.14 69.0098" fill="none" style="stroke:rgb(0,0,0);stroke-width:1" />
  <path d="M447.14 69.0098 C 448.957 70.2656, 448.822 72.6071, 447.105 72.9872" fill="none" style="stroke:rgb(0,0,0);stroke-width:1" />
  <path d="M447.105 72.9872 C 447.841 76.0429, 448.377 81.695, 451.755 92.1059" fill="none" style="stroke:rgb(0,0,0);stroke-width:1" />
  <path d="M451.755 92.1059 C 455.132 102.517, 473.802 152.83, 485.518 184.917" fill="none" style="stroke:rgb(0,0,0);stroke-width:1" />
  <path d="M242.2 581.416 C 244.342 582.194, 243.894 583.106, 241.742 582.788" fill="none" style="stroke:rgb(0,0,0);stroke-width:1" />
  <path d="M241.742 582.788 C 239.59 582.469, 240.038 581.557, 242.2 581.416" fill="none" style="stroke:rgb(0,0,0);stroke-width:1" />
  <path d="M242.2 581.416 C 241.808 580.625, 242.892 579.396, 240.048 577.456" fill="none" style="stroke:rgb(0,0,0);stroke-width:1" />
  <path d="M240.048 577.456 C 237.203 575.515, 220.203 567.143, 210.367 562.213" fill="none" style="stroke:rgb(0,0,0);stroke-width:1" />
  <path d="M210.367 562.213 C 214.14 559.798, 216.927 554.178, 223.353 551.024" fill="none" style="stroke:rgb(0,0,0);stroke-width:4" />
  <path d="M223.353 551.024 C 229.779 547.87, 263.115 539.705, 282.61 534.644" fill="none" style="stroke:rgb(0,0,0);stroke-width:4" />
  <path d="M398.759 557.279 C 402.112 557.067, 403.879 558.46, 401.927 559.403" fill="none" style="stroke:rgb(0,0,0);stroke-width:1" />
  <path d="M401.927 559.403 C 399.975 560.347, 398.207 558.954, 398.759 557.279" fill="none" style="stroke:rgb(0,0,0);stroke-width:1" />
  <path d="M398.759 557.279 C 395.804 556.361, 390.614 554.019, 379.852 551.786" fill="none" style="stroke:rgb(0,0,0);stroke-width:1" />
  <path d="M379.852 551.786 C 369.089 549.553, 316.205 540.577, 282.61 534.644" fill="none" style="stroke:rgb(0,0,0);stroke-width:1" />
  <path d="M60.9089 125.622 C 59.1381 127.11, 58.0994 126.78, 59.4583 125.05" fill="none" style="stroke:rgb(0,0,0);stroke-width:1" />
  <path d="M59.4583 125.05 C 60.8171 123.319, 61.8558 123.649, 60.9089 125.622" fill="none" style="stroke:rgb(0,0,0);stroke-width:1" />
  <path d="M60.9089 125.622 C 61.8169 125.683, 62.2812 127.231, 65.3585 125.742" fill="none" style="stroke:rgb(0,0,0);stroke-width:1" />
  <path d="M65.3585 125.742 C 68.4357 124.254, 84.2705 113.748, 93.507 107.706" fill="none" style="stroke:rgb(0,0,0);stroke-width:1" />
  <path d="M93.507 107.706 C 93.6701 112.187, 97.1514 117.361, 96.6086 124.468" fill="none" style="stroke:rgb(0,0,0);stroke-width:4" />
  <path d="M96.6086 124.468 C 96.0657 131.576, 86.4477 164.535, 81.2338 183.972" fill="none" style="stroke:rgb(0,0,0);stroke-width:4" />
  <path d="M3.49079 273.392 C 1.935 276.152, -0.206673 277.542, 5.68434e-14 275.394" fill="none" style="stroke:rgb(0,0,0);stroke-width:1" />
  <path d="M5.68434e-14 275.394 C 0.206673 273.247, 2.34835 271.857, 3.49079 273.392" fill="none" style="stroke:rgb(0,0,0);stroke-width:1" />
  <path d="M3.49079 273.392 C 5.77231 271.117, 10.428 268.03, 17.7228 259.837" fill="none" style="stroke:rgb(0,0,0);stroke-width:1" />
  <path d="M17.7228 259.837 C 25.0175 251.643, 59.2333 210.021, 81.2338 183.972" fill="none" style="stroke:rgb(0,0,0);stroke-width:1" />
  <path d="M275.292 372.861 C 274.758 370.153, 273.717 364.772, 273.758 364.956" fill="none" style="stroke:rgb(0,0,0);stroke-width:1" />
  <path d="M273.758 364.956 C 273.799 365.141, 274.839 370.522, 275.292 372.861" fill="none" style="stroke:rgb(0,0,0);stroke-width:1" />
  <path d="M275.292 372.861 C 275.862 375.625, 277.076 381.578, 277.874 385.67" fill="none" style="stroke:rgb(0,0,0);stroke-width:1" />
  <path d="M277.874 385.67 C 278.672 389.761, 280.843 402.215, 282.063 409.676" fill="none" style="stroke:rgb(0,0,0);stroke-width:1" />
  <path d="M282.063 409.676 C 279.724 410.597, 275.068 412.452, 272.843 412.655" fill="none" style="stroke:rgb(0,0,0);stroke-width:4" />
  <path d="M272.843 412.655 C 270.618 412.858, 265.631 411.452, 262.777 410.572" fill="none" style="stroke:rgb(0,0,0);stroke-width:4" />
  <path d="M269.431 374.063 C 269.795 371.808, 270.806 366.398, 270.832 366.31" fill="none" style="stroke:rgb(0,0,0);stroke-width:1" />
  <path d="M270.832 366.31 C 270.857 366.223, 269.847 371.633, 269.431 374.063" fill="none" style="stroke:rgb(0,0,0);stroke-width:1" />
  <path d="M269.431 374.063 C 268.779 376.518, 267.553 382.131, 266.866 386.269" fill="none" style="stroke:rgb(0,0,0);stroke-width:1" />
  <path d="M266.866 386.269 C 266.179 390.406, 264.077 403.047, 262.777 410.572" fill="none" style="stroke:rgb(0,0,0);stroke-width:1" />
  <path d="M297.288 447.741 C 292.57 450.069, 284.461 454.055, 284.747 453.909" fill="none" style="stroke:rgb(0,0,0);stroke-width:1" />
  <path d="M284.747 453.909 C 285.033 453.763, 293.143 449.777, 297.288 447.741" fill="none" style="stroke:rgb(0,0,0);stroke-width:1" />
  <path d="M297.288 447.741 C 301.448 445.802, 310.546 441.314, 316.922 438.128" fill="none" style="stroke:rgb(0,0,0);stroke-width:1" />
  <path d="M316.922 438.128 C 323.298 434.941, 342.966 425.542, 354.819 419.967" fill="none" style="stroke:rgb(0,0,0);stroke-width:1" />
  <path d="M354.819 419.967 C 357.184 420.735, 362.278 421.987, 364.778 422.934" fill="none" style="stroke:rgb(0,0,0);stroke-width:4" />
  <path d="M364.778 422.934 C 367.279 423.882, 371.867 427.186, 374.183 429.079" fill="none" style="stroke:rgb(0,0,0);stroke-width:4" />
  <path d="M303.822 450.427 C 299.657 451.652, 289.597 454.573, 289.563 454.574" fill="none" style="stroke:rgb(0,0,0);stroke-width:1" />
  <path d="M289.563 454.574 C 289.528 454.575, 299.588 451.654, 303.822 450.427" fill="none" style="stroke:rgb(0,0,0);stroke-width:1" />
  <path d="M303.822 450.427 C 308.759 448.995, 320.654 445.585, 328.582 443.18" fill="none" style="stroke:rgb(0,0,0);stroke-width:1" />
  <path d="M328.582 443.18 C 336.51 440.776, 359.796 433.512, 374.183 429.079" fill="none" style="stroke:rgb(0,0,0);stroke-width:1" />
  <path d="M409.028 386.258 C 414.076 386.899, 423.087 388.042, 422.862 388.018" fill="none" style="stroke:rgb(0,0,0);stroke-width:1" />
  <path d="M422.862 388.018 C 422.637 387.994, 413.626 386.851, 409.028 386.258" fill="none" style="stroke:rgb(0,0,0);stroke-width:1" />
  <path d="M409.028 386.258 C 404.266 385.636, 393.333 384.249, 386.193 383.3" fill="none" style="stroke:rgb(0,0,0);stroke-width:1" />
  <path d="M386.193 383.3 C 379.053 382.352, 358.138 379.538, 345.331 377.855" fill="none" style="stroke:rgb(0,0,0);stroke-width:1" />
  <path d="M345.331 377.855 C 345.182 376.259, 344.93 373.445, 345.446 372.233" fill="none" style="stroke:rgb(0,0,0);stroke-width:4" />
  <path d="M345.446 372.233 C 345.962 371.021, 348.315 368.553, 349.534 367.294" fill="none" style="stroke:rgb(0,0,0);stroke-width:4" />
  <path d="M411.365 383.378 C 414.731 384.308, 423.329 386.701, 423.509 386.703" fill="none" style="stroke:rgb(0,0,0);stroke-width:1" />
  <path d="M423.509 386.703 C 423.69 386.706, 415.092 384.312, 411.365 383.378" fill="none" style="stroke:rgb(0,0,0);stroke-width:1" />
  <path d="M411.365 383.378 C 406.037 382.062, 395.16 379.094, 388.443 377.252" fill="none" style="stroke:rgb(0,0,0);stroke-width:1" />
  <path d="M388.443 377.252 C 381.726 375.41, 361.688 370.336, 349.534 367.294" fill="none" style="stroke:rgb(0,0,0);stroke-width:1" />
  <path d="M294.116 150.634 C 292.413 146.507, 288.865 138.048, 288.639 137.525" fill="none" style="stroke:rgb(0,0,0);stroke-width:1" />
  <path d="M288.639 137.525 C 288.413 137.003, 291.96 145.461, 294.116 150.634" fill="none" style="stroke:rgb(0,0,0);stroke-width:1" />
  <path d="M294.116 150.634 C 295.897 154.93, 300.056 164.793, 302.753 171.32" fill="none" style="stroke:rgb(0,0,0);stroke-width:1" />
  <path d="M302.753 171.32 C 305.45 177.846, 313.381 197.215, 318.297 209.098" fill="none" style="stroke:rgb(0,0,0);stroke-width:1" />
  <path d="M318.297 209.098 C 316.963 210.066, 314.776 211.97, 313.469 212.141" fill="none" style="stroke:rgb(0,0,0);stroke-width:4" />
  <path d="M313.469 212.141 C 312.162 212.313, 308.846 211.414, 307.292 211.108" fill="none" style="stroke:rgb(0,0,0);stroke-width:4" />
  <path d="M290.117 149.057 C 289.252 145.775, 287.23 138.084, 287.167 137.835" fill="none" style="stroke:rgb(0,0,0);stroke-width:1" />
  <path d="M287.167 137.835 C 287.104 137.586, 289.126 145.276, 290.117 149.057" fill="none" style="stroke:rgb(0,0,0);stroke-width:1" />
  <path d="M290.117 149.057 C 291.414 153.897, 294.373 165.109, 296.245 172.038" fill="none" style="stroke:rgb(0,0,0);stroke-width:1" />
  <path d="M296.245 172.038 C 298.116 178.967, 303.745 198.781, 307.292 211.108" fill="none" style="stroke:rgb(0,0,0);stroke-width:1" />
  <path d="M348.959 272.105 C 346.628 274.186, 342.465 277.888, 342.447 277.897" fill="none" style="stroke:rgb(0,0,0);stroke-width:1" />
  <path d="M342.447 277.897 C 342.428 277.906, 346.591 274.204, 348.959 272.105" fill="none" style="stroke:rgb(0,0,0);stroke-width:1" />
  <path d="M348.959 272.105 C 351.057 270.213, 355.629 266.17, 358.779 263.42" fill="none" style="stroke:rgb(0,0,0);stroke-width:1" />
  <path d="M358.779 263.42 C 361.928 260.671, 371.604 252.559, 377.456 247.793" fill="none" style="stroke:rgb(0,0,0);stroke-width:1" />
  <path d="M377.456 247.793 C 379.502 249.371, 383.308 252.58, 384.599 254.402" fill="none" style="stroke:rgb(0,0,0);stroke-width:4" />
  <path d="M384.599 254.402 C 385.89 256.223, 387.377 261.196, 388.041 264.157" fill="none" style="stroke:rgb(0,0,0);stroke-width:4" />
  <path d="M352.105 277.074 C 350.232 277.7, 345.063 279.448, 344.967 279.479" fill="none" style="stroke:rgb(0,0,0);stroke-width:1" />
  <path d="M344.967 279.479 C 344.87 279.51, 350.04 277.762, 352.105 277.074" fill="none" style="stroke:rgb(0,0,0);stroke-width:1" />
  <path d="M352.105 277.074 C 354.589 276.202, 360.709 274.247, 364.786 272.785" fill="none" style="stroke:rgb(0,0,0);stroke-width:1" />
  <path d="M364.786 272.785 C 368.864 271.323, 380.712 266.819, 388.041 264.157" fill="none" style="stroke:rgb(0,0,0);stroke-width:1" />
  <path d="M402.033 214.967 C 406.628 218.02, 413.982 222.958, 413.456 222.622" fill="none" style="stroke:rgb(0,0,0);stroke-width:1" />
  <path d="M413.456 222.622 C 412.93 222.285, 405.577 217.347, 402.033 214.967" fill="none" style="stroke:rgb(0,0,0);stroke-width:1" />
  <path d="M402.033 214.967 C 398.599 212.657, 390.352 207.226, 384.486 203.295" fill="none" style="stroke:rgb(0,0,0);stroke-width:1" />
  <path d="M384.486 203.295 C 378.619 199.363, 360.833 187.226, 349.966 179.833" fill="none" style="stroke:rgb(0,0,0);stroke-width:1" />
  <path d="M349.966 179.833 C 349.596 177.438, 348.291 172.297, 347.695 169.547" fill="none" style="stroke:rgb(0,0,0);stroke-width:4" />
  <path d="M347.695 169.547 C 347.098 166.796, 347.507 161.214, 348.174 158.387" fill="none" style="stroke:rgb(0,0,0);stroke-width:4" />
  <path d="M401.062 207.736 C 404.801 211.279, 411.944 218.246, 411.875 218.191" fill="none" style="stroke:rgb(0,0,0);stroke-width:1" />
  <path d="M411.875 218.191 C 411.806 218.136, 404.663 211.169, 401.062 207.736" fill="none" style="stroke:rgb(0,0,0);stroke-width:1" />
  <path d="M401.062 207.736 C 397.54 204.444, 389.205 196.334, 383.264 190.749" fill="none" style="stroke:rgb(0,0,0);stroke-width:1" />
  <path d="M383.264 190.749 C 377.323 185.164, 359.215 168.599, 348.174 158.387" fill="none" style="stroke:rgb(0,0,0);stroke-width:1" />
  <path d="M224.554 258.5 C 227.245 259.321, 232.429 261.016, 232.565 261.068" fill="none" style="stroke:rgb(0,0,0);stroke-width:1" />
  <path d="M232.565 261.068 C 232.701 261.12, 227.517 259.425, 224.554 258.5" fill="none" style="stroke:rgb(0,0,0);stroke-width:1" />
  <path d="M224.554 258.5 C 221.903 257.551, 216.28 255.743, 212.46 254.442" fill="none" style="stroke:rgb(0,0,0);stroke-width:1" />
  <path d="M212.46 254.442 C 208.639 253.142, 196.771 248.897, 189.574 246.394" fill="none" style="stroke:rgb(0,0,0);stroke-width:1" />
  <path d="M189.574 246.394 C 189.953 243.713, 190.453 238.842, 191.425 236.808" fill="none" style="stroke:rgb(0,0,0);stroke-width:4" />
  <path d="M191.425 236.808 C 192.397 234.774, 196.23 230.931, 198.24 228.965" fill="none" style="stroke:rgb(0,0,0);stroke-width:4" />
  <path d="M227.572 253.27 C 229.571 254.98, 233.167 258.126, 232.938 257.943" fill="none" style="stroke:rgb(0,0,0);stroke-width:1" />
  <path d="M232.938 257.943 C 232.708 257.759, 229.111 254.613, 227.572 253.27" fill="none" style="stroke:rgb(0,0,0);stroke-width:1" />
  <path d="M227.572 253.27 C 225.387 251.293, 220.7 247.29, 217.477 244.587" fill="none" style="stroke:rgb(0,0,0);stroke-width:1" />
  <path d="M217.477 244.587 C 214.253 241.884, 204.273 233.734, 198.24 228.965" fill="none" style="stroke:rgb(0,0,0);stroke-width:1" />
  <path d="M149.072 238.563 C 149.388 233.652, 149.979 225.369, 149.975 225.435" fill="none" style="stroke:rgb(0,0,0);stroke-width:1" />
  <path d="M149.975 225.435 C 149.971 225.501, 149.38 233.785, 149.072 238.563" fill="none" style="stroke:rgb(0,0,0);stroke-width:1" />
  <path d="M149.072 238.563 C 148.738 243.872, 148.032 254.983, 147.553 262.234" fill="none" style="stroke:rgb(0,0,0);stroke-width:1" />
  <path d="M147.553 262.234 C 147.073 269.485, 145.504 291.167, 144.523 304.151" fill="none" style="stroke:rgb(0,0,0);stroke-width:1" />
  <path d="M144.523 304.151 C 142.639 305.775, 138.946 309.506, 136.874 311.288" fill="none" style="stroke:rgb(0,0,0);stroke-width:4" />
  <path d="M136.874 311.288 C 134.801 313.07, 129.727 315.395, 126.992 316.263" fill="none" style="stroke:rgb(0,0,0);stroke-width:4" />
  <path d="M143.523 244.105 C 144.835 238.659, 147.441 227.959, 147.291 228.583" fill="none" style="stroke:rgb(0,0,0);stroke-width:1" />
  <path d="M147.291 228.583 C 147.141 229.208, 144.535 239.909, 143.523 244.105" fill="none" style="stroke:rgb(0,0,0);stroke-width:1" />
  <path d="M143.523 244.105 C 142.262 249.595, 139.522 261.247, 137.631 269.241" fill="none" style="stroke:rgb(0,0,0);stroke-width:1" />
  <path d="M137.631 269.241 C 135.739 277.234, 130.214 301.662, 126.992 316.263" fill="none" style="stroke:rgb(0,0,0);stroke-width:1" />
  <path d="M146.438 368.012 C 143.292 372.118, 137.575 379.543, 137.552 379.597" fill="none" style="stroke:rgb(0,0,0);stroke-width:1" />
  <path d="M137.552 379.597 C 137.529 379.65, 143.246 372.224, 146.438 368.012" fill="none" style="stroke:rgb(0,0,0);stroke-width:1" />
  <path d="M146.438 368.012 C 149.418 364.059, 156.322 354.792, 160.796 349.022" fill="none" style="stroke:rgb(0,0,0);stroke-width:1" />
  <path d="M160.796 349.022 C 165.271 343.252, 178.063 326.777, 185.831 316.53" fill="none" style="stroke:rgb(0,0,0);stroke-width:1" />
  <path d="M185.831 316.53 C 187.247 317.293, 189.404 318.98, 190.264 319.971" fill="none" style="stroke:rgb(0,0,0);stroke-width:4" />
  <path d="M190.264 319.971 C 191.124 320.963, 192.678 323.701, 193.253 325.377" fill="none" style="stroke:rgb(0,0,0);stroke-width:4" />
  <path d="M148.736 370.371 C 145.881 373.224, 139.676 379.413, 139.56 379.523" fill="none" style="stroke:rgb(0,0,0);stroke-width:1" />
  <path d="M139.56 379.523 C 139.444 379.633, 145.649 373.444, 148.736 370.371" fill="none" style="stroke:rgb(0,0,0);stroke-width:1" />
  <path d="M148.736 370.371 C 152.267 366.913, 159.756 359.332, 164.709 354.371" fill="none" style="stroke:rgb(0,0,0);stroke-width:1" />
  <path d="M164.709 354.371 C 169.663 349.411, 184.433 334.495, 193.253 325.377" fill="none" style="stroke:rgb(0,0,0);stroke-width:1" />
  <ellipse cx="283.114" cy="301.174" rx="1.42485" ry="1.42485"  style="fill:rgb(0,0,0)" />
  <ellipse cx="276.385" cy="491.758" rx="1.42485" ry="1.42485"  style="fill:rgb(0,0,0)" />
  <ellipse cx="450.344" cy="455.272" rx="1.42485" ry="1.42485"  style="fill:rgb(0,0,0)" />
  <ellipse cx="451.576" cy="211.681" rx="1.42485" ry="1.42485"  style="fill:rgb(0,0,0)" />
  <ellipse cx="493.02" cy="380.44" rx="1.42485" ry="1.42485"  style="fill:rgb(0,0,0)" />
  <ellipse cx="332.863" cy="79.3451" rx="1.42485" ry="1.42485"  style="fill:rgb(0,0,0)" />
  <ellipse cx="121.608" cy="200.135" rx="1.42485" ry="1.42485"  style="fill:rgb(0,0,0)" />
  <ellipse cx="247.031" cy="79.6107" rx="1.42485" ry="1.42485"  style="fill:rgb(0,0,0)" />
  <ellipse cx="109.473" cy="443.266" rx="1.42485" ry="1.42485"  style="fill:rgb(0,0,0)" />
  <ellipse cx="66.214" cy="369.157" rx="1.42485" ry="1.42485"  style="fill:rgb(0,0,0)" />
  <ellipse cx="326.949" cy="402.449" rx="1.42485" ry="1.42485"  style="fill:rgb(0,0,0)" />
  <ellipse cx="210.572" cy="406.122" rx="1.42485" ry="1.42485"  style="fill:rgb(0,0,0)" />
  <ellipse cx="410.257" cy="311.85" rx="1.42485" ry="1.42485"  style="fill:rgb(0,0,0)" />
  <ellipse cx="348.834" cy="212.483" rx="1.42485" ry="1.42485"  style="fill:rgb(0,0,0)" />
  <ellipse cx="350.55" cy="337.44" rx="1.42485" ry="1.42485"  style="fill:rgb(0,0,0)" />
  <ellipse cx="228.248" cy="185.488" rx="1.42485" ry="1.42485"  style="fill:rgb(0,0,0)" />
  <ellipse cx="173.435" cy="288.677" rx="1.42485" ry="1.42485"  style="fill:rgb(0,0,0)" />
  <ellipse cx="218.207" cy="341.61" rx="1.42485" ry="1.42485"  style="fill:rgb(0,0,0)" />
  <ellipse cx="280.421" cy="224.104" rx="1.42485" ry="1.42485"  style="fill:rgb(0,0,0)" />
  <ellipse cx="283.144" cy="300.968" rx="1.42485" ry="1.42485"  style="fill:rgb(0,0,0)" />
  <ellipse cx="546.355" cy="196.419" rx="1.42485" ry="1.42485"  style="fill:rgb(0,0,0)" />
  <ellipse cx="545.534" cy="234.759" rx="1.42485" ry="1.42485"  style="fill:rgb(0,0,0)" />
  <ellipse cx="447.105" cy="72.9872" rx="1.42485" ry="1.42485"  style="fill:rgb(0,0,0)" />
  <ellipse cx="485.518" cy="184.917" rx="1.42485" ry="1.42485"  style="fill:rgb(0,0,0)" />
  <ellipse cx="242.2" cy="581.416" rx="1.42485" ry="1.42485"  style="fill:rgb(0,0,0)" />
  <ellipse cx="210.367" cy="562.213" rx="1.42485" ry="1.42485"  style="fill:rgb(0,0,0)" />
  <ellipse cx="398.759" cy="557.279" rx="1.42485" ry="1.42485"  style="fill:rgb(0,0,0)" />
  <ellipse cx="282.61" cy="534.644" rx="1.42485" ry="1.42485"  style="fill:rgb(0,0,0)" />
  <ellipse cx="60.9089" cy="125.622" rx="1.42485" ry="1.42485"  style="fill:rgb(0,0,0)" />
  <ellipse cx="93.507" cy="107.706" rx="1.42485" ry="1.42485"  style="fill:rgb(0,0,0)" />
  <ellipse cx="3.49079" cy="273.392" rx="1.42485" ry="1.42485"  style="fill:rgb(0,0,0)" />
  <ellipse cx="81.2338" cy="183.972" rx="1.42485" ry="1.42485"  style="fill:rgb(0,0,0)" />
  <ellipse cx="275.292" cy="372.861" rx="1.42485" ry="1.42485"  style="fill:rgb(0,0,0)" />
  <ellipse cx="282.063" cy="409.676" rx="1.42485" ry="1.42485"  style="fill:rgb(0,0,0)" />
  <ellipse cx="269.431" cy="374.063" rx="1.42485" ry="1.42485"  style="fill:rgb(0,0,0)" />
  <ellipse cx="262.777" cy="410.572" rx="1.42485" ry="1.42485"  style="fill:rgb(0,0,0)" />
  <ellipse cx="297.288" cy="447.741" rx="1.42485" ry="1.42485"  style="fill:rgb(0,0,0)" />
  <ellipse cx="354.819" cy="419.967" rx="1.42485" ry="1.42485"  style="fill:rgb(0,0,0)" />
  <ellipse cx="303.822" cy="450.427" rx="1.42485" ry="1.42485"  style="fill:rgb(0,0,0)" />
  <ellipse cx="374.183" cy="429.079" rx="1.42485" ry="1.42485"  style="fill:rgb(0,0,0)" />
  <ellipse cx="409.028" cy="386.258" rx="1.42485" ry="1.42485"  style="fill:rgb(0,0,0)" />
  <ellipse cx="345.331" cy="377.855" rx="1.42485" ry="1.42485"  style="fill:rgb(0,0,0)" />
  <ellipse cx="411.365" cy="383.378" rx="1.42485" ry="1.42485"  style="fill:rgb(0,0,0)" />
  <ellipse cx="349.534" cy="367.294" rx="1.42485" ry="1.42485"  style="fill:rgb(0,0,0)" />
  <ellipse cx="294.116" cy="150.634" rx="1.42485" ry="1.42485"  style="fill:rgb(0,0,0)" />
  <ellipse cx="318.297" cy="209.098" rx="1.42485" ry="1.42485"  style="fill:rgb(0,0,0)" />
  <ellipse cx="290.117" cy="149.057" rx="1.42485" ry="1.42485"  style="fill:rgb(0,0,0)" />
  <ellipse cx="307.292" cy="211.108" rx="1.42485" ry="1.42485"  style="fill:rgb(0,0,0)" />
  <ellipse cx="348.959" cy="272.105" rx="1.42485" ry="1.42485"  style="fill:rgb(0,0,0)" />
  <ellipse cx="377.456" cy="247.793" rx="1.42485" ry="1.42485"  style="fill:rgb(0,0,0)" />
  <ellipse cx="352.105" cy="277.074" rx="1.42485" ry="1.42485"  style="fill:rgb(0,0,0)" />
  <ellipse cx="388.041" cy="264.157" rx="1.42485" ry="1.42485"  style="fill:rgb(0,0,0)" />
  <ellipse cx="402.033" cy="214.967" rx="1.42485" ry="1.42485"  style="fill:rgb(0,0,0)" />
  <ellipse cx="349.966" cy="179.833" rx="1.42485" ry="1.42485"  style="fill:rgb(0,0,0)" />
  <ellipse cx="401.062" cy="207.736" rx="1.42485" ry="1.42485"  style="fill:rgb(0,0,0)" />
  <ellipse cx="348.174" cy="158.387" rx="1.42485" ry="1.42485"  style="fill:rgb(0,0,0)" />
  <ellipse cx="224.554" cy="258.5" rx="1.42485" ry="1.42485"  style="fill:rgb(0,0,0)" />
  <ellipse cx="189.574" cy="246.394" rx="1.42485" ry="1.42485"  style="fill:rgb(0,0,0)" />
  <ellipse cx="227.572" cy="253.27" rx="1.42485" ry="1.42485"  style="fill:rgb(0,0,0)" />
  <ellipse cx="198.24" cy="228.965" rx="1.42485" ry="1.42485"  style="fill:rgb(0,0,0)" />
  <ellipse cx="149.072" cy="238.563" rx="1.42485" ry="1.42485"  style="fill:rgb(0,0,0)" />
  <ellipse cx="144.523" cy="304.151" rx="1.42485" ry="1.42485"  style="fill:rgb(0,0,0)" />
  <ellipse cx="143.523" cy="244.105" rx="1.42485" ry="1.42485"  style="fill:rgb(0,0,0)" />
  <ellipse cx="126.992" cy="316.263" rx="1.42485" ry="1.42485"  style="fill:rgb(0,0,0)" />
  <ellipse cx="146.438" cy="368.012" rx="1.42485" ry="1.42485"  style="fill:rgb(0,0,0)" />
  <ellipse cx="185.831" cy="316.53" rx="1.42485" ry="1.42485"  style="fill:rgb(0,0,0)" />
  <ellipse cx="148.736" cy="370.371" rx="1.42485" ry="1.42485"  style="fill:rgb(0,0,0)" />
  <ellipse cx="193.253" cy="325.377" rx="1.42485" ry="1.42485"  style="fill:rgb(0,0,0)" />
</svg>
