<svg height="600" width="600">
  <path d="M537.429 129.021 C 561.494 191.168, 597.079 354.88, 563.05 429.965" fill="none" style="stroke:rgb(0,0,0);stroke-width:4" />
  <path d="M563.05 429.965 C 529.022 505.049, 376.321 576.826, 303.197 600" fill="none" style="stroke:rgb(0,0,0);stroke-width:4" />
  <path d="M303.197 600 C 227.49 580.77, 74.6349 520.264, 36.9495 455.726" fill="none" style="stroke:rgb(0,0,0);stroke-width:4" />
  <path d="M36.9495 455.726 C -0.735898 391.188, 20.5689 229.437, 40.0959 155.486" fill="none" style="stroke:rgb(0,0,0);stroke-width:4" />
  <path d="M40.0959 155.486 C 105.973 142.907, 229.806 119.952, 287.937 116.925" fill="none" style="stroke:rgb(0,0,0);stroke-width:4" />
  <path d="M287.937 116.925 C 346.069 113.899, 470.903 123.621, 537.429 129.021" fill="none" style="stroke:rgb(0,0,0);stroke-width:4" />
  <path d="M537.429 129.021 C 487.52 83.8381, 364.371 -1.94101, 291.85 0" fill="none" style="stroke:rgb(0,0,0);stroke-width:1" />
  <path d="M291.85 0 C 219.33 1.94101, 93.8119 100.953, 40.0959 155.486" fill="none" style="stroke:rgb(0,0,0);stroke-width:1" />
  <path d="M40.0959 155.486 C 80.2446 158.029, 154.536 162.722, 182.783 165.771" fill="none" style="stroke:rgb(0,0,0);stroke-width:4" />
  <path d="M182.783 165.771 C 211.031 168.82, 259.124 177.628, 284.863 182.488" fill="none" style="stroke:rgb(0,0,0);stroke-width:4" />
  <path d="M284.863 182.488 C 318.588 179.337, 380.476 173.402, 409.233 167.239" fill="none" style="stroke:rgb(0,0,0);stroke-width:4" />
  <path d="M409.233 167.239 C 437.99 161.076, 502.386 140.276, 537.429 129.021" fill="none" style="stroke:rgb(0,0,0);stroke-width:4" />
  <path d="M537.429 129.021 C 486.192 134.112, 392.043 143.476, 362.985 149.625" fill="none" style="stroke:rgb(0,0,0);stroke-width:1" />
  <path d="M362.985 149.625 C 333.927 155.774, 301.792 173.144, 284.863 182.488" fill="none" style="stroke:rgb(0,0,0);stroke-width:1" />
  <path d="M284.863 182.488 C 307.035 190.095, 348.171 203.764, 362.432 212.189" fill="none" style="stroke:rgb(0,0,0);stroke-width:4" />
  <path d="M362.432 212.189 C 376.692 220.614, 397.23 244.144, 408.211 256.887" fill="none" style="stroke:rgb(0,0,0);stroke-width:4" />
  <path d="M408.211 256.887 C 426.822 247, 460.788 228.742, 475.475 214.007" fill="none" style="stroke:rgb(0,0,0);stroke-width:4" />
  <path d="M475.475 214.007 C 490.163 199.271, 520.807 153.597, 537.429 129.021" fill="none" style="stroke:rgb(0,0,0);stroke-width:4" />
  <path d="M537.429 129.021 C 511.347 146.171, 463.604 177.707, 448.964 192.183" fill="none" style="stroke:rgb(0,0,0);stroke-width:1" />
  <path d="M448.964 192.183 C 434.324 206.659, 417.458 239.056, 408.211 256.887" fill="none" style="stroke:rgb(0,0,0);stroke-width:1" />
  <path d="M437.358 378.254 C 453.108 358.559, 483.025 320.271, 494.739 291.598" fill="none" style="stroke:rgb(0,0,0);stroke-width:4" />
  <path d="M494.739 291.598 C 506.452 262.925, 526.571 176.597, 537.429 129.021" fill="none" style="stroke:rgb(0,0,0);stroke-width:4" />
  <path d="M408.211 256.887 C 406.894 276.931, 404.343 313.713, 407.664 327.476" fill="none" style="stroke:rgb(0,0,0);stroke-width:4" />
  <path d="M407.664 327.476 C 410.985 341.238, 428.109 365.139, 437.358 378.254" fill="none" style="stroke:rgb(0,0,0);stroke-width:4" />
  <path d="M437.358 378.254 C 440.644 354.043, 446.603 309.391, 443.297 295.54" fill="none" style="stroke:rgb(0,0,0);stroke-width:1" />
  <path d="M443.297 295.54 C 439.991 281.689, 419.458 265.658, 408.211 256.887" fill="none" style="stroke:rgb(0,0,0);stroke-width:1" />
  <path d="M408.211 256.887 C 394.466 278.398, 368.79 318.238, 355.89 335.785" fill="none" style="stroke:rgb(0,0,0);stroke-width:4" />
  <path d="M355.89 335.785 C 342.991 353.332, 312.458 390.476, 295.794 410.856" fill="none" style="stroke:rgb(0,0,0);stroke-width:4" />
  <path d="M295.794 410.856 C 310.943 416.641, 338.339 427.475, 354.336 423.788" fill="none" style="stroke:rgb(0,0,0);stroke-width:4" />
  <path d="M354.336 423.788 C 370.333 420.1, 413.719 392.965, 437.358 378.254" fill="none" style="stroke:rgb(0,0,0);stroke-width:4" />
  <path d="M437.358 378.254 C 419.274 377.393, 385.902 375.877, 369.748 379.638" fill="none" style="stroke:rgb(0,0,0);stroke-width:1" />
  <path d="M369.748 379.638 C 353.595 383.399, 316.184 401.216, 295.794 410.856" fill="none" style="stroke:rgb(0,0,0);stroke-width:1" />
  <path d="M295.794 410.856 C 296.301 432.748, 297.302 473.325, 298.241 495.015" fill="none" style="stroke:rgb(0,0,0);stroke-width:4" />
  <path d="M298.241 495.015 C 299.18 516.706, 301.88 570.701, 303.197 600" fill="none" style="stroke:rgb(0,0,0);stroke-width:4" />
  <path d="M303.197 600 C 322.642 569.572, 359.002 512.496, 374.732 486.515" fill="none" style="stroke:rgb(0,0,0);stroke-width:4" />
  <path d="M374.732 486.515 C 390.462 460.533, 421.182 406.736, 437.358 378.254" fill="none" style="stroke:rgb(0,0,0);stroke-width:4" />
  <path d="M437.358 378.254 C 413.8 406.479, 370.819 457.921, 355.703 482.981" fill="none" style="stroke:rgb(0,0,0);stroke-width:1" />
  <path d="M355.703 482.981 C 340.587 508.042, 316.487 567.473, 303.197 600" fill="none" style="stroke:rgb(0,0,0);stroke-width:1" />
  <path d="M295.794 410.856 C 280.122 413.321, 250.963 417.899, 235.83 416.3" fill="none" style="stroke:rgb(0,0,0);stroke-width:4" />
  <path d="M235.83 416.3 C 220.696 414.702, 183.778 403.45, 163.641 397.508" fill="none" style="stroke:rgb(0,0,0);stroke-width:4" />
  <path d="M163.641 397.508 C 165.652 416.325, 170.357 453.329, 185.99 476.791" fill="none" style="stroke:rgb(0,0,0);stroke-width:4" />
  <path d="M185.99 476.791 C 201.623 500.254, 266.696 564.496, 303.197 600" fill="none" style="stroke:rgb(0,0,0);stroke-width:4" />
  <path d="M303.197 600 C 286.992 569.547, 256.961 513.381, 241.009 490.202" fill="none" style="stroke:rgb(0,0,0);stroke-width:1" />
  <path d="M241.009 490.202 C 225.057 467.023, 185.31 421.944, 163.641 397.508" fill="none" style="stroke:rgb(0,0,0);stroke-width:1" />
  <path d="M295.794 410.856 C 280.192 393.81, 251.346 362.367, 238.797 346.183" fill="none" style="stroke:rgb(0,0,0);stroke-width:4" />
  <path d="M238.797 346.183 C 226.248 329.999, 200.197 290.867, 186 269.706" fill="none" style="stroke:rgb(0,0,0);stroke-width:4" />
  <path d="M186 269.706 C 176.765 277.441, 159.85 291.55, 157.356 306.046" fill="none" style="stroke:rgb(0,0,0);stroke-width:4" />
  <path d="M157.356 306.046 C 154.863 320.542, 160.599 370.333, 163.641 397.508" fill="none" style="stroke:rgb(0,0,0);stroke-width:4" />
  <path d="M163.641 397.508 C 172.578 384.843, 188.901 361.68, 191.452 347.111" fill="none" style="stroke:rgb(0,0,0);stroke-width:1" />
  <path d="M191.452 347.111 C 194.002 332.542, 188.858 291.804, 186 269.706" fill="none" style="stroke:rgb(0,0,0);stroke-width:1" />
  <path d="M186 269.706 C 170.057 254.284, 140.134 225.875, 123.281 212.86" fill="none" style="stroke:rgb(0,0,0);stroke-width:4" />
  <path d="M123.281 212.86 C 106.428 199.845, 63.3988 171.144, 40.0959 155.486" fill="none" style="stroke:rgb(0,0,0);stroke-width:4" />
  <path d="M40.0959 155.486 C 56.378 189.766, 86.6241 253.989, 101.066 282.33" fill="none" style="stroke:rgb(0,0,0);stroke-width:4" />
  <path d="M101.066 282.33 C 115.508 310.672, 147.034 367.46, 163.641 397.508" fill="none" style="stroke:rgb(0,0,0);stroke-width:4" />
  <path d="M163.641 397.508 C 149.932 361.069, 124.835 294.522, 110.848 267.168" fill="none" style="stroke:rgb(0,0,0);stroke-width:1" />
  <path d="M110.848 267.168 C 96.8613 239.815, 60.1863 185.352, 40.0959 155.486" fill="none" style="stroke:rgb(0,0,0);stroke-width:1" />
  <path d="M295.794 410.856 C 291.126 391.669, 282.342 356.546, 282.567 342.541" fill="none" style="stroke:rgb(0,0,0);stroke-width:1" />
  <path d="M282.567 342.541 C 282.791 328.536, 293.067 302.067, 298.776 287.674" fill="none" style="stroke:rgb(0,0,0);stroke-width:1" />
  <path d="M298.776 287.674 C 284.965 281.364, 259.503 269.594, 246.698 267.582" fill="none" style="stroke:rgb(0,0,0);stroke-width:1" />
  <path d="M246.698 267.582 C 233.894 265.569, 202.969 268.355, 186 269.706" fill="none" style="stroke:rgb(0,0,0);stroke-width:1" />
  <path d="M186 269.706 C 203.017 278.717, 233.981 295.245, 246.81 297.25" fill="none" style="stroke:rgb(0,0,0);stroke-width:4" />
  <path d="M246.81 297.25 C 259.639 299.256, 285.063 291.712, 298.776 287.674" fill="none" style="stroke:rgb(0,0,0);stroke-width:4" />
  <path d="M284.863 182.488 C 273.026 195.947, 251.198 220.773, 239.867 230.79" fill="none" style="stroke:rgb(0,0,0);stroke-width:4" />
  <path d="M239.867 230.79 C 228.535 240.806, 200.932 259.589, 186 269.706" fill="none" style="stroke:rgb(0,0,0);stroke-width:4" />
  <path d="M298.776 287.674 C 303.113 272.78, 311.076 245.691, 309.432 233.741" fill="none" style="stroke:rgb(0,0,0);stroke-width:1" />
  <path d="M309.432 233.741 C 307.789 221.791, 292.869 196.288, 284.863 182.488" fill="none" style="stroke:rgb(0,0,0);stroke-width:1" />
  <path d="M284.863 182.488 C 282.443 198.043, 278.115 226.438, 279.822 238.366" fill="none" style="stroke:rgb(0,0,0);stroke-width:4" />
  <path d="M279.822 238.366 C 281.529 250.293, 292.814 274.491, 298.776 287.674" fill="none" style="stroke:rgb(0,0,0);stroke-width:4" />
  <path d="M408.211 256.887 C 391.736 267.53, 361.346 287.074, 348.915 290.597" fill="none" style="stroke:rgb(0,0,0);stroke-width:1" />
  <path d="M348.915 290.597 C 336.484 294.121, 312.157 289.971, 298.776 287.674" fill="none" style="stroke:rgb(0,0,0);stroke-width:1" />
  <path d="M295.794 410.856 C 301.53 390.823, 312.124 354.08, 312.445 340.074" fill="none" style="stroke:rgb(0,0,0);stroke-width:4" />
  <path d="M312.445 340.074 C 312.765 326.069, 303.662 301.22, 298.776 287.674" fill="none" style="stroke:rgb(0,0,0);stroke-width:4" />
  <path d="M303.197 600 C 339.479 559.936, 403.729 487.601, 418.823 461.839" fill="none" style="stroke:rgb(0,0,0);stroke-width:1" />
  <path d="M418.823 461.839 C 433.916 436.078, 436.746 397.54, 437.358 378.254" fill="none" style="stroke:rgb(0,0,0);stroke-width:1" />
  <path d="M40.0959 155.486 C 54.2794 207.173, 80.3924 299.536, 94.8615 327.049" fill="none" style="stroke:rgb(0,0,0);stroke-width:1" />
  <path d="M94.8615 327.049 C 109.331 354.562, 144.99 383.209, 163.641 397.508" fill="none" style="stroke:rgb(0,0,0);stroke-width:1" />
  <path d="M284.863 182.488 C 260.64 189.896, 216.417 203.273, 205.246 213.106" fill="none" style="stroke:rgb(0,0,0);stroke-width:1" />
  <path d="M205.246 213.106 C 194.074 222.938, 188.866 253.169, 186 269.706" fill="none" style="stroke:rgb(0,0,0);stroke-width:1" />
  <path d="M408.211 256.887 C 391.93 256.339, 361.642 255.242, 349.167 258.728" fill="none" style="stroke:rgb(0,0,0);stroke-width:4" />
  <path d="M349.167 258.728 C 336.692 262.214, 312.263 278.704, 298.776 287.674" fill="none" style="stroke:rgb(0,0,0);stroke-width:4" />
  <ellipse cx="537.429" cy="129.021" rx="1.81508" ry="1.81508"  style="fill:rgb(0,0,0)" />
  <ellipse cx="303.197" cy="600" rx="1.81508" ry="1.81508"  style="fill:rgb(0,0,0)" />
  <ellipse cx="40.0959" cy="155.486" rx="1.81508" ry="1.81508"  style="fill:rgb(0,0,0)" />
  <ellipse cx="284.863" cy="182.488" rx="1.81508" ry="1.81508"  style="fill:rgb(0,0,0)" />
  <ellipse cx="408.211" cy="256.887" rx="1.81508" ry="1.81508"  style="fill:rgb(0,0,0)" />
  <ellipse cx="437.358" cy="378.254" rx="1.81508" ry="1.81508"  style="fill:rgb(0,0,0)" />
  <ellipse cx="295.794" cy="410.856" rx="1.81508" ry="1.81508"  style="fill:rgb(0,0,0)" />
  <ellipse cx="163.641" cy="397.508" rx="1.81508" ry="1.81508"  style="fill:rgb(0,0,0)" />
  <ellipse cx="186" cy="269.706" rx="1.81508" ry="1.81508"  style="fill:rgb(0,0,0)" />
  <ellipse cx="298.776" cy="287.674" rx="1.81508" ry="1.81508"  style="fill:rgb(0,0,0)" />
</svg>
