<svg height="600" width="600">
  <line x1="98.8094" y1="232.327" x2="-5.68434e-14" y2="192.291" style="stroke:rgb(0,0,0);stroke-width:4" />
  <line x1="-5.68434e-14" y1="192.291" x2="24.5445" y2="181.901" style="stroke:rgb(0,0,0);stroke-width:4" />
  <line x1="-5.68434e-14" y1="192.291" x2="10.3898" y2="216.836" style="stroke:rgb(0,0,0);stroke-width:4" />
  <line x1="499.187" y1="369.801" x2="600" y2="404.864" style="stroke:rgb(0,0,0);stroke-width:4" />
  <line x1="600" y1="404.864" x2="575.98" y2="416.487" style="stroke:rgb(0,0,0);stroke-width:4" />
  <line x1="600" y1="404.864" x2="588.377" y2="380.844" style="stroke:rgb(0,0,0);stroke-width:4" />
  <path d="M396.872 245.969 C 391.237 237.67, 380.846 222.396, 374.566 216.151" fill="none" style="stroke:rgb(0,0,0);stroke-width:4" />
  <path d="M374.566 216.151 C 368.285 209.905, 351.533 197.847, 342.586 191.303" fill="none" style="stroke:rgb(0,0,0);stroke-width:4" />
  <path d="M396.872 245.969 C 390.408 243.386, 378.17 238.492, 373.215 236.804" fill="none" style="stroke:rgb(0,0,0);stroke-width:1" />
  <path d="M373.215 236.804 C 368.259 235.116, 358.92 232.692, 353.717 231.334" fill="none" style="stroke:rgb(0,0,0);stroke-width:1" />
  <path d="M353.717 231.334 C 353.587 235.344, 353.206 242.789, 352.67 246.382" fill="none" style="stroke:rgb(0,0,0);stroke-width:1" />
  <path d="M352.67 246.382 C 352.134 249.975, 350.325 258.28, 349.338 262.834" fill="none" style="stroke:rgb(0,0,0);stroke-width:1" />
  <path d="M342.586 191.303 C 335.327 185.354, 321.822 174.29, 313.647 168.981" fill="none" style="stroke:rgb(0,0,0);stroke-width:4" />
  <path d="M313.647 168.981 C 305.471 163.672, 283.632 151.693, 271.896 145.216" fill="none" style="stroke:rgb(0,0,0);stroke-width:4" />
  <path d="M342.586 191.303 C 333.25 190.642, 316.3 189.274, 309.259 189.54" fill="none" style="stroke:rgb(0,0,0);stroke-width:1" />
  <path d="M309.259 189.54 C 302.218 189.807, 288.579 192.394, 281.407 193.74" fill="none" style="stroke:rgb(0,0,0);stroke-width:1" />
  <path d="M353.717 231.334 C 354.826 227.275, 356.952 219.661, 355.634 215.067" fill="none" style="stroke:rgb(0,0,0);stroke-width:1" />
  <path d="M355.634 215.067 C 354.317 210.472, 346.625 198.07, 342.586 191.303" fill="none" style="stroke:rgb(0,0,0);stroke-width:1" />
  <path d="M342.586 191.303 C 337.885 196.172, 329.491 205.037, 326.79 209.632" fill="none" style="stroke:rgb(0,0,0);stroke-width:1" />
  <path d="M326.79 209.632 C 324.089 214.226, 320.53 225.62, 318.679 231.823" fill="none" style="stroke:rgb(0,0,0);stroke-width:1" />
  <path d="M353.717 231.334 C 351.432 200.658, 340.869 202.52, 353.717 231.334" fill="none" style="stroke:rgb(0,0,0);stroke-width:1" />
  <path d="M342.586 191.303 C 342.302 197.578, 341.927 208.857, 343.281 213.409" fill="none" style="stroke:rgb(0,0,0);stroke-width:1" />
  <path d="M343.281 213.409 C 344.634 217.961, 350.575 226.698, 353.717 231.334" fill="none" style="stroke:rgb(0,0,0);stroke-width:1" />
  <path d="M353.717 231.334 C 349.059 231.06, 340.282 230.515, 336.243 230.524" fill="none" style="stroke:rgb(0,0,0);stroke-width:1" />
  <path d="M336.243 230.524 C 332.205 230.533, 323.463 231.323, 318.679 231.823" fill="none" style="stroke:rgb(0,0,0);stroke-width:1" />
  <path d="M342.586 191.303 C 350.351 191.054, 365.127 190.552, 373.418 191.028" fill="none" style="stroke:rgb(0,0,0);stroke-width:1" />
  <path d="M373.418 191.028 C 381.709 191.504, 402.589 194.004, 413.898 195.3" fill="none" style="stroke:rgb(0,0,0);stroke-width:1" />
  <path d="M396.872 245.969 C 399.037 240.087, 402.966 229.278, 404.959 223.472" fill="none" style="stroke:rgb(0,0,0);stroke-width:4" />
  <path d="M404.959 223.472 C 406.952 217.667, 411.536 203.142, 413.898 195.3" fill="none" style="stroke:rgb(0,0,0);stroke-width:4" />
  <path d="M396.872 245.969 C 390.366 248.045, 378.153 251.887, 372.664 253.784" fill="none" style="stroke:rgb(0,0,0);stroke-width:4" />
  <path d="M372.664 253.784 C 367.174 255.681, 355.621 260.272, 349.338 262.834" fill="none" style="stroke:rgb(0,0,0);stroke-width:4" />
  <path d="M396.872 245.969 C 394.068 251.509, 388.953 261.635, 386.611 265.804" fill="none" style="stroke:rgb(0,0,0);stroke-width:1" />
  <path d="M386.611 265.804 C 384.268 269.972, 379.328 277.726, 376.763 281.728" fill="none" style="stroke:rgb(0,0,0);stroke-width:1" />
  <path d="M376.763 281.728 C 379.381 284.765, 384.338 290.475, 386.743 293.79" fill="none" style="stroke:rgb(0,0,0);stroke-width:1" />
  <path d="M386.743 293.79 C 389.147 297.106, 394.627 305.943, 397.635 310.823" fill="none" style="stroke:rgb(0,0,0);stroke-width:1" />
  <path d="M349.338 262.834 C 344.895 259.413, 336.804 253.119, 333.291 249.547" fill="none" style="stroke:rgb(0,0,0);stroke-width:4" />
  <path d="M333.291 249.547 C 329.779 245.975, 322.54 236.764, 318.679 231.823" fill="none" style="stroke:rgb(0,0,0);stroke-width:4" />
  <path d="M349.338 262.834 C 344.989 265.452, 336.844 270.387, 333.232 273.007" fill="none" style="stroke:rgb(0,0,0);stroke-width:1" />
  <path d="M333.232 273.007 C 329.621 275.627, 321.901 282.046, 317.608 285.543" fill="none" style="stroke:rgb(0,0,0);stroke-width:1" />
  <path d="M376.763 281.728 C 374.661 277.716, 370.899 270.425, 367.754 268.31" fill="none" style="stroke:rgb(0,0,0);stroke-width:1" />
  <path d="M367.754 268.31 C 364.609 266.195, 354.66 264.039, 349.338 262.834" fill="none" style="stroke:rgb(0,0,0);stroke-width:1" />
  <path d="M349.338 262.834 C 349.099 268.848, 348.717 280.083, 349.143 285.263" fill="none" style="stroke:rgb(0,0,0);stroke-width:1" />
  <path d="M349.143 285.263 C 349.569 290.444, 351.792 301.731, 353.02 307.879" fill="none" style="stroke:rgb(0,0,0);stroke-width:1" />
  <path d="M376.763 281.728 C 359.177 262.972, 353.085 272.465, 376.763 281.728" fill="none" style="stroke:rgb(0,0,0);stroke-width:1" />
  <path d="M349.338 262.834 C 352.391 267.143, 357.862 275.277, 360.978 277.455" fill="none" style="stroke:rgb(0,0,0);stroke-width:1" />
  <path d="M360.978 277.455 C 364.093 279.633, 372.334 280.947, 376.763 281.728" fill="none" style="stroke:rgb(0,0,0);stroke-width:1" />
  <path d="M376.763 281.728 C 373.74 285.282, 368.279 291.742, 365.556 294.741" fill="none" style="stroke:rgb(0,0,0);stroke-width:1" />
  <path d="M365.556 294.741 C 362.834 297.74, 356.424 304.356, 353.02 307.879" fill="none" style="stroke:rgb(0,0,0);stroke-width:1" />
  <path d="M396.872 245.969 C 402.595 253.098, 413.049 266.248, 417.812 273.521" fill="none" style="stroke:rgb(0,0,0);stroke-width:4" />
  <path d="M417.812 273.521 C 422.576 280.793, 432.916 299.271, 438.461 309.226" fill="none" style="stroke:rgb(0,0,0);stroke-width:4" />
  <path d="M396.872 245.969 C 398.394 255.629, 401.222 273.522, 401.293 280.946" fill="none" style="stroke:rgb(0,0,0);stroke-width:4" />
  <path d="M401.293 280.946 C 401.363 288.37, 398.917 302.904, 397.635 310.823" fill="none" style="stroke:rgb(0,0,0);stroke-width:4" />
  <path d="M353.02 307.879 C 355.075 312.826, 359.124 322.099, 360.818 325.96" fill="none" style="stroke:rgb(0,0,0);stroke-width:1" />
  <path d="M360.818 325.96 C 362.513 329.821, 365.827 337.491, 367.747 341.765" fill="none" style="stroke:rgb(0,0,0);stroke-width:1" />
  <path d="M353.02 307.879 C 358.597 308.444, 369.268 309.318, 374.41 309.601" fill="none" style="stroke:rgb(0,0,0);stroke-width:4" />
  <path d="M374.41 309.601 C 379.552 309.884, 391.188 310.482, 397.635 310.823" fill="none" style="stroke:rgb(0,0,0);stroke-width:4" />
  <path d="M318.679 231.823 C 318.735 239.381, 318.838 253.65, 318.739 259.832" fill="none" style="stroke:rgb(0,0,0);stroke-width:4" />
  <path d="M318.739 259.832 C 318.64 266.014, 318.002 278.605, 317.608 285.543" fill="none" style="stroke:rgb(0,0,0);stroke-width:4" />
  <path d="M271.896 145.216 C 273.255 152.759, 275.739 166.717, 276.804 172.301" fill="none" style="stroke:rgb(0,0,0);stroke-width:4" />
  <path d="M276.804 172.301 C 277.869 177.884, 280.141 188.189, 281.407 193.74" fill="none" style="stroke:rgb(0,0,0);stroke-width:4" />
  <path d="M271.896 145.216 C 291.715 147.253, 327.85 150.855, 343.928 156.533" fill="none" style="stroke:rgb(0,0,0);stroke-width:1" />
  <path d="M343.928 156.533 C 360.006 162.212, 394.871 183.652, 413.898 195.3" fill="none" style="stroke:rgb(0,0,0);stroke-width:1" />
  <path d="M271.896 145.216 C 281.193 137.112, 298.551 121.864, 310.456 114.006" fill="none" style="stroke:rgb(0,0,0);stroke-width:1" />
  <path d="M310.456 114.006 C 322.361 106.148, 357.383 87.6508, 376.657 77.7262" fill="none" style="stroke:rgb(0,0,0);stroke-width:1" />
  <path d="M98.8094 232.327 C 127.387 212.204, 179.425 175.751, 199.319 165.926" fill="none" style="stroke:rgb(0,0,0);stroke-width:4" />
  <path d="M199.319 165.926 C 219.213 156.1, 253.718 148.998, 271.896 145.216" fill="none" style="stroke:rgb(0,0,0);stroke-width:4" />
  <path d="M376.657 77.7262 C 346.641 70.9839, 279.813 59.2251, 247.187 72.2569" fill="none" style="stroke:rgb(0,0,0);stroke-width:1" />
  <path d="M247.187 72.2569 C 214.561 85.2887, 142.465 174.348, 98.8094 232.327" fill="none" style="stroke:rgb(0,0,0);stroke-width:1" />
  <path d="M413.898 195.3 C 420.025 213.465, 431.377 247.138, 434.207 260.246" fill="none" style="stroke:rgb(0,0,0);stroke-width:1" />
  <path d="M434.207 260.246 C 437.038 273.354, 437.968 296.644, 438.461 309.226" fill="none" style="stroke:rgb(0,0,0);stroke-width:1" />
  <path d="M376.657 77.7262 C 375.374 93.1047, 373.153 121.398, 377.458 134.787" fill="none" style="stroke:rgb(0,0,0);stroke-width:1" />
  <path d="M377.458 134.787 C 381.764 148.176, 402.606 178.67, 413.898 195.3" fill="none" style="stroke:rgb(0,0,0);stroke-width:1" />
  <path d="M413.898 195.3 C 426.915 210.345, 451.177 238.17, 461.013 257.989" fill="none" style="stroke:rgb(0,0,0);stroke-width:4" />
  <path d="M461.013 257.989 C 470.849 277.808, 489.231 337.234, 499.187 369.801" fill="none" style="stroke:rgb(0,0,0);stroke-width:4" />
  <path d="M376.657 77.7262 C 392.604 180.328, 425.063 175.202, 376.657 77.7262" fill="none" style="stroke:rgb(0,0,0);stroke-width:1" />
  <path d="M413.898 195.3 C 417.629 187.152, 424.321 171.484, 420.063 157.757" fill="none" style="stroke:rgb(0,0,0);stroke-width:1" />
  <path d="M420.063 157.757 C 415.805 144.03, 390.493 100.911, 376.657 77.7262" fill="none" style="stroke:rgb(0,0,0);stroke-width:1" />
  <path d="M376.657 77.7262 C 404.495 91.0923, 464.703 123.67, 482.322 153.897" fill="none" style="stroke:rgb(0,0,0);stroke-width:1" />
  <path d="M482.322 153.897 C 499.941 184.123, 500.999 297.583, 499.187 369.801" fill="none" style="stroke:rgb(0,0,0);stroke-width:1" />
  <path d="M376.449 380.575 C 381.102 381.84, 389.911 384.19, 394.926 384.636" fill="none" style="stroke:rgb(0,0,0);stroke-width:1" />
  <path d="M394.926 384.636 C 399.941 385.082, 412.91 384.685, 420.006 384.482" fill="none" style="stroke:rgb(0,0,0);stroke-width:1" />
  <path d="M376.449 380.575 C 384.8 371.391, 400.273 354.36, 407.419 346.144" fill="none" style="stroke:rgb(0,0,0);stroke-width:4" />
  <path d="M407.419 346.144 C 414.566 337.927, 430.098 319.283, 438.461 309.226" fill="none" style="stroke:rgb(0,0,0);stroke-width:4" />
  <path d="M340.976 360.715 C 344.88 358.209, 352.201 353.395, 355.293 351.235" fill="none" style="stroke:rgb(0,0,0);stroke-width:1" />
  <path d="M355.293 351.235 C 358.385 349.075, 364.449 344.414, 367.747 341.765" fill="none" style="stroke:rgb(0,0,0);stroke-width:1" />
  <path d="M353.02 307.879 C 351.278 314.902, 348.261 327.946, 346.896 334.065" fill="none" style="stroke:rgb(0,0,0);stroke-width:4" />
  <path d="M346.896 334.065 C 345.531 340.185, 342.527 353.56, 340.976 360.715" fill="none" style="stroke:rgb(0,0,0);stroke-width:4" />
  <path d="M317.608 285.543 C 322.518 287.781, 331.633 292.084, 335.671 294.683" fill="none" style="stroke:rgb(0,0,0);stroke-width:4" />
  <path d="M335.671 294.683 C 339.709 297.282, 348.301 304.147, 353.02 307.879" fill="none" style="stroke:rgb(0,0,0);stroke-width:4" />
  <path d="M318.679 231.823 C 315.335 237.053, 309.213 246.771, 306.268 250.692" fill="none" style="stroke:rgb(0,0,0);stroke-width:4" />
  <path d="M306.268 250.692 C 303.323 254.613, 296.502 261.742, 292.793 265.518" fill="none" style="stroke:rgb(0,0,0);stroke-width:4" />
  <path d="M318.679 231.823 C 314.951 225.695, 308.158 214.447, 303.867 210.119" fill="none" style="stroke:rgb(0,0,0);stroke-width:4" />
  <path d="M303.867 210.119 C 299.577 205.791, 287.735 197.997, 281.407 193.74" fill="none" style="stroke:rgb(0,0,0);stroke-width:4" />
  <path d="M318.679 231.823 C 314.172 231.536, 305.962 231.108, 302.432 231.104" fill="none" style="stroke:rgb(0,0,0);stroke-width:1" />
  <path d="M302.432 231.104 C 298.903 231.1, 291.813 231.395, 288.078 231.557" fill="none" style="stroke:rgb(0,0,0);stroke-width:1" />
  <path d="M288.078 231.557 C 288.696 235.712, 289.877 243.472, 290.458 247.367" fill="none" style="stroke:rgb(0,0,0);stroke-width:1" />
  <path d="M290.458 247.367 C 291.039 251.261, 292.215 260.481, 292.793 265.518" fill="none" style="stroke:rgb(0,0,0);stroke-width:1" />
  <path d="M281.407 193.74 C 273.787 195.53, 259.955 198.781, 253.107 201.778" fill="none" style="stroke:rgb(0,0,0);stroke-width:1" />
  <path d="M253.107 201.778 C 246.259 204.774, 230.29 214.407, 221.806 219.506" fill="none" style="stroke:rgb(0,0,0);stroke-width:1" />
  <path d="M288.078 231.557 C 289.014 227.062, 290.802 218.919, 290.058 214.637" fill="none" style="stroke:rgb(0,0,0);stroke-width:1" />
  <path d="M290.058 214.637 C 289.315 210.356, 284.192 199.591, 281.407 193.74" fill="none" style="stroke:rgb(0,0,0);stroke-width:1" />
  <path d="M281.407 193.74 C 276.739 199.797, 268.028 211.001, 265.256 216.204" fill="none" style="stroke:rgb(0,0,0);stroke-width:1" />
  <path d="M265.256 216.204 C 262.485 221.408, 259.153 233.011, 257.32 239.355" fill="none" style="stroke:rgb(0,0,0);stroke-width:1" />
  <path d="M288.078 231.557 C 287.215 201.563, 277.908 205.445, 288.078 231.557" fill="none" style="stroke:rgb(0,0,0);stroke-width:1" />
  <path d="M281.407 193.74 C 280.665 200.004, 279.281 211.464, 280.048 215.788" fill="none" style="stroke:rgb(0,0,0);stroke-width:1" />
  <path d="M280.048 215.788 C 280.814 220.113, 285.533 227.562, 288.078 231.557" fill="none" style="stroke:rgb(0,0,0);stroke-width:1" />
  <path d="M288.078 231.557 C 284.195 232.325, 277.176 233.704, 273.65 234.562" fill="none" style="stroke:rgb(0,0,0);stroke-width:1" />
  <path d="M273.65 234.562 C 270.125 235.42, 261.765 237.939, 257.32 239.355" fill="none" style="stroke:rgb(0,0,0);stroke-width:1" />
  <path d="M271.896 145.216 C 264.219 155.73, 249.944 175.075, 244.148 183.633" fill="none" style="stroke:rgb(0,0,0);stroke-width:4" />
  <path d="M244.148 183.633 C 238.353 192.19, 227.583 209.991, 221.806 219.506" fill="none" style="stroke:rgb(0,0,0);stroke-width:4" />
  <path d="M177.798 216.491 C 187.133 207.638, 204.515 191.279, 215.44 183.071" fill="none" style="stroke:rgb(0,0,0);stroke-width:1" />
  <path d="M215.44 183.071 C 226.366 174.864, 256.033 155.586, 271.896 145.216" fill="none" style="stroke:rgb(0,0,0);stroke-width:1" />
  <path d="M159.072 291.392 C 164.801 301.424, 175.051 320.048, 179.824 327.391" fill="none" style="stroke:rgb(0,0,0);stroke-width:4" />
  <path d="M179.824 327.391 C 184.596 334.735, 195.157 347.733, 200.695 354.636" fill="none" style="stroke:rgb(0,0,0);stroke-width:4" />
  <path d="M177.798 216.491 C 169.712 217.494, 154.542 219.533, 145.379 221.469" fill="none" style="stroke:rgb(0,0,0);stroke-width:1" />
  <path d="M145.379 221.469 C 136.216 223.405, 111.89 229.283, 98.8094 232.327" fill="none" style="stroke:rgb(0,0,0);stroke-width:1" />
  <path d="M159.072 291.392 C 165.496 290.88, 177.191 289.983, 181.88 289.749" fill="none" style="stroke:rgb(0,0,0);stroke-width:1" />
  <path d="M181.88 289.749 C 186.569 289.516, 195.191 289.402, 199.707 289.373" fill="none" style="stroke:rgb(0,0,0);stroke-width:1" />
  <path d="M177.798 216.491 C 171.118 225.72, 158.883 242.701, 156.808 251.183" fill="none" style="stroke:rgb(0,0,0);stroke-width:1" />
  <path d="M156.808 251.183 C 154.732 259.665, 157.604 280.134, 159.072 291.392" fill="none" style="stroke:rgb(0,0,0);stroke-width:1" />
  <path d="M159.072 291.392 C 167.63 281.139, 183.192 262.235, 190.322 254.006" fill="none" style="stroke:rgb(0,0,0);stroke-width:4" />
  <path d="M190.322 254.006 C 197.452 245.776, 213.257 228.736, 221.806 219.506" fill="none" style="stroke:rgb(0,0,0);stroke-width:4" />
  <path d="M177.798 216.491 C 151.023 271.868, 166.905 276.759, 177.798 216.491" fill="none" style="stroke:rgb(0,0,0);stroke-width:1" />
  <path d="M159.072 291.392 C 163.865 279.728, 172.723 258.468, 174.917 249.861" fill="none" style="stroke:rgb(0,0,0);stroke-width:1" />
  <path d="M174.917 249.861 C 177.111 241.254, 177.617 225.064, 177.798 216.491" fill="none" style="stroke:rgb(0,0,0);stroke-width:1" />
  <path d="M159.072 291.392 C 152.066 286.867, 138.908 278.085, 131.947 271.086" fill="none" style="stroke:rgb(0,0,0);stroke-width:1" />
  <path d="M131.947 271.086 C 124.985 264.087, 108.012 243.337, 98.8094 232.327" fill="none" style="stroke:rgb(0,0,0);stroke-width:1" />
  <path d="M177.798 216.491 C 184.822 216.048, 197.937 215.354, 202.964 215.734" fill="none" style="stroke:rgb(0,0,0);stroke-width:1" />
  <path d="M202.964 215.734 C 207.99 216.113, 216.879 218.315, 221.806 219.506" fill="none" style="stroke:rgb(0,0,0);stroke-width:1" />
  <path d="M159.072 291.392 C 159.65 303.848, 160.801 327.299, 163.756 340.425" fill="none" style="stroke:rgb(0,0,0);stroke-width:1" />
  <path d="M163.756 340.425 C 166.71 353.551, 178.175 386.968, 184.303 405.128" fill="none" style="stroke:rgb(0,0,0);stroke-width:1" />
  <path d="M499.187 369.801 C 489.946 358.409, 472.802 337.15, 465.814 330.067" fill="none" style="stroke:rgb(0,0,0);stroke-width:1" />
  <path d="M465.814 330.067 C 458.825 322.983, 445.606 313.955, 438.461 309.226" fill="none" style="stroke:rgb(0,0,0);stroke-width:1" />
  <path d="M499.187 369.801 C 486.095 372.609, 461.771 378.136, 452.535 379.916" fill="none" style="stroke:rgb(0,0,0);stroke-width:1" />
  <path d="M452.535 379.916 C 443.299 381.697, 428.033 383.51, 420.006 384.482" fill="none" style="stroke:rgb(0,0,0);stroke-width:1" />
  <path d="M326.36 455.107 C 344.725 451.527, 379.136 444.685, 398.936 435.009" fill="none" style="stroke:rgb(0,0,0);stroke-width:4" />
  <path d="M398.936 435.009 C 418.735 425.332, 470.738 389.521, 499.187 369.801" fill="none" style="stroke:rgb(0,0,0);stroke-width:4" />
  <path d="M420.006 384.482 C 410.792 393.168, 393.59 409.408, 382.736 417.546" fill="none" style="stroke:rgb(0,0,0);stroke-width:1" />
  <path d="M382.736 417.546 C 371.883 425.684, 342.262 444.757, 326.36 455.107" fill="none" style="stroke:rgb(0,0,0);stroke-width:1" />
  <path d="M438.461 309.226 C 432.125 309.535, 420.345 310.183, 415.631 310.385" fill="none" style="stroke:rgb(0,0,0);stroke-width:1" />
  <path d="M415.631 310.385 C 410.917 310.587, 402.284 310.737, 397.635 310.823" fill="none" style="stroke:rgb(0,0,0);stroke-width:1" />
  <path d="M420.006 384.482 C 426.712 375.18, 438.984 358.218, 441.049 349.719" fill="none" style="stroke:rgb(0,0,0);stroke-width:1" />
  <path d="M441.049 349.719 C 443.114 341.219, 440.07 320.554, 438.461 309.226" fill="none" style="stroke:rgb(0,0,0);stroke-width:1" />
  <path d="M420.006 384.482 C 445.986 329.094, 429.673 328.316, 420.006 384.482" fill="none" style="stroke:rgb(0,0,0);stroke-width:1" />
  <path d="M438.461 309.226 C 433.752 320.878, 424.968 342.251, 422.802 350.87" fill="none" style="stroke:rgb(0,0,0);stroke-width:1" />
  <path d="M422.802 350.87 C 420.635 359.489, 420.191 375.745, 420.006 384.482" fill="none" style="stroke:rgb(0,0,0);stroke-width:1" />
  <path d="M376.449 380.575 C 370.657 390.119, 360.038 407.827, 354.271 416.406" fill="none" style="stroke:rgb(0,0,0);stroke-width:4" />
  <path d="M354.271 416.406 C 348.503 424.985, 334.078 444.543, 326.36 455.107" fill="none" style="stroke:rgb(0,0,0);stroke-width:4" />
  <path d="M376.449 380.575 C 381.012 369.901, 389.588 350.309, 392.039 342.328" fill="none" style="stroke:rgb(0,0,0);stroke-width:1" />
  <path d="M392.039 342.328 C 394.49 334.346, 396.507 319.061, 397.635 310.823" fill="none" style="stroke:rgb(0,0,0);stroke-width:1" />
  <path d="M376.449 380.575 C 375.309 374.615, 373.258 363.758, 372.246 359.315" fill="none" style="stroke:rgb(0,0,0);stroke-width:1" />
  <path d="M372.246 359.315 C 371.234 354.873, 368.934 346.326, 367.747 341.765" fill="none" style="stroke:rgb(0,0,0);stroke-width:1" />
  <path d="M340.976 360.715 C 344.804 364.363, 352.082 371.28, 356.133 373.533" fill="none" style="stroke:rgb(0,0,0);stroke-width:4" />
  <path d="M356.133 373.533 C 360.184 375.786, 370.643 378.799, 376.449 380.575" fill="none" style="stroke:rgb(0,0,0);stroke-width:4" />
  <path d="M367.747 341.765 C 371.841 340.169, 379.395 337.069, 382.789 333.511" fill="none" style="stroke:rgb(0,0,0);stroke-width:1" />
  <path d="M382.789 333.511 C 386.183 329.953, 393.573 317.582, 397.635 310.823" fill="none" style="stroke:rgb(0,0,0);stroke-width:1" />
  <path d="M367.747 341.765 C 393.501 322.272, 385.887 315.353, 367.747 341.765" fill="none" style="stroke:rgb(0,0,0);stroke-width:1" />
  <path d="M397.635 310.823 C 392.052 314.038, 381.936 319.875, 378.544 323.43" fill="none" style="stroke:rgb(0,0,0);stroke-width:1" />
  <path d="M378.544 323.43 C 375.151 326.985, 370.323 336.619, 367.747 341.765" fill="none" style="stroke:rgb(0,0,0);stroke-width:1" />
  <path d="M353.02 307.879 C 349.305 309.848, 342.643 313.54, 339.926 315.047" fill="none" style="stroke:rgb(0,0,0);stroke-width:1" />
  <path d="M339.926 315.047 C 337.209 316.554, 332.068 319.349, 329.414 320.851" fill="none" style="stroke:rgb(0,0,0);stroke-width:1" />
  <path d="M305.239 334.773 C 301.601 338.529, 294.778 345.597, 291.869 349.538" fill="none" style="stroke:rgb(0,0,0);stroke-width:4" />
  <path d="M291.869 349.538 C 288.959 353.479, 282.86 363.364, 279.396 368.681" fill="none" style="stroke:rgb(0,0,0);stroke-width:4" />
  <path d="M329.414 320.851 C 327.903 316.494, 325.084 308.392, 323.722 304.305" fill="none" style="stroke:rgb(0,0,0);stroke-width:1" />
  <path d="M323.722 304.305 C 322.36 300.218, 319.276 290.667, 317.608 285.543" fill="none" style="stroke:rgb(0,0,0);stroke-width:1" />
  <path d="M305.239 334.773 C 305.867 339.708, 307.093 349.018, 307.687 352.917" fill="none" style="stroke:rgb(0,0,0);stroke-width:1" />
  <path d="M307.687 352.917 C 308.281 356.816, 309.602 364.442, 310.332 368.644" fill="none" style="stroke:rgb(0,0,0);stroke-width:1" />
  <path d="M329.414 320.851 C 325.86 320.481, 319.316 319.847, 316.551 321.469" fill="none" style="stroke:rgb(0,0,0);stroke-width:1" />
  <path d="M316.551 321.469 C 313.787 323.092, 308.244 330.686, 305.239 334.773" fill="none" style="stroke:rgb(0,0,0);stroke-width:1" />
  <path d="M305.239 334.773 C 310.052 338.228, 319.155 344.875, 323.253 347.925" fill="none" style="stroke:rgb(0,0,0);stroke-width:4" />
  <path d="M323.253 347.925 C 327.352 350.975, 336.117 357.298, 340.976 360.715" fill="none" style="stroke:rgb(0,0,0);stroke-width:4" />
  <path d="M329.414 320.851 C 307.489 324.921, 313.516 337.951, 329.414 320.851" fill="none" style="stroke:rgb(0,0,0);stroke-width:1" />
  <path d="M305.239 334.773 C 309.653 334.516, 317.884 334.13, 320.658 332.616" fill="none" style="stroke:rgb(0,0,0);stroke-width:1" />
  <path d="M320.658 332.616 C 323.432 331.102, 327.288 324.526, 329.414 320.851" fill="none" style="stroke:rgb(0,0,0);stroke-width:1" />
  <path d="M305.239 334.773 C 306.104 328.069, 307.668 315.848, 309.105 310.207" fill="none" style="stroke:rgb(0,0,0);stroke-width:1" />
  <path d="M309.105 310.207 C 310.543 304.566, 315.164 292.172, 317.608 285.543" fill="none" style="stroke:rgb(0,0,0);stroke-width:1" />
  <path d="M329.414 320.851 C 330.922 325.595, 333.679 334.244, 335.003 338.83" fill="none" style="stroke:rgb(0,0,0);stroke-width:1" />
  <path d="M335.003 338.83 C 336.327 343.415, 339.35 354.698, 340.976 360.715" fill="none" style="stroke:rgb(0,0,0);stroke-width:1" />
  <path d="M305.239 334.773 C 302 331.886, 296.06 326.684, 293.139 324.412" fill="none" style="stroke:rgb(0,0,0);stroke-width:1" />
  <path d="M293.139 324.412 C 290.218 322.14, 283.603 317.282, 280.131 314.653" fill="none" style="stroke:rgb(0,0,0);stroke-width:1" />
  <path d="M317.608 285.543 C 314.064 282.904, 307.549 278.168, 304.713 275.854" fill="none" style="stroke:rgb(0,0,0);stroke-width:1" />
  <path d="M304.713 275.854 C 301.878 273.541, 295.986 268.265, 292.793 265.518" fill="none" style="stroke:rgb(0,0,0);stroke-width:1" />
  <path d="M280.131 314.653 C 285.242 310.724, 294.535 303.283, 298.842 299.921" fill="none" style="stroke:rgb(0,0,0);stroke-width:4" />
  <path d="M298.842 299.921 C 303.148 296.56, 312.593 289.445, 317.608 285.543" fill="none" style="stroke:rgb(0,0,0);stroke-width:4" />
  <path d="M257.32 239.355 C 258.889 245.233, 261.819 256.206, 263.044 260.765" fill="none" style="stroke:rgb(0,0,0);stroke-width:1" />
  <path d="M263.044 260.765 C 264.269 265.324, 266.713 274.15, 268.067 278.952" fill="none" style="stroke:rgb(0,0,0);stroke-width:1" />
  <path d="M257.32 239.355 C 262.079 242.748, 271.016 249.043, 275.128 252.031" fill="none" style="stroke:rgb(0,0,0);stroke-width:4" />
  <path d="M275.128 252.031 C 279.239 255.02, 288.038 261.807, 292.793 265.518" fill="none" style="stroke:rgb(0,0,0);stroke-width:4" />
  <path d="M221.806 219.506 C 227.519 221.144, 238.255 224.09, 242.36 226.328" fill="none" style="stroke:rgb(0,0,0);stroke-width:4" />
  <path d="M242.36 226.328 C 246.465 228.567, 253.486 235.545, 257.32 239.355" fill="none" style="stroke:rgb(0,0,0);stroke-width:4" />
  <path d="M98.8094 232.327 C 97.3054 303.685, 98.8264 416.033, 116.475 446.112" fill="none" style="stroke:rgb(0,0,0);stroke-width:1" />
  <path d="M116.475 446.112 C 134.124 476.191, 194.235 508.712, 222.074 522.066" fill="none" style="stroke:rgb(0,0,0);stroke-width:1" />
  <path d="M98.8094 232.327 C 108.933 264.615, 127.461 323.316, 137.332 342.954" fill="none" style="stroke:rgb(0,0,0);stroke-width:4" />
  <path d="M137.332 342.954 C 147.203 362.592, 171.422 390.291, 184.303 405.128" fill="none" style="stroke:rgb(0,0,0);stroke-width:4" />
  <path d="M499.187 369.801 C 455.867 426.913, 384.189 514.851, 351.577 527.743" fill="none" style="stroke:rgb(0,0,0);stroke-width:1" />
  <path d="M351.577 527.743 C 318.966 540.635, 252.087 528.83, 222.074 522.066" fill="none" style="stroke:rgb(0,0,0);stroke-width:1" />
  <path d="M184.303 405.128 C 186.707 397.329, 191.067 383.09, 192.941 377.269" fill="none" style="stroke:rgb(0,0,0);stroke-width:4" />
  <path d="M192.941 377.269 C 194.815 371.449, 198.65 360.442, 200.695 354.636" fill="none" style="stroke:rgb(0,0,0);stroke-width:4" />
  <path d="M222.074 522.066 C 241.196 512.2, 275.994 493.954, 287.897 486.157" fill="none" style="stroke:rgb(0,0,0);stroke-width:1" />
  <path d="M287.897 486.157 C 299.8 478.361, 317.145 463.128, 326.36 455.107" fill="none" style="stroke:rgb(0,0,0);stroke-width:1" />
  <path d="M222.074 522.066 C 223.167 506.807, 225.161 478.533, 220.893 465.233" fill="none" style="stroke:rgb(0,0,0);stroke-width:1" />
  <path d="M220.893 465.233 C 216.625 451.933, 195.746 421.738, 184.303 405.128" fill="none" style="stroke:rgb(0,0,0);stroke-width:1" />
  <path d="M222.074 522.066 C 205.961 420.648, 173.797 425.893, 222.074 522.066" fill="none" style="stroke:rgb(0,0,0);stroke-width:1" />
  <path d="M184.303 405.128 C 180.693 413.174, 174.213 428.952, 178.503 442.58" fill="none" style="stroke:rgb(0,0,0);stroke-width:1" />
  <path d="M178.503 442.58 C 182.794 456.207, 208.159 498.898, 222.074 522.066" fill="none" style="stroke:rgb(0,0,0);stroke-width:1" />
  <path d="M184.303 405.128 C 203.465 416.682, 238.318 437.975, 254.448 443.658" fill="none" style="stroke:rgb(0,0,0);stroke-width:1" />
  <path d="M254.448 443.658 C 270.578 449.342, 306.753 453.038, 326.36 455.107" fill="none" style="stroke:rgb(0,0,0);stroke-width:1" />
  <path d="M184.303 405.128 C 195.683 406.406, 216.54 408.945, 224.764 409.441" fill="none" style="stroke:rgb(0,0,0);stroke-width:1" />
  <path d="M224.764 409.441 C 232.988 409.937, 247.976 409.398, 255.993 409.128" fill="none" style="stroke:rgb(0,0,0);stroke-width:1" />
  <path d="M376.449 380.575 C 367.828 385.554, 352.168 394.891, 345.344 397.87" fill="none" style="stroke:rgb(0,0,0);stroke-width:1" />
  <path d="M345.344 397.87 C 338.52 400.848, 324.524 404.329, 317.137 406.211" fill="none" style="stroke:rgb(0,0,0);stroke-width:1" />
  <path d="M340.976 360.715 C 336.404 361.923, 327.949 364.296, 324.495 365.231" fill="none" style="stroke:rgb(0,0,0);stroke-width:1" />
  <path d="M324.495 365.231 C 321.041 366.167, 314.175 367.759, 310.332 368.644" fill="none" style="stroke:rgb(0,0,0);stroke-width:1" />
  <path d="M340.976 360.715 C 339.079 366.963, 335.825 378.155, 333.079 383.325" fill="none" style="stroke:rgb(0,0,0);stroke-width:1" />
  <path d="M333.079 383.325 C 330.332 388.495, 321.668 400.051, 317.137 406.211" fill="none" style="stroke:rgb(0,0,0);stroke-width:1" />
  <path d="M280.131 314.653 C 282.569 307.807, 287.05 295.432, 288.501 289.818" fill="none" style="stroke:rgb(0,0,0);stroke-width:1" />
  <path d="M288.501 289.818 C 289.952 284.203, 291.801 272.01, 292.793 265.518" fill="none" style="stroke:rgb(0,0,0);stroke-width:1" />
  <path d="M280.131 314.653 C 278.277 309.472, 274.905 300.071, 273.516 295.977" fill="none" style="stroke:rgb(0,0,0);stroke-width:1" />
  <path d="M273.516 295.977 C 272.128 291.884, 269.468 283.434, 268.067 278.952" fill="none" style="stroke:rgb(0,0,0);stroke-width:1" />
  <path d="M243.931 292.09 C 248.664 295.882, 257.299 302.851, 261.419 305.441" fill="none" style="stroke:rgb(0,0,0);stroke-width:4" />
  <path d="M261.419 305.441 C 265.539 308.031, 275.004 312.345, 280.131 314.653" fill="none" style="stroke:rgb(0,0,0);stroke-width:4" />
  <path d="M268.067 278.952 C 265.28 280.509, 259.973 283.482, 257.235 285.014" fill="none" style="stroke:rgb(0,0,0);stroke-width:1" />
  <path d="M257.235 285.014 C 254.498 286.546, 247.737 290.141, 243.931 292.09" fill="none" style="stroke:rgb(0,0,0);stroke-width:1" />
  <path d="M268.067 278.952 C 271.612 279.403, 278.055 280.109, 280.832 278.573" fill="none" style="stroke:rgb(0,0,0);stroke-width:1" />
  <path d="M280.832 278.573 C 283.61 277.038, 289.53 269.614, 292.793 265.518" fill="none" style="stroke:rgb(0,0,0);stroke-width:1" />
  <path d="M268.067 278.952 C 289.426 273.439, 284.495 264.052, 268.067 278.952" fill="none" style="stroke:rgb(0,0,0);stroke-width:1" />
  <path d="M292.793 265.518 C 288.454 265.716, 280.411 266.033, 277.572 267.562" fill="none" style="stroke:rgb(0,0,0);stroke-width:1" />
  <path d="M277.572 267.562 C 274.733 269.091, 270.414 275.491, 268.067 278.952" fill="none" style="stroke:rgb(0,0,0);stroke-width:1" />
  <path d="M257.32 239.355 C 255.448 246.461, 251.899 259.787, 250.369 265.854" fill="none" style="stroke:rgb(0,0,0);stroke-width:4" />
  <path d="M250.369 265.854 C 248.839 271.92, 245.693 284.962, 243.931 292.09" fill="none" style="stroke:rgb(0,0,0);stroke-width:4" />
  <path d="M229.823 258.411 C 233.163 255.821, 239.346 250.897, 242.489 248.659" fill="none" style="stroke:rgb(0,0,0);stroke-width:1" />
  <path d="M242.489 248.659 C 245.631 246.421, 253.197 241.816, 257.32 239.355" fill="none" style="stroke:rgb(0,0,0);stroke-width:1" />
  <path d="M199.707 289.373 C 198.5 297.31, 196.198 311.907, 196.329 319.382" fill="none" style="stroke:rgb(0,0,0);stroke-width:4" />
  <path d="M196.329 319.382 C 196.459 326.857, 199.256 344.891, 200.695 354.636" fill="none" style="stroke:rgb(0,0,0);stroke-width:4" />
  <path d="M229.823 258.411 C 228.736 253.835, 226.593 245.146, 225.645 240.631" fill="none" style="stroke:rgb(0,0,0);stroke-width:1" />
  <path d="M225.645 240.631 C 224.698 236.115, 222.832 225.351, 221.806 219.506" fill="none" style="stroke:rgb(0,0,0);stroke-width:1" />
  <path d="M199.707 289.373 C 202.762 294.194, 208.229 303.1, 210.616 306.473" fill="none" style="stroke:rgb(0,0,0);stroke-width:1" />
  <path d="M210.616 306.473 C 213.003 309.846, 218.073 315.505, 220.78 318.505" fill="none" style="stroke:rgb(0,0,0);stroke-width:1" />
  <path d="M229.823 258.411 C 225.808 260.129, 218.194 263.187, 214.77 266.748" fill="none" style="stroke:rgb(0,0,0);stroke-width:1" />
  <path d="M214.77 266.748 C 211.347 270.309, 203.903 282.732, 199.707 289.373" fill="none" style="stroke:rgb(0,0,0);stroke-width:1" />
  <path d="M199.707 289.373 C 205.992 289.776, 217.408 290.418, 222.507 290.71" fill="none" style="stroke:rgb(0,0,0);stroke-width:4" />
  <path d="M222.507 290.71 C 227.606 291.001, 238.303 291.718, 243.931 292.09" fill="none" style="stroke:rgb(0,0,0);stroke-width:4" />
  <path d="M229.823 258.411 C 204.028 278.637, 210.686 285.884, 229.823 258.411" fill="none" style="stroke:rgb(0,0,0);stroke-width:1" />
  <path d="M199.707 289.373 C 205.376 286.233, 215.756 280.385, 219.154 276.88" fill="none" style="stroke:rgb(0,0,0);stroke-width:1" />
  <path d="M219.154 276.88 C 222.552 273.376, 227.231 263.743, 229.823 258.411" fill="none" style="stroke:rgb(0,0,0);stroke-width:1" />
  <path d="M199.707 289.373 C 201.066 281.078, 203.464 265.586, 205.992 257.539" fill="none" style="stroke:rgb(0,0,0);stroke-width:1" />
  <path d="M205.992 257.539 C 208.519 249.491, 217.171 230.05, 221.806 219.506" fill="none" style="stroke:rgb(0,0,0);stroke-width:1" />
  <path d="M229.823 258.411 C 231.588 262.727, 234.754 270.568, 236.373 274.412" fill="none" style="stroke:rgb(0,0,0);stroke-width:1" />
  <path d="M236.373 274.412 C 237.991 278.257, 241.878 287.255, 243.931 292.09" fill="none" style="stroke:rgb(0,0,0);stroke-width:1" />
  <path d="M326.36 455.107 C 314.599 448.628, 292.716 436.707, 284.545 431.401" fill="none" style="stroke:rgb(0,0,0);stroke-width:4" />
  <path d="M284.545 431.401 C 276.374 426.094, 263.073 415.026, 255.993 409.128" fill="none" style="stroke:rgb(0,0,0);stroke-width:4" />
  <path d="M326.36 455.107 C 325.142 447.489, 322.736 433.444, 321.671 427.817" fill="none" style="stroke:rgb(0,0,0);stroke-width:4" />
  <path d="M321.671 427.817 C 320.606 422.19, 318.4 411.787, 317.137 406.211" fill="none" style="stroke:rgb(0,0,0);stroke-width:4" />
  <path d="M310.332 368.644 C 306.522 368.699, 299.349 368.921, 295.805 368.961" fill="none" style="stroke:rgb(0,0,0);stroke-width:1" />
  <path d="M295.805 368.961 C 292.26 369, 283.965 368.796, 279.396 368.681" fill="none" style="stroke:rgb(0,0,0);stroke-width:1" />
  <path d="M310.332 368.644 C 309.282 373.053, 307.368 381.178, 308.122 385.48" fill="none" style="stroke:rgb(0,0,0);stroke-width:1" />
  <path d="M308.122 385.48 C 308.876 389.782, 314.193 400.44, 317.137 406.211" fill="none" style="stroke:rgb(0,0,0);stroke-width:1" />
  <path d="M310.332 368.644 C 310.715 397.668, 320.5 394.845, 310.332 368.644" fill="none" style="stroke:rgb(0,0,0);stroke-width:1" />
  <path d="M317.137 406.211 C 317.771 400.005, 318.972 388.75, 318.217 384.412" fill="none" style="stroke:rgb(0,0,0);stroke-width:1" />
  <path d="M318.217 384.412 C 317.462 380.075, 312.859 372.546, 310.332 368.644" fill="none" style="stroke:rgb(0,0,0);stroke-width:1" />
  <path d="M317.137 406.211 C 310.601 401.947, 298.726 394.101, 294.438 389.807" fill="none" style="stroke:rgb(0,0,0);stroke-width:4" />
  <path d="M294.438 389.807 C 290.15 385.514, 283.153 374.595, 279.396 368.681" fill="none" style="stroke:rgb(0,0,0);stroke-width:4" />
  <path d="M317.137 406.211 C 309.796 407.656, 296.379 410.363, 289.352 410.668" fill="none" style="stroke:rgb(0,0,0);stroke-width:1" />
  <path d="M289.352 410.668 C 282.324 410.972, 265.169 409.724, 255.993 409.128" fill="none" style="stroke:rgb(0,0,0);stroke-width:1" />
  <path d="M280.131 314.653 C 279.768 321.538, 279.058 334.592, 278.978 340.809" fill="none" style="stroke:rgb(0,0,0);stroke-width:4" />
  <path d="M278.978 340.809 C 278.897 347.026, 279.241 360.986, 279.396 368.681" fill="none" style="stroke:rgb(0,0,0);stroke-width:4" />
  <path d="M243.931 292.09 C 240.609 295.605, 234.291 302.28, 231.606 305.288" fill="none" style="stroke:rgb(0,0,0);stroke-width:1" />
  <path d="M231.606 305.288 C 228.921 308.296, 223.663 314.828, 220.78 318.505" fill="none" style="stroke:rgb(0,0,0);stroke-width:1" />
  <path d="M243.931 292.09 C 245.272 298.209, 247.791 309.622, 248.306 314.788" fill="none" style="stroke:rgb(0,0,0);stroke-width:1" />
  <path d="M248.306 314.788 C 248.821 319.953, 248.547 331.143, 248.423 337.294" fill="none" style="stroke:rgb(0,0,0);stroke-width:1" />
  <path d="M279.396 368.681 C 274.616 368.953, 265.714 369.47, 261.645 369.438" fill="none" style="stroke:rgb(0,0,0);stroke-width:1" />
  <path d="M261.645 369.438 C 257.575 369.406, 248.758 368.929, 243.959 368.76" fill="none" style="stroke:rgb(0,0,0);stroke-width:1" />
  <path d="M279.396 368.681 C 277.624 374.686, 274.285 385.976, 271.55 390.622" fill="none" style="stroke:rgb(0,0,0);stroke-width:1" />
  <path d="M271.55 390.622 C 268.814 395.268, 260.452 404.202, 255.993 409.128" fill="none" style="stroke:rgb(0,0,0);stroke-width:1" />
  <path d="M280.131 314.653 C 276.013 318.068, 268.129 324.458, 264.503 327.052" fill="none" style="stroke:rgb(0,0,0);stroke-width:1" />
  <path d="M264.503 327.052 C 260.878 329.646, 252.909 334.576, 248.423 337.294" fill="none" style="stroke:rgb(0,0,0);stroke-width:1" />
  <path d="M248.423 337.294 C 252.852 340.698, 261.038 347.16, 264.573 350.777" fill="none" style="stroke:rgb(0,0,0);stroke-width:4" />
  <path d="M264.573 350.777 C 268.108 354.395, 275.408 363.627, 279.396 368.681" fill="none" style="stroke:rgb(0,0,0);stroke-width:4" />
  <path d="M220.78 318.505 C 218.223 322.523, 213.302 330.198, 211.043 334.42" fill="none" style="stroke:rgb(0,0,0);stroke-width:1" />
  <path d="M211.043 334.42 C 208.784 338.643, 203.662 349.034, 200.695 354.636" fill="none" style="stroke:rgb(0,0,0);stroke-width:1" />
  <path d="M220.78 318.505 C 222.858 322.493, 226.774 329.932, 229.94 332.041" fill="none" style="stroke:rgb(0,0,0);stroke-width:1" />
  <path d="M229.94 332.041 C 233.106 334.149, 243.012 336.104, 248.423 337.294" fill="none" style="stroke:rgb(0,0,0);stroke-width:1" />
  <path d="M220.78 318.505 C 238.227 337.111, 244.207 328.423, 220.78 318.505" fill="none" style="stroke:rgb(0,0,0);stroke-width:1" />
  <path d="M248.423 337.294 C 245.381 332.912, 239.664 324.929, 236.522 322.776" fill="none" style="stroke:rgb(0,0,0);stroke-width:1" />
  <path d="M236.522 322.776 C 233.38 320.624, 225.275 319.213, 220.78 318.505" fill="none" style="stroke:rgb(0,0,0);stroke-width:1" />
  <path d="M248.423 337.294 C 242.199 339.788, 230.387 344.484, 224.851 346.455" fill="none" style="stroke:rgb(0,0,0);stroke-width:4" />
  <path d="M224.851 346.455 C 219.315 348.425, 207.263 352.4, 200.695 354.636" fill="none" style="stroke:rgb(0,0,0);stroke-width:4" />
  <path d="M248.423 337.294 C 247.373 341.703, 245.333 350.118, 244.791 353.709" fill="none" style="stroke:rgb(0,0,0);stroke-width:1" />
  <path d="M244.791 353.709 C 244.249 357.299, 244.057 364.617, 243.959 368.76" fill="none" style="stroke:rgb(0,0,0);stroke-width:1" />
  <path d="M200.695 354.636 C 206.484 362.989, 217.01 378.339, 223.281 384.552" fill="none" style="stroke:rgb(0,0,0);stroke-width:4" />
  <path d="M223.281 384.552 C 229.552 390.765, 246.675 402.66, 255.993 409.128" fill="none" style="stroke:rgb(0,0,0);stroke-width:4" />
  <path d="M200.695 354.636 C 207.33 357.09, 219.474 361.709, 224.45 363.387" fill="none" style="stroke:rgb(0,0,0);stroke-width:1" />
  <path d="M224.45 363.387 C 229.425 365.065, 238.913 367.508, 243.959 368.76" fill="none" style="stroke:rgb(0,0,0);stroke-width:1" />
  <path d="M243.959 368.76 C 242.734 372.762, 240.675 380.37, 242.096 385.03" fill="none" style="stroke:rgb(0,0,0);stroke-width:1" />
  <path d="M242.096 385.03 C 243.517 389.69, 251.593 402.266, 255.993 409.128" fill="none" style="stroke:rgb(0,0,0);stroke-width:1" />
  <path d="M243.959 368.76 C 246.772 400.239, 257.853 395.702, 243.959 368.76" fill="none" style="stroke:rgb(0,0,0);stroke-width:1" />
  <path d="M255.993 409.128 C 256.032 402.841, 256.259 391.302, 254.898 386.646" fill="none" style="stroke:rgb(0,0,0);stroke-width:1" />
  <path d="M254.898 386.646 C 253.537 381.991, 247.293 373.346, 243.959 368.76" fill="none" style="stroke:rgb(0,0,0);stroke-width:1" />
  <ellipse cx="396.872" cy="245.969" rx="1.32482" ry="1.32482"  style="fill:rgb(0,0,0)" />
  <ellipse cx="353.717" cy="231.334" rx="1.32482" ry="1.32482"  style="fill:rgb(0,0,0)" />
  <ellipse cx="342.586" cy="191.303" rx="1.32482" ry="1.32482"  style="fill:rgb(0,0,0)" />
  <ellipse cx="376.763" cy="281.728" rx="1.32482" ry="1.32482"  style="fill:rgb(0,0,0)" />
  <ellipse cx="349.338" cy="262.834" rx="1.32482" ry="1.32482"  style="fill:rgb(0,0,0)" />
  <ellipse cx="318.679" cy="231.823" rx="1.32482" ry="1.32482"  style="fill:rgb(0,0,0)" />
  <ellipse cx="271.896" cy="145.216" rx="1.32482" ry="1.32482"  style="fill:rgb(0,0,0)" />
  <ellipse cx="353.02" cy="307.879" rx="1.32482" ry="1.32482"  style="fill:rgb(0,0,0)" />
  <ellipse cx="317.608" cy="285.543" rx="1.32482" ry="1.32482"  style="fill:rgb(0,0,0)" />
  <ellipse cx="98.8094" cy="232.327" rx="1.32482" ry="1.32482"  style="fill:rgb(0,0,0)" />
  <ellipse cx="376.657" cy="77.7262" rx="1.32482" ry="1.32482"  style="fill:rgb(0,0,0)" />
  <ellipse cx="413.898" cy="195.3" rx="1.32482" ry="1.32482"  style="fill:rgb(0,0,0)" />
  <ellipse cx="499.187" cy="369.801" rx="1.32482" ry="1.32482"  style="fill:rgb(0,0,0)" />
  <ellipse cx="376.449" cy="380.575" rx="1.32482" ry="1.32482"  style="fill:rgb(0,0,0)" />
  <ellipse cx="340.976" cy="360.715" rx="1.32482" ry="1.32482"  style="fill:rgb(0,0,0)" />
  <ellipse cx="288.078" cy="231.557" rx="1.32482" ry="1.32482"  style="fill:rgb(0,0,0)" />
  <ellipse cx="281.407" cy="193.74" rx="1.32482" ry="1.32482"  style="fill:rgb(0,0,0)" />
  <ellipse cx="221.806" cy="219.506" rx="1.32482" ry="1.32482"  style="fill:rgb(0,0,0)" />
  <ellipse cx="177.798" cy="216.491" rx="1.32482" ry="1.32482"  style="fill:rgb(0,0,0)" />
  <ellipse cx="159.072" cy="291.392" rx="1.32482" ry="1.32482"  style="fill:rgb(0,0,0)" />
  <ellipse cx="326.36" cy="455.107" rx="1.32482" ry="1.32482"  style="fill:rgb(0,0,0)" />
  <ellipse cx="420.006" cy="384.482" rx="1.32482" ry="1.32482"  style="fill:rgb(0,0,0)" />
  <ellipse cx="438.461" cy="309.226" rx="1.32482" ry="1.32482"  style="fill:rgb(0,0,0)" />
  <ellipse cx="367.747" cy="341.765" rx="1.32482" ry="1.32482"  style="fill:rgb(0,0,0)" />
  <ellipse cx="397.635" cy="310.823" rx="1.32482" ry="1.32482"  style="fill:rgb(0,0,0)" />
  <ellipse cx="329.414" cy="320.851" rx="1.32482" ry="1.32482"  style="fill:rgb(0,0,0)" />
  <ellipse cx="305.239" cy="334.773" rx="1.32482" ry="1.32482"  style="fill:rgb(0,0,0)" />
  <ellipse cx="280.131" cy="314.653" rx="1.32482" ry="1.32482"  style="fill:rgb(0,0,0)" />
  <ellipse cx="257.32" cy="239.355" rx="1.32482" ry="1.32482"  style="fill:rgb(0,0,0)" />
  <ellipse cx="222.074" cy="522.066" rx="1.32482" ry="1.32482"  style="fill:rgb(0,0,0)" />
  <ellipse cx="184.303" cy="405.128" rx="1.32482" ry="1.32482"  style="fill:rgb(0,0,0)" />
  <ellipse cx="243.931" cy="292.09" rx="1.32482" ry="1.32482"  style="fill:rgb(0,0,0)" />
  <ellipse cx="268.067" cy="278.952" rx="1.32482" ry="1.32482"  style="fill:rgb(0,0,0)" />
  <ellipse cx="292.793" cy="265.518" rx="1.32482" ry="1.32482"  style="fill:rgb(0,0,0)" />
  <ellipse cx="229.823" cy="258.411" rx="1.32482" ry="1.32482"  style="fill:rgb(0,0,0)" />
  <ellipse cx="199.707" cy="289.373" rx="1.32482" ry="1.32482"  style="fill:rgb(0,0,0)" />
  <ellipse cx="200.695" cy="354.636" rx="1.32482" ry="1.32482"  style="fill:rgb(0,0,0)" />
  <ellipse cx="310.332" cy="368.644" rx="1.32482" ry="1.32482"  style="fill:rgb(0,0,0)" />
  <ellipse cx="317.137" cy="406.211" rx="1.32482" ry="1.32482"  style="fill:rgb(0,0,0)" />
  <ellipse cx="279.396" cy="368.681" rx="1.32482" ry="1.32482"  style="fill:rgb(0,0,0)" />
  <ellipse cx="220.78" cy="318.505" rx="1.32482" ry="1.32482"  style="fill:rgb(0,0,0)" />
  <ellipse cx="248.423" cy="337.294" rx="1.32482" ry="1.32482"  style="fill:rgb(0,0,0)" />
  <ellipse cx="243.959" cy="368.76" rx="1.32482" ry="1.32482"  style="fill:rgb(0,0,0)" />
  <ellipse cx="255.993" cy="409.128" rx="1.32482" ry="1.32482"  style="fill:rgb(0,0,0)" />
</svg>
