<svg height="600" width="600">
  <line x1="372.944" y1="89.0064" x2="267.24" y2="3.58541" style="stroke:rgb(0,0,0);stroke-width:1" />
  <line x1="267.24" y1="3.58541" x2="301.027" y2="5.68434e-14" style="stroke:rgb(0,0,0);stroke-width:1" />
  <line x1="267.24" y1="3.58541" x2="270.826" y2="37.3717" style="stroke:rgb(0,0,0);stroke-width:1" />
  <line x1="372.944" y1="89.0064" x2="515.553" y2="91.5175" style="stroke:rgb(0,0,0);stroke-width:4" />
  <line x1="515.553" y1="91.5175" x2="489.899" y2="116.284" style="stroke:rgb(0,0,0);stroke-width:4" />
  <line x1="515.553" y1="91.5175" x2="490.787" y2="65.8636" style="stroke:rgb(0,0,0);stroke-width:4" />
  <line x1="519.574" y1="257.999" x2="540.002" y2="122.833" style="stroke:rgb(0,0,0);stroke-width:1" />
  <line x1="540.002" y1="122.833" x2="560.285" y2="150.338" style="stroke:rgb(0,0,0);stroke-width:1" />
  <line x1="540.002" y1="122.833" x2="512.497" y2="143.116" style="stroke:rgb(0,0,0);stroke-width:1" />
  <line x1="519.574" y1="257.999" x2="588.007" y2="381.844" style="stroke:rgb(0,0,0);stroke-width:4" />
  <line x1="588.007" y1="381.844" x2="554.016" y2="372.048" style="stroke:rgb(0,0,0);stroke-width:4" />
  <line x1="588.007" y1="381.844" x2="597.802" y2="347.854" style="stroke:rgb(0,0,0);stroke-width:4" />
  <line x1="446.233" y1="468.789" x2="573.415" y2="419.366" style="stroke:rgb(0,0,0);stroke-width:1" />
  <line x1="573.415" y1="419.366" x2="559.669" y2="450.586" style="stroke:rgb(0,0,0);stroke-width:1" />
  <line x1="573.415" y1="419.366" x2="542.195" y2="405.62" style="stroke:rgb(0,0,0);stroke-width:1" />
  <line x1="446.233" y1="468.789" x2="373.107" y2="590.445" style="stroke:rgb(0,0,0);stroke-width:4" />
  <line x1="373.107" y1="590.445" x2="364.528" y2="556.012" style="stroke:rgb(0,0,0);stroke-width:4" />
  <line x1="373.107" y1="590.445" x2="407.54" y2="581.866" style="stroke:rgb(0,0,0);stroke-width:4" />
  <line x1="227.055" y1="510.919" x2="333.274" y2="596.32" style="stroke:rgb(0,0,0);stroke-width:1" />
  <line x1="333.274" y1="596.32" x2="299.4" y2="600" style="stroke:rgb(0,0,0);stroke-width:1" />
  <line x1="333.274" y1="596.32" x2="329.594" y2="562.446" style="stroke:rgb(0,0,0);stroke-width:1" />
  <line x1="227.055" y1="510.919" x2="84.9616" y2="508.388" style="stroke:rgb(0,0,0);stroke-width:4" />
  <line x1="84.9616" y1="508.388" x2="110.528" y2="483.716" style="stroke:rgb(0,0,0);stroke-width:4" />
  <line x1="84.9616" y1="508.388" x2="109.633" y2="533.954" style="stroke:rgb(0,0,0);stroke-width:4" />
  <line x1="80.9497" y1="342.156" x2="59.9884" y2="476.843" style="stroke:rgb(0,0,0);stroke-width:1" />
  <line x1="59.9884" y1="476.843" x2="39.8843" y2="449.328" style="stroke:rgb(0,0,0);stroke-width:1" />
  <line x1="59.9884" y1="476.843" x2="87.5035" y2="456.739" style="stroke:rgb(0,0,0);stroke-width:1" />
  <line x1="80.9497" y1="342.156" x2="11.9835" y2="217.832" style="stroke:rgb(0,0,0);stroke-width:4" />
  <line x1="11.9835" y1="217.832" x2="46.1527" y2="227.618" style="stroke:rgb(0,0,0);stroke-width:4" />
  <line x1="11.9835" y1="217.832" x2="2.19765" y2="252.001" style="stroke:rgb(0,0,0);stroke-width:4" />
  <line x1="153.946" y1="131.346" x2="26.919" y2="180.33" style="stroke:rgb(0,0,0);stroke-width:1" />
  <line x1="26.919" y1="180.33" x2="40.7153" y2="149.215" style="stroke:rgb(0,0,0);stroke-width:1" />
  <line x1="26.919" y1="180.33" x2="58.0337" y2="194.126" style="stroke:rgb(0,0,0);stroke-width:1" />
  <line x1="153.946" y1="131.346" x2="227.227" y2="9.25084" style="stroke:rgb(0,0,0);stroke-width:4" />
  <line x1="227.227" y1="9.25084" x2="235.856" y2="43.7886" style="stroke:rgb(0,0,0);stroke-width:4" />
  <line x1="227.227" y1="9.25084" x2="192.689" y2="17.8801" style="stroke:rgb(0,0,0);stroke-width:4" />
  <path d="M519.574 257.999 C 599.833 384.165, 561.639 115.085, 519.574 257.999" fill="none" style="stroke:rgb(0,0,0);stroke-width:1" />
  <path d="M372.944 89.0064 C 391.259 111.848, 424.518 153.731, 441.281 173.226" fill="none" style="stroke:rgb(0,0,0);stroke-width:1" />
  <path d="M441.281 173.226 C 458.044 192.721, 498.1 235.333, 519.574 257.999" fill="none" style="stroke:rgb(0,0,0);stroke-width:1" />
  <path d="M372.944 89.0064 C 408.066 104.66, 462.553 131.869, 476.606 148.085" fill="none" style="stroke:rgb(0,0,0);stroke-width:4" />
  <path d="M476.606 148.085 C 490.658 164.301, 509.486 221.588, 519.574 257.999" fill="none" style="stroke:rgb(0,0,0);stroke-width:4" />
  <path d="M446.233 468.789 C 376.897 603.014, 592.075 432.513, 446.233 468.789" fill="none" style="stroke:rgb(0,0,0);stroke-width:1" />
  <path d="M519.574 257.999 C 508.857 285.166, 488.989 334.769, 480.449 358.95" fill="none" style="stroke:rgb(0,0,0);stroke-width:1" />
  <path d="M480.449 358.95 C 471.91 383.13, 455.108 438.922, 446.233 468.789" fill="none" style="stroke:rgb(0,0,0);stroke-width:1" />
  <path d="M519.574 257.999 C 523.481 296.233, 527.013 356.873, 519.944 377.069" fill="none" style="stroke:rgb(0,0,0);stroke-width:4" />
  <path d="M519.944 377.069 C 512.875 397.265, 472.673 442.02, 446.233 468.789" fill="none" style="stroke:rgb(0,0,0);stroke-width:4" />
  <path d="M519.574 257.999 C 462.13 136.479, 429.693 156.228, 519.574 257.999" fill="none" style="stroke:rgb(0,0,0);stroke-width:1" />
  <path d="M394.44 220.061 C 409.519 223.739, 437.731 230.828, 452.113 235.345" fill="none" style="stroke:rgb(0,0,0);stroke-width:4" />
  <path d="M452.113 235.345 C 466.495 239.862, 500.85 251.742, 519.574 257.999" fill="none" style="stroke:rgb(0,0,0);stroke-width:4" />
  <path d="M372.944 89.0064 C 377.05 108.778, 384.776 145.432, 387.305 160.496" fill="none" style="stroke:rgb(0,0,0);stroke-width:4" />
  <path d="M387.305 160.496 C 389.833 175.56, 392.855 204.432, 394.44 220.061" fill="none" style="stroke:rgb(0,0,0);stroke-width:4" />
  <path d="M372.944 89.0064 C 524.016 83.6743, 270.389 -20.6229, 372.944 89.0064" fill="none" style="stroke:rgb(0,0,0);stroke-width:1" />
  <path d="M153.946 131.346 C 182.81 127.057, 235.689 119.347, 260.864 114.612" fill="none" style="stroke:rgb(0,0,0);stroke-width:1" />
  <path d="M260.864 114.612 C 286.039 109.878, 342.659 96.4174, 372.944 89.0064" fill="none" style="stroke:rgb(0,0,0);stroke-width:1" />
  <path d="M153.946 131.346 C 185.019 108.76, 235.562 75.3563, 256.62 71.3219" fill="none" style="stroke:rgb(0,0,0);stroke-width:4" />
  <path d="M256.62 71.3219 C 277.678 67.2875, 336.634 79.5213, 372.944 89.0064" fill="none" style="stroke:rgb(0,0,0);stroke-width:4" />
  <path d="M227.055 510.919 C 75.9994 516.633, 330.731 620.189, 227.055 510.919" fill="none" style="stroke:rgb(0,0,0);stroke-width:1" />
  <path d="M446.233 468.789 C 417.51 473.049, 364.644 480.858, 339.38 485.615" fill="none" style="stroke:rgb(0,0,0);stroke-width:1" />
  <path d="M339.38 485.615 C 314.117 490.372, 257.394 503.628, 227.055 510.919" fill="none" style="stroke:rgb(0,0,0);stroke-width:1" />
  <path d="M446.233 468.789 C 415.257 491.203, 364.625 524.508, 343.489 528.569" fill="none" style="stroke:rgb(0,0,0);stroke-width:4" />
  <path d="M343.489 528.569 C 322.353 532.631, 263.395 520.391, 227.055 510.919" fill="none" style="stroke:rgb(0,0,0);stroke-width:4" />
  <path d="M446.233 468.789 C 523.978 357.037, 490.216 339.571, 446.233 468.789" fill="none" style="stroke:rgb(0,0,0);stroke-width:1" />
  <path d="M416.695 341.402 C 420.985 356.344, 428.883 384.103, 432.207 398.809" fill="none" style="stroke:rgb(0,0,0);stroke-width:4" />
  <path d="M432.207 398.809 C 435.53 413.514, 442.402 449.447, 446.233 468.789" fill="none" style="stroke:rgb(0,0,0);stroke-width:4" />
  <path d="M519.574 257.999 C 504.445 271.462, 476.773 296.274, 464.969 305.934" fill="none" style="stroke:rgb(0,0,0);stroke-width:4" />
  <path d="M464.969 305.934 C 453.166 315.595, 429.398 332.485, 416.695 341.402" fill="none" style="stroke:rgb(0,0,0);stroke-width:4" />
  <path d="M394.44 220.061 C 393.378 237.641, 391.548 270.011, 394.138 283.772" fill="none" style="stroke:rgb(0,0,0);stroke-width:4" />
  <path d="M394.138 283.772 C 396.727 297.532, 409.684 325.833, 416.695 341.402" fill="none" style="stroke:rgb(0,0,0);stroke-width:4" />
  <path d="M394.44 220.061 C 398.25 294.634, 422.962 289.396, 394.44 220.061" fill="none" style="stroke:rgb(0,0,0);stroke-width:1" />
  <path d="M394.44 220.061 C 403.82 235.569, 421.07 264.108, 423.584 277.85" fill="none" style="stroke:rgb(0,0,0);stroke-width:1" />
  <path d="M423.584 277.85 C 426.099 291.593, 419.977 323.723, 416.695 341.402" fill="none" style="stroke:rgb(0,0,0);stroke-width:1" />
  <path d="M277.527 178.908 C 292.233 188.725, 319.289 206.732, 332.533 211.352" fill="none" style="stroke:rgb(0,0,0);stroke-width:4" />
  <path d="M332.533 211.352 C 345.777 215.971, 377.178 218.541, 394.44 220.061" fill="none" style="stroke:rgb(0,0,0);stroke-width:4" />
  <path d="M277.527 178.908 C 344.71 213.157, 351.712 189.046, 277.527 178.908" fill="none" style="stroke:rgb(0,0,0);stroke-width:1" />
  <path d="M277.527 178.908 C 295.589 178.534, 329.076 177.935, 342.341 182.634" fill="none" style="stroke:rgb(0,0,0);stroke-width:1" />
  <path d="M342.341 182.634 C 355.607 187.333, 380.577 208.51, 394.44 220.061" fill="none" style="stroke:rgb(0,0,0);stroke-width:1" />
  <path d="M372.944 89.0064 C 358.192 102.11, 330.524 126.136, 319.44 136.427" fill="none" style="stroke:rgb(0,0,0);stroke-width:4" />
  <path d="M319.44 136.427 C 308.356 146.717, 288.315 167.642, 277.527 178.908" fill="none" style="stroke:rgb(0,0,0);stroke-width:4" />
  <path d="M372.944 89.0064 C 238.414 78.5656, 238.983 114.801, 372.944 89.0064" fill="none" style="stroke:rgb(0,0,0);stroke-width:1" />
  <path d="M153.946 131.346 C 172.916 137.833, 208.081 149.827, 222.301 155.246" fill="none" style="stroke:rgb(0,0,0);stroke-width:4" />
  <path d="M222.301 155.246 C 236.522 160.665, 263.146 172.452, 277.527 178.908" fill="none" style="stroke:rgb(0,0,0);stroke-width:4" />
  <path d="M153.946 131.346 C 224.764 -2.35129, 7.35886 165.799, 153.946 131.346" fill="none" style="stroke:rgb(0,0,0);stroke-width:1" />
  <path d="M80.9497 342.156 C 91.7339 315.142, 111.584 265.435, 120.07 241.222" fill="none" style="stroke:rgb(0,0,0);stroke-width:1" />
  <path d="M120.07 241.222 C 128.557 217.01, 145.205 161.311, 153.946 131.346" fill="none" style="stroke:rgb(0,0,0);stroke-width:1" />
  <path d="M80.9497 342.156 C 76.9992 304.103, 73.5387 243.689, 80.5616 223.381" fill="none" style="stroke:rgb(0,0,0);stroke-width:4" />
  <path d="M80.5616 223.381 C 87.5846 203.073, 127.543 158.083, 153.946 131.346" fill="none" style="stroke:rgb(0,0,0);stroke-width:4" />
  <path d="M80.9497 342.156 C -0.654275 215.097, 38.903 486.227, 80.9497 342.156" fill="none" style="stroke:rgb(0,0,0);stroke-width:1" />
  <path d="M227.055 510.919 C 208.9 488.153, 175.892 446.391, 159.17 426.941" fill="none" style="stroke:rgb(0,0,0);stroke-width:1" />
  <path d="M159.17 426.941 C 142.449 407.491, 102.404 364.871, 80.9497 342.156" fill="none" style="stroke:rgb(0,0,0);stroke-width:1" />
  <path d="M227.055 510.919 C 192.022 495.262, 137.771 468.016, 123.751 451.822" fill="none" style="stroke:rgb(0,0,0);stroke-width:4" />
  <path d="M123.751 451.822 C 109.731 435.629, 90.9296 378.494, 80.9497 342.156" fill="none" style="stroke:rgb(0,0,0);stroke-width:4" />
  <path d="M227.055 510.919 C 360.93 522.841, 360.624 483.215, 227.055 510.919" fill="none" style="stroke:rgb(0,0,0);stroke-width:1" />
  <path d="M322.959 421.549 C 312.189 432.738, 292.062 453.569, 280.933 463.816" fill="none" style="stroke:rgb(0,0,0);stroke-width:4" />
  <path d="M280.933 463.816 C 269.805 474.064, 241.98 497.918, 227.055 510.919" fill="none" style="stroke:rgb(0,0,0);stroke-width:4" />
  <path d="M446.233 468.789 C 427.224 462.348, 392.148 450.604, 377.889 445.236" fill="none" style="stroke:rgb(0,0,0);stroke-width:4" />
  <path d="M377.889 445.236 C 363.631 439.867, 337.07 427.991, 322.959 421.549" fill="none" style="stroke:rgb(0,0,0);stroke-width:4" />
  <path d="M416.695 341.402 C 400.943 349.221, 371.846 363.648, 361.212 372.755" fill="none" style="stroke:rgb(0,0,0);stroke-width:4" />
  <path d="M361.212 372.755 C 350.578 381.862, 332.807 407.509, 322.959 421.549" fill="none" style="stroke:rgb(0,0,0);stroke-width:4" />
  <path d="M416.695 341.402 C 353.781 381.917, 370.427 400.514, 416.695 341.402" fill="none" style="stroke:rgb(0,0,0);stroke-width:1" />
  <path d="M416.695 341.402 C 407.889 357.295, 391.763 386.371, 381.146 395.399" fill="none" style="stroke:rgb(0,0,0);stroke-width:1" />
  <path d="M381.146 395.399 C 370.529 404.427, 339.787 415.424, 322.959 421.549" fill="none" style="stroke:rgb(0,0,0);stroke-width:1" />
  <path d="M300.479 300.37 C 314.774 310.11, 340.661 328.052, 353.773 332.762" fill="none" style="stroke:rgb(0,0,0);stroke-width:1" />
  <path d="M353.773 332.762 C 366.886 337.473, 399.107 340.047, 416.695 341.402" fill="none" style="stroke:rgb(0,0,0);stroke-width:1" />
  <path d="M300.479 300.37 C 317.802 301.594, 349.329 303.869, 362.431 308.497" fill="none" style="stroke:rgb(0,0,0);stroke-width:4" />
  <path d="M362.431 308.497 C 375.532 313.126, 402.112 331.367, 416.695 341.402" fill="none" style="stroke:rgb(0,0,0);stroke-width:4" />
  <path d="M394.44 220.061 C 378.536 227.718, 349.195 241.986, 338.579 251.136" fill="none" style="stroke:rgb(0,0,0);stroke-width:4" />
  <path d="M338.579 251.136 C 327.963 260.286, 310.324 286.173, 300.479 300.37" fill="none" style="stroke:rgb(0,0,0);stroke-width:4" />
  <path d="M394.44 220.061 C 331.228 260.775, 345.594 274.941, 394.44 220.061" fill="none" style="stroke:rgb(0,0,0);stroke-width:1" />
  <path d="M394.44 220.061 C 384.489 234.511, 366.242 261.298, 355.624 270.395" fill="none" style="stroke:rgb(0,0,0);stroke-width:1" />
  <path d="M355.624 270.395 C 345.005 279.492, 316.272 292.859, 300.479 300.37" fill="none" style="stroke:rgb(0,0,0);stroke-width:1" />
  <path d="M277.527 178.908 C 276.196 196.63, 273.956 229.076, 276.607 242.755" fill="none" style="stroke:rgb(0,0,0);stroke-width:4" />
  <path d="M276.607 242.755 C 279.258 256.434, 292.975 284.719, 300.479 300.37" fill="none" style="stroke:rgb(0,0,0);stroke-width:4" />
  <path d="M277.527 178.908 C 280.773 252.674, 301.415 249.167, 277.527 178.908" fill="none" style="stroke:rgb(0,0,0);stroke-width:1" />
  <path d="M277.527 178.908 C 285.178 194.802, 299.336 224.121, 301.91 237.862" fill="none" style="stroke:rgb(0,0,0);stroke-width:1" />
  <path d="M301.91 237.862 C 304.484 251.602, 301.803 283.015, 300.479 300.37" fill="none" style="stroke:rgb(0,0,0);stroke-width:1" />
  <path d="M183.821 259.625 C 199.559 251.608, 228.615 236.712, 239.239 227.551" fill="none" style="stroke:rgb(0,0,0);stroke-width:4" />
  <path d="M239.239 227.551 C 249.863 218.39, 267.66 192.927, 277.527 178.908" fill="none" style="stroke:rgb(0,0,0);stroke-width:4" />
  <path d="M183.821 259.625 C 246.622 217.817, 229.785 199.772, 183.821 259.625" fill="none" style="stroke:rgb(0,0,0);stroke-width:1" />
  <path d="M183.821 259.625 C 192.471 243.65, 208.394 214.426, 219.027 205.33" fill="none" style="stroke:rgb(0,0,0);stroke-width:1" />
  <path d="M219.027 205.33 C 229.659 196.234, 260.588 185.099, 277.527 178.908" fill="none" style="stroke:rgb(0,0,0);stroke-width:1" />
  <path d="M153.946 131.346 C 157.759 150.845, 164.626 187.021, 168.003 201.772" fill="none" style="stroke:rgb(0,0,0);stroke-width:4" />
  <path d="M168.003 201.772 C 171.381 216.524, 179.452 244.487, 183.821 259.625" fill="none" style="stroke:rgb(0,0,0);stroke-width:4" />
  <path d="M153.946 131.346 C 77.4716 241.695, 110.5 260.146, 153.946 131.346" fill="none" style="stroke:rgb(0,0,0);stroke-width:1" />
  <path d="M80.9497 342.156 C 96.0501 329.152, 123.86 304.766, 135.669 295.19" fill="none" style="stroke:rgb(0,0,0);stroke-width:4" />
  <path d="M135.669 295.19 C 147.478 285.614, 171.104 268.735, 183.821 259.625" fill="none" style="stroke:rgb(0,0,0);stroke-width:4" />
  <path d="M80.9497 342.156 C 138.076 463.634, 171.139 445.324, 80.9497 342.156" fill="none" style="stroke:rgb(0,0,0);stroke-width:1" />
  <path d="M206.62 380.706 C 191.412 376.929, 163.298 369.832, 148.857 365.321" fill="none" style="stroke:rgb(0,0,0);stroke-width:4" />
  <path d="M148.857 365.321 C 134.415 360.81, 99.6948 348.631, 80.9497 342.156" fill="none" style="stroke:rgb(0,0,0);stroke-width:4" />
  <path d="M227.055 510.919 C 223.19 491.312, 215.886 454.993, 213.451 440.008" fill="none" style="stroke:rgb(0,0,0);stroke-width:4" />
  <path d="M213.451 440.008 C 211.016 425.022, 208.102 396.234, 206.62 380.706" fill="none" style="stroke:rgb(0,0,0);stroke-width:4" />
  <path d="M322.959 421.549 C 308.265 411.794, 281.324 394.093, 268.128 389.507" fill="none" style="stroke:rgb(0,0,0);stroke-width:4" />
  <path d="M268.128 389.507 C 254.931 384.921, 223.703 382.2, 206.62 380.706" fill="none" style="stroke:rgb(0,0,0);stroke-width:4" />
  <path d="M322.959 421.549 C 255.456 387.384, 248.682 411.309, 322.959 421.549" fill="none" style="stroke:rgb(0,0,0);stroke-width:1" />
  <path d="M322.959 421.549 C 304.923 421.895, 271.626 422.647, 258.428 417.986" fill="none" style="stroke:rgb(0,0,0);stroke-width:1" />
  <path d="M258.428 417.986 C 245.229 413.325, 220.356 392.151, 206.62 380.706" fill="none" style="stroke:rgb(0,0,0);stroke-width:1" />
  <path d="M300.479 300.37 C 299.215 317.544, 296.6 348.938, 299.076 362.695" fill="none" style="stroke:rgb(0,0,0);stroke-width:1" />
  <path d="M299.076 362.695 C 301.552 376.451, 315.406 405.647, 322.959 421.549" fill="none" style="stroke:rgb(0,0,0);stroke-width:1" />
  <path d="M300.479 300.37 C 307.945 315.939, 321.591 344.318, 324.14 358.009" fill="none" style="stroke:rgb(0,0,0);stroke-width:4" />
  <path d="M324.14 358.009 C 326.69 371.699, 324.283 403.91, 322.959 421.549" fill="none" style="stroke:rgb(0,0,0);stroke-width:4" />
  <path d="M416.695 341.402 C 349.29 306.212, 343.393 326.949, 416.695 341.402" fill="none" style="stroke:rgb(0,0,0);stroke-width:1" />
  <path d="M183.821 259.625 C 198.503 269.607, 225.376 287.797, 238.523 292.354" fill="none" style="stroke:rgb(0,0,0);stroke-width:4" />
  <path d="M238.523 292.354 C 251.669 296.91, 283.124 299.092, 300.479 300.37" fill="none" style="stroke:rgb(0,0,0);stroke-width:4" />
  <path d="M183.821 259.625 C 250.32 293.5, 255.564 273.617, 183.821 259.625" fill="none" style="stroke:rgb(0,0,0);stroke-width:1" />
  <path d="M183.821 259.625 C 201.39 260.919, 233.825 263.424, 247.034 268.113" fill="none" style="stroke:rgb(0,0,0);stroke-width:1" />
  <path d="M247.034 268.113 C 260.243 272.802, 286.137 290.669, 300.479 300.37" fill="none" style="stroke:rgb(0,0,0);stroke-width:1" />
  <path d="M206.62 380.706 C 207.66 363.173, 209.664 330.899, 207.062 317.151" fill="none" style="stroke:rgb(0,0,0);stroke-width:4" />
  <path d="M207.062 317.151 C 204.46 303.404, 191.057 275.137, 183.821 259.625" fill="none" style="stroke:rgb(0,0,0);stroke-width:4" />
  <path d="M206.62 380.706 C 202.959 304.936, 176.81 310.594, 206.62 380.706" fill="none" style="stroke:rgb(0,0,0);stroke-width:1" />
  <path d="M206.62 380.706 C 197.165 365.189, 179.879 336.76, 177.296 323.022" fill="none" style="stroke:rgb(0,0,0);stroke-width:1" />
  <path d="M177.296 323.022 C 174.712 309.283, 180.599 277.171, 183.821 259.625" fill="none" style="stroke:rgb(0,0,0);stroke-width:1" />
  <path d="M300.479 300.37 C 284.869 307.813, 256.293 321.308, 245.605 330.384" fill="none" style="stroke:rgb(0,0,0);stroke-width:1" />
  <path d="M245.605 330.384 C 234.917 339.459, 216.563 366.132, 206.62 380.706" fill="none" style="stroke:rgb(0,0,0);stroke-width:1" />
  <path d="M300.479 300.37 C 290.694 314.664, 273.024 340.812, 262.478 349.913" fill="none" style="stroke:rgb(0,0,0);stroke-width:4" />
  <path d="M262.478 349.913 C 251.932 359.013, 222.672 373.033, 206.62 380.706" fill="none" style="stroke:rgb(0,0,0);stroke-width:4" />
  <path d="M322.959 421.549 C 319.848 346.771, 298.878 351.016, 322.959 421.549" fill="none" style="stroke:rgb(0,0,0);stroke-width:1" />
  <path d="M206.62 380.706 C 269.043 340.2, 256.828 324.281, 206.62 380.706" fill="none" style="stroke:rgb(0,0,0);stroke-width:1" />
  <ellipse cx="519.574" cy="257.999" rx="1.27223" ry="1.27223"  style="fill:rgb(0,0,0)" />
  <ellipse cx="372.944" cy="89.0064" rx="1.27223" ry="1.27223"  style="fill:rgb(0,0,0)" />
  <ellipse cx="300.128" cy="299.958" rx="1.27223" ry="1.27223"  style="fill:rgb(0,0,0)" />
  <ellipse cx="446.233" cy="468.789" rx="1.27223" ry="1.27223"  style="fill:rgb(0,0,0)" />
  <ellipse cx="394.44" cy="220.061" rx="1.27223" ry="1.27223"  style="fill:rgb(0,0,0)" />
  <ellipse cx="153.946" cy="131.346" rx="1.27223" ry="1.27223"  style="fill:rgb(0,0,0)" />
  <ellipse cx="227.055" cy="510.919" rx="1.27223" ry="1.27223"  style="fill:rgb(0,0,0)" />
  <ellipse cx="416.695" cy="341.402" rx="1.27223" ry="1.27223"  style="fill:rgb(0,0,0)" />
  <ellipse cx="277.527" cy="178.908" rx="1.27223" ry="1.27223"  style="fill:rgb(0,0,0)" />
  <ellipse cx="80.9497" cy="342.156" rx="1.27223" ry="1.27223"  style="fill:rgb(0,0,0)" />
  <ellipse cx="322.959" cy="421.549" rx="1.27223" ry="1.27223"  style="fill:rgb(0,0,0)" />
  <ellipse cx="300.479" cy="300.37" rx="1.27223" ry="1.27223"  style="fill:rgb(0,0,0)" />
  <ellipse cx="183.821" cy="259.625" rx="1.27223" ry="1.27223"  style="fill:rgb(0,0,0)" />
  <ellipse cx="206.62" cy="380.706" rx="1.27223" ry="1.27223"  style="fill:rgb(0,0,0)" />
</svg>
