<svg height="600" width="600">
  <path d="M435.064 208.521 C 441.944 227.832, 454.818 263.293, 455.509 277.898" fill="none" style="stroke:rgb(0,0,0);stroke-width:4" />
  <path d="M455.509 277.898 C 456.2 292.503, 446.392 320.664, 441.198 335.765" fill="none" style="stroke:rgb(0,0,0);stroke-width:4" />
  <path d="M441.198 335.765 C 455.018 348.863, 480.188 374.41, 487.515 394.297" fill="none" style="stroke:rgb(0,0,0);stroke-width:4" />
  <path d="M487.515 394.297 C 494.841 414.183, 502.524 473.649, 506.902 505.791" fill="none" style="stroke:rgb(0,0,0);stroke-width:4" />
  <path d="M506.902 505.791 C 539.56 459.006, 596.566 356.08, 596.576 299.869" fill="none" style="stroke:rgb(0,0,0);stroke-width:4" />
  <path d="M596.576 299.869 C 596.586 243.658, 540.197 140.585, 508.137 93.7956" fill="none" style="stroke:rgb(0,0,0);stroke-width:4" />
  <path d="M508.137 93.7956 C 479.542 105.62, 426.298 126.948, 417.557 139.767" fill="none" style="stroke:rgb(0,0,0);stroke-width:4" />
  <path d="M417.557 139.767 C 408.816 152.587, 425.524 188.621, 435.064 208.521" fill="none" style="stroke:rgb(0,0,0);stroke-width:4" />
  <path d="M435.064 208.521 C 453.503 211.775, 487.213 216.572, 495.475 203.064" fill="none" style="stroke:rgb(0,0,0);stroke-width:1" />
  <path d="M495.475 203.064 C 503.737 189.556, 506.564 127.397, 508.137 93.7956" fill="none" style="stroke:rgb(0,0,0);stroke-width:1" />
  <path d="M508.137 93.7956 C 453.576 92.1141, 351.525 89.0969, 303.598 89.1932" fill="none" style="stroke:rgb(0,0,0);stroke-width:4" />
  <path d="M303.598 89.1932 C 255.671 89.2895, 151.549 92.6412, 95.7917 94.4647" fill="none" style="stroke:rgb(0,0,0);stroke-width:4" />
  <path d="M95.7917 94.4647 C 126.086 106.045, 182.068 127.238, 202.537 135.855" fill="none" style="stroke:rgb(0,0,0);stroke-width:4" />
  <path d="M202.537 135.855 C 223.007 144.471, 255.486 161.146, 272.713 170.2" fill="none" style="stroke:rgb(0,0,0);stroke-width:4" />
  <path d="M272.713 170.2 C 299.709 183.333, 349.058 207.428, 367.491 211.851" fill="none" style="stroke:rgb(0,0,0);stroke-width:4" />
  <path d="M367.491 211.851 C 385.923 216.273, 417.749 211.338, 435.064 208.521" fill="none" style="stroke:rgb(0,0,0);stroke-width:4" />
  <path d="M435.064 208.521 C 408.847 194.794, 359.928 169.265, 341.168 164.785" fill="none" style="stroke:rgb(0,0,0);stroke-width:1" />
  <path d="M341.168 164.785 C 322.409 160.304, 290.152 166.673, 272.713 170.2" fill="none" style="stroke:rgb(0,0,0);stroke-width:1" />
  <path d="M95.7917 94.4647 C 99.9999 126.616, 107.171 186.252, 114.359 206.214" fill="none" style="stroke:rgb(0,0,0);stroke-width:4" />
  <path d="M114.359 206.214 C 121.547 226.175, 146.661 251.836, 160.361 265.059" fill="none" style="stroke:rgb(0,0,0);stroke-width:4" />
  <path d="M160.361 265.059 C 176.134 259.3, 204.718 248.643, 217.939 246.208" fill="none" style="stroke:rgb(0,0,0);stroke-width:4" />
  <path d="M217.939 246.208 C 231.161 243.773, 260.853 244.14, 276.912 244.48" fill="none" style="stroke:rgb(0,0,0);stroke-width:4" />
  <path d="M276.912 244.48 C 290.898 240.107, 316.044 232.233, 315.457 223.766" fill="none" style="stroke:rgb(0,0,0);stroke-width:4" />
  <path d="M315.457 223.766 C 314.869 215.3, 287.623 186.034, 272.713 170.2" fill="none" style="stroke:rgb(0,0,0);stroke-width:4" />
  <path d="M272.713 170.2 C 260.039 176.768, 236.336 189.086, 236.736 197.617" fill="none" style="stroke:rgb(0,0,0);stroke-width:1" />
  <path d="M236.736 197.617 C 237.136 206.148, 262.938 230.971, 276.912 244.48" fill="none" style="stroke:rgb(0,0,0);stroke-width:1" />
  <path d="M324.893 356.573 C 340.985 356.938, 370.669 357.295, 383.827 354.878" fill="none" style="stroke:rgb(0,0,0);stroke-width:4" />
  <path d="M383.827 354.878 C 396.986 352.46, 425.454 341.7, 441.198 335.765" fill="none" style="stroke:rgb(0,0,0);stroke-width:4" />
  <path d="M441.198 335.765 C 412.368 325.028, 358.921 304.985, 339.931 294.428" fill="none" style="stroke:rgb(0,0,0);stroke-width:4" />
  <path d="M339.931 294.428 C 320.941 283.871, 292.246 258.271, 276.912 244.48" fill="none" style="stroke:rgb(0,0,0);stroke-width:4" />
  <path d="M160.361 265.059 C 178.449 282.199, 211.303 313.427, 229.877 323.831" fill="none" style="stroke:rgb(0,0,0);stroke-width:4" />
  <path d="M229.877 323.831 C 248.451 334.236, 297.863 348.764, 324.893 356.573" fill="none" style="stroke:rgb(0,0,0);stroke-width:4" />
  <path d="M324.893 356.573 C 309.451 342.832, 280.952 317.311, 262.119 306.724" fill="none" style="stroke:rgb(0,0,0);stroke-width:1" />
  <path d="M262.119 306.724 C 243.287 296.136, 189.521 275.9, 160.361 265.059" fill="none" style="stroke:rgb(0,0,0);stroke-width:1" />
  <path d="M329.156 430.626 C 314.29 414.919, 286.706 385.806, 286.023 377.36" fill="none" style="stroke:rgb(0,0,0);stroke-width:4" />
  <path d="M286.023 377.36 C 285.339 368.915, 310.792 361.001, 324.893 356.573" fill="none" style="stroke:rgb(0,0,0);stroke-width:4" />
  <path d="M160.361 265.059 C 155.048 279.997, 145.441 307.915, 146.209 322.494" fill="none" style="stroke:rgb(0,0,0);stroke-width:4" />
  <path d="M146.209 322.494 C 146.977 337.074, 159.708 372.466, 166.609 391.678" fill="none" style="stroke:rgb(0,0,0);stroke-width:4" />
  <path d="M166.609 391.678 C 193.019 405.5, 241.969 431.011, 260.719 435.486" fill="none" style="stroke:rgb(0,0,0);stroke-width:4" />
  <path d="M260.719 435.486 C 279.468 439.962, 311.791 433.925, 329.156 430.626" fill="none" style="stroke:rgb(0,0,0);stroke-width:4" />
  <path d="M329.156 430.626 C 302.056 417.379, 252.448 393.006, 233.976 388.541" fill="none" style="stroke:rgb(0,0,0);stroke-width:1" />
  <path d="M233.976 388.541 C 215.504 384.077, 183.839 388.977, 166.609 391.678" fill="none" style="stroke:rgb(0,0,0);stroke-width:1" />
  <path d="M506.902 505.791 C 476.606 494.216, 420.607 473.095, 400.015 464.587" fill="none" style="stroke:rgb(0,0,0);stroke-width:4" />
  <path d="M400.015 464.587 C 379.423 456.08, 346.548 439.619, 329.156 430.626" fill="none" style="stroke:rgb(0,0,0);stroke-width:4" />
  <path d="M166.609 391.678 C 176.259 411.498, 193.238 447.633, 184.714 460.489" fill="none" style="stroke:rgb(0,0,0);stroke-width:4" />
  <path d="M184.714 460.489 C 176.19 473.345, 123.109 494.495, 94.4032 506.249" fill="none" style="stroke:rgb(0,0,0);stroke-width:4" />
  <path d="M94.4032 506.249 C 141.397 539.867, 244.724 600.061, 301.15 600" fill="none" style="stroke:rgb(0,0,0);stroke-width:4" />
  <path d="M301.15 600 C 357.576 599.939, 460.498 539.516, 506.902 505.791" fill="none" style="stroke:rgb(0,0,0);stroke-width:4" />
  <path d="M506.902 505.791 C 451.269 507.668, 346.99 511.367, 298.998 511.457" fill="none" style="stroke:rgb(0,0,0);stroke-width:1" />
  <path d="M298.998 511.457 C 251.006 511.548, 149.035 508.078, 94.4032 506.249" fill="none" style="stroke:rgb(0,0,0);stroke-width:1" />
  <path d="M95.7917 94.4647 C 62.9357 141.064, 3.53933 243.524, 3.42372 299.681" fill="none" style="stroke:rgb(0,0,0);stroke-width:4" />
  <path d="M3.42372 299.681 C 3.30812 355.838, 62.0103 459.271, 94.4032 506.249" fill="none" style="stroke:rgb(0,0,0);stroke-width:4" />
  <path d="M166.609 391.678 C 148.238 388.444, 114.516 383.675, 106.353 397.182" fill="none" style="stroke:rgb(0,0,0);stroke-width:1" />
  <path d="M106.353 397.182 C 98.1894 410.688, 95.8086 472.743, 94.4032 506.249" fill="none" style="stroke:rgb(0,0,0);stroke-width:1" />
  <path d="M441.198 335.765 C 423.129 318.764, 390.062 287.459, 371.463 277.061" fill="none" style="stroke:rgb(0,0,0);stroke-width:1" />
  <path d="M371.463 277.061 C 352.864 266.664, 303.788 252.327, 276.912 244.48" fill="none" style="stroke:rgb(0,0,0);stroke-width:1" />
  <path d="M329.156 430.626 C 341.985 424.172, 365.938 411.858, 365.549 403.309" fill="none" style="stroke:rgb(0,0,0);stroke-width:1" />
  <path d="M365.549 403.309 C 365.159 394.761, 339.074 370.049, 324.893 356.573" fill="none" style="stroke:rgb(0,0,0);stroke-width:1" />
  <path d="M508.137 93.7956 C 461.243 60.1756, 357.687 -0.0676984, 301.281 0" fill="none" style="stroke:rgb(0,0,0);stroke-width:1" />
  <path d="M301.281 0 C 244.875 0.0676984, 142.258 60.6455, 95.7917 94.4647" fill="none" style="stroke:rgb(0,0,0);stroke-width:1" />
  <ellipse cx="435.064" cy="208.521" rx="1.69683" ry="1.69683"  style="fill:rgb(0,0,0)" />
  <ellipse cx="441.198" cy="335.765" rx="1.69683" ry="1.69683"  style="fill:rgb(0,0,0)" />
  <ellipse cx="506.902" cy="505.791" rx="1.69683" ry="1.69683"  style="fill:rgb(0,0,0)" />
  <ellipse cx="508.137" cy="93.7956" rx="1.69683" ry="1.69683"  style="fill:rgb(0,0,0)" />
  <ellipse cx="95.7917" cy="94.4647" rx="1.69683" ry="1.69683"  style="fill:rgb(0,0,0)" />
  <ellipse cx="272.713" cy="170.2" rx="1.69683" ry="1.69683"  style="fill:rgb(0,0,0)" />
  <ellipse cx="160.361" cy="265.059" rx="1.69683" ry="1.69683"  style="fill:rgb(0,0,0)" />
  <ellipse cx="276.912" cy="244.48" rx="1.69683" ry="1.69683"  style="fill:rgb(0,0,0)" />
  <ellipse cx="324.893" cy="356.573" rx="1.69683" ry="1.69683"  style="fill:rgb(0,0,0)" />
  <ellipse cx="329.156" cy="430.626" rx="1.69683" ry="1.69683"  style="fill:rgb(0,0,0)" />
  <ellipse cx="166.609" cy="391.678" rx="1.69683" ry="1.69683"  style="fill:rgb(0,0,0)" />
  <ellipse cx="94.4032" cy="506.249" rx="1.69683" ry="1.69683"  style="fill:rgb(0,0,0)" />
</svg>
