<svg height="600" width="600">
  <line x1="495.197" y1="217.219" x2="587.882" y2="354.255" style="stroke:rgb(0,0,0);stroke-width:4" />
  <line x1="587.882" y1="354.255" x2="547.273" y2="346.415" style="stroke:rgb(0,0,0);stroke-width:4" />
  <line x1="587.882" y1="354.255" x2="595.722" y2="313.645" style="stroke:rgb(0,0,0);stroke-width:4" />
  <line x1="219.871" y1="561.566" x2="52.1996" y2="572.248" style="stroke:rgb(0,0,0);stroke-width:4" />
  <line x1="52.1996" y1="572.248" x2="79.9518" y2="540.719" style="stroke:rgb(0,0,0);stroke-width:4" />
  <line x1="52.1996" y1="572.248" x2="83.7283" y2="600" style="stroke:rgb(0,0,0);stroke-width:4" />
  <line x1="57.9518" y1="150.29" x2="132.622" y2="0" style="stroke:rgb(0,0,0);stroke-width:4" />
  <line x1="132.622" y1="0" x2="145.99" y2="39.7677" style="stroke:rgb(0,0,0);stroke-width:4" />
  <line x1="132.622" y1="0" x2="92.8542" y2="13.3678" style="stroke:rgb(0,0,0);stroke-width:4" />
  <path d="M234.292 519.867 C 186.69 509.251, 113.372 490.658, 97.8874 482.383" fill="none" style="stroke:rgb(0,0,0);stroke-width:4" />
  <path d="M97.8874 482.383 C 82.4032 474.108, 74.8296 456.477, 72.5075 447.42" fill="none" style="stroke:rgb(0,0,0);stroke-width:4" />
  <path d="M234.292 519.867 C 233.687 525.437, 233.021 535.576, 232.085 540.639" fill="none" style="stroke:rgb(0,0,0);stroke-width:4" />
  <path d="M232.085 540.639 C 231.15 545.701, 224.606 556.412, 219.871 561.566" fill="none" style="stroke:rgb(0,0,0);stroke-width:4" />
  <path d="M234.292 519.867 C 282.785 519.879, 357.685 517.843, 374.797 513.152" fill="none" style="stroke:rgb(0,0,0);stroke-width:4" />
  <path d="M374.797 513.152 C 391.909 508.461, 405.266 493.216, 410.805 485.304" fill="none" style="stroke:rgb(0,0,0);stroke-width:4" />
  <path d="M410.805 485.304 C 427.152 479.729, 453.222 466.846, 459.972 457.331" fill="none" style="stroke:rgb(0,0,0);stroke-width:4" />
  <path d="M459.972 457.331 C 466.723 447.816, 470.301 418.503, 470.1 400.913" fill="none" style="stroke:rgb(0,0,0);stroke-width:4" />
  <path d="M410.805 485.304 C 394.497 478.545, 364.779 466.136, 355.781 461.884" fill="none" style="stroke:rgb(0,0,0);stroke-width:4" />
  <path d="M355.781 461.884 C 346.782 457.631, 337.791 451.584, 333.388 448.391" fill="none" style="stroke:rgb(0,0,0);stroke-width:4" />
  <path d="M451.628 224.151 C 427.42 182.185, 388.154 118.415, 375.634 105.966" fill="none" style="stroke:rgb(0,0,0);stroke-width:4" />
  <path d="M375.634 105.966 C 363.113 93.5173, 343.407 89.4811, 333.685 88.5373" fill="none" style="stroke:rgb(0,0,0);stroke-width:4" />
  <path d="M451.628 224.151 C 466.312 270.841, 486.936 343.75, 487.516 361.285" fill="none" style="stroke:rgb(0,0,0);stroke-width:4" />
  <path d="M487.516 361.285 C 488.096 378.82, 476.708 394.292, 470.1 400.913" fill="none" style="stroke:rgb(0,0,0);stroke-width:4" />
  <path d="M451.628 224.151 C 456.754 221.905, 465.85 217.384, 470.698 215.71" fill="none" style="stroke:rgb(0,0,0);stroke-width:4" />
  <path d="M470.698 215.71 C 475.545 214.036, 488.233 215.091, 495.197 217.219" fill="none" style="stroke:rgb(0,0,0);stroke-width:4" />
  <path d="M470.1 400.913 C 457.472 385.339, 434.349 356.342, 425.196 347.521" fill="none" style="stroke:rgb(0,0,0);stroke-width:4" />
  <path d="M425.196 347.521 C 416.042 338.701, 399.316 330.709, 390.401 326.938" fill="none" style="stroke:rgb(0,0,0);stroke-width:4" />
  <path d="M333.685 88.5373 C 336.092 106.03, 340.256 138.049, 341.123 147.949" fill="none" style="stroke:rgb(0,0,0);stroke-width:4" />
  <path d="M341.123 147.949 C 341.989 157.85, 341.412 168.667, 340.858 174.21" fill="none" style="stroke:rgb(0,0,0);stroke-width:4" />
  <path d="M333.685 88.5373 C 320.817 77.2367, 296.33 61.0225, 284.687 59.8971" fill="none" style="stroke:rgb(0,0,0);stroke-width:4" />
  <path d="M284.687 59.8971 C 273.045 58.7717, 246.07 70.4985, 230.763 79.5625" fill="none" style="stroke:rgb(0,0,0);stroke-width:4" />
  <path d="M86.7247 183.637 C 119.958 147.621, 172.66 93.5433, 187.642 84.343" fill="none" style="stroke:rgb(0,0,0);stroke-width:4" />
  <path d="M187.642 84.343 C 202.625 75.1427, 221.942 77.1828, 230.763 79.5625" fill="none" style="stroke:rgb(0,0,0);stroke-width:4" />
  <path d="M86.7247 183.637 C 82.3484 180.429, 73.719 174.656, 69.7997 171.317" fill="none" style="stroke:rgb(0,0,0);stroke-width:4" />
  <path d="M69.7997 171.317 C 65.8804 167.979, 60.1234 157.079, 57.9518 150.29" fill="none" style="stroke:rgb(0,0,0);stroke-width:4" />
  <path d="M86.7247 183.637 C 62.5313 225.745, 27.2508 291.516, 22.7678 308.598" fill="none" style="stroke:rgb(0,0,0);stroke-width:4" />
  <path d="M22.7678 308.598 C 18.2848 325.68, 24.5499 345.14, 28.6941 354.099" fill="none" style="stroke:rgb(0,0,0);stroke-width:4" />
  <path d="M230.763 79.5625 C 223.681 98.2743, 210.067 132.845, 207.09 145.145" fill="none" style="stroke:rgb(0,0,0);stroke-width:4" />
  <path d="M207.09 145.145 C 204.112 157.444, 206.075 175.799, 207.46 185.415" fill="none" style="stroke:rgb(0,0,0);stroke-width:4" />
  <path d="M72.5075 447.42 C 92.3879 444.299, 129.452 438.677, 141.699 435.127" fill="none" style="stroke:rgb(0,0,0);stroke-width:4" />
  <path d="M141.699 435.127 C 153.946 431.576, 169.108 420.922, 176.961 414.867" fill="none" style="stroke:rgb(0,0,0);stroke-width:4" />
  <path d="M72.5075 447.42 C 57.0688 438.822, 33.4545 421.139, 28.5461 410.504" fill="none" style="stroke:rgb(0,0,0);stroke-width:4" />
  <path d="M28.5461 410.504 C 23.6377 399.87, 25.3452 370.892, 28.6941 354.099" fill="none" style="stroke:rgb(0,0,0);stroke-width:4" />
  <path d="M28.6941 354.099 C 42.6487 343.335, 68.4255 323.747, 76.5921 318.036" fill="none" style="stroke:rgb(0,0,0);stroke-width:4" />
  <path d="M76.5921 318.036 C 84.7588 312.324, 94.3842 307.368, 99.4984 305.013" fill="none" style="stroke:rgb(0,0,0);stroke-width:4" />
  <path d="M295.34 421.746 C 284.989 422.425, 266.125 423.947, 259.54 424.729" fill="none" style="stroke:rgb(0,0,0);stroke-width:4" />
  <path d="M259.54 424.729 C 252.956 425.512, 243.233 426.73, 238.167 427.227" fill="none" style="stroke:rgb(0,0,0);stroke-width:4" />
  <path d="M295.34 421.746 C 300.349 426.526, 310.139 435.223, 314.695 438.174" fill="none" style="stroke:rgb(0,0,0);stroke-width:4" />
  <path d="M314.695 438.174 C 319.25 441.124, 328.484 445.749, 333.388 448.391" fill="none" style="stroke:rgb(0,0,0);stroke-width:4" />
  <path d="M295.34 421.746 C 300.502 415.969, 309.844 405.507, 312.505 401.737" fill="none" style="stroke:rgb(0,0,0);stroke-width:4" />
  <path d="M312.505 401.737 C 315.167 397.967, 317.146 392.074, 317.981 389.037" fill="none" style="stroke:rgb(0,0,0);stroke-width:4" />
  <path d="M176.961 414.867 C 175.408 405.383, 172.693 387.777, 173.956 379.855" fill="none" style="stroke:rgb(0,0,0);stroke-width:4" />
  <path d="M173.956 379.855 C 175.22 371.934, 183.057 354.931, 187.205 345.651" fill="none" style="stroke:rgb(0,0,0);stroke-width:4" />
  <path d="M176.961 414.867 C 188.224 417.027, 209.175 421.102, 216.226 422.529" fill="none" style="stroke:rgb(0,0,0);stroke-width:4" />
  <path d="M216.226 422.529 C 223.276 423.956, 232.928 426.061, 238.167 427.227" fill="none" style="stroke:rgb(0,0,0);stroke-width:4" />
  <path d="M390.401 326.938 C 382.859 332.922, 369.035 343.859, 361.524 346.605" fill="none" style="stroke:rgb(0,0,0);stroke-width:4" />
  <path d="M361.524 346.605 C 354.014 349.352, 335.223 350.742, 325.171 351.593" fill="none" style="stroke:rgb(0,0,0);stroke-width:4" />
  <path d="M390.401 326.938 C 386.508 315.953, 379.484 296.035, 377.187 289.228" fill="none" style="stroke:rgb(0,0,0);stroke-width:4" />
  <path d="M377.187 289.228 C 374.89 282.421, 371.922 272.751, 370.417 267.762" fill="none" style="stroke:rgb(0,0,0);stroke-width:4" />
  <path d="M337.122 220.389 C 329.666 218.733, 315.78 215.783, 311.247 215.309" fill="none" style="stroke:rgb(0,0,0);stroke-width:4" />
  <path d="M311.247 215.309 C 306.713 214.836, 300.848 215.942, 297.619 216.702" fill="none" style="stroke:rgb(0,0,0);stroke-width:4" />
  <path d="M337.122 220.389 C 342.889 228.926, 353.856 244.749, 357.807 250.124" fill="none" style="stroke:rgb(0,0,0);stroke-width:4" />
  <path d="M357.807 250.124 C 361.757 255.499, 367.437 263.362, 370.417 267.762" fill="none" style="stroke:rgb(0,0,0);stroke-width:4" />
  <path d="M337.122 220.389 C 338.645 213.441, 341.196 200.703, 341.434 195.282" fill="none" style="stroke:rgb(0,0,0);stroke-width:4" />
  <path d="M341.434 195.282 C 341.671 189.86, 340.989 179.508, 340.858 174.21" fill="none" style="stroke:rgb(0,0,0);stroke-width:4" />
  <path d="M325.171 351.593 C 324.763 358.631, 324.111 371.843, 323.393 376.147" fill="none" style="stroke:rgb(0,0,0);stroke-width:4" />
  <path d="M323.393 376.147 C 322.676 380.451, 319.733 385.961, 317.981 389.037" fill="none" style="stroke:rgb(0,0,0);stroke-width:4" />
  <path d="M325.171 351.593 C 314.602 346.103, 295.193 336.237, 287.5 331.413" fill="none" style="stroke:rgb(0,0,0);stroke-width:4" />
  <path d="M287.5 331.413 C 279.807 326.589, 265.792 315.023, 258.323 308.727" fill="none" style="stroke:rgb(0,0,0);stroke-width:4" />
  <path d="M207.46 185.415 C 216.539 188.917, 233.046 195.328, 239.218 200.473" fill="none" style="stroke:rgb(0,0,0);stroke-width:4" />
  <path d="M239.218 200.473 C 245.389 205.619, 256.11 221.215, 261.916 229.43" fill="none" style="stroke:rgb(0,0,0);stroke-width:4" />
  <path d="M207.46 185.415 C 199.897 194.185, 185.957 210.321, 181.178 215.714" fill="none" style="stroke:rgb(0,0,0);stroke-width:4" />
  <path d="M181.178 215.714 C 176.399 221.107, 169.487 228.462, 165.756 232.398" fill="none" style="stroke:rgb(0,0,0);stroke-width:4" />
  <path d="M141.54 284.843 C 146.067 275.533, 154.364 258.356, 157.093 252.235" fill="none" style="stroke:rgb(0,0,0);stroke-width:4" />
  <path d="M157.093 252.235 C 159.821 246.115, 163.631 237.07, 165.756 232.398" fill="none" style="stroke:rgb(0,0,0);stroke-width:4" />
  <path d="M141.54 284.843 C 134.737 287.034, 122.409 291.191, 117.558 293.719" fill="none" style="stroke:rgb(0,0,0);stroke-width:4" />
  <path d="M117.558 293.719 C 112.708 296.247, 104.016 302.176, 99.4984 305.013" fill="none" style="stroke:rgb(0,0,0);stroke-width:4" />
  <path d="M141.54 284.843 C 143.817 292.207, 148.167 305.842, 150.075 309.999" fill="none" style="stroke:rgb(0,0,0);stroke-width:4" />
  <path d="M150.075 309.999 C 151.983 314.156, 156.073 318.538, 158.421 320.878" fill="none" style="stroke:rgb(0,0,0);stroke-width:4" />
  <path d="M187.205 345.651 C 197.224 339.228, 215.922 327.046, 224.009 322.712" fill="none" style="stroke:rgb(0,0,0);stroke-width:4" />
  <path d="M224.009 322.712 C 232.097 318.379, 248.958 312.099, 258.323 308.727" fill="none" style="stroke:rgb(0,0,0);stroke-width:4" />
  <path d="M187.205 345.651 C 181.08 341.871, 170.064 334.893, 166.744 332.032" fill="none" style="stroke:rgb(0,0,0);stroke-width:4" />
  <path d="M166.744 332.032 C 163.424 329.171, 160.048 323.763, 158.421 320.878" fill="none" style="stroke:rgb(0,0,0);stroke-width:4" />
  <path d="M261.916 229.43 C 262.396 241.369, 263.455 263.173, 263.12 272.268" fill="none" style="stroke:rgb(0,0,0);stroke-width:4" />
  <path d="M263.12 272.268 C 262.786 281.362, 259.931 299.207, 258.323 308.727" fill="none" style="stroke:rgb(0,0,0);stroke-width:4" />
  <path d="M261.916 229.43 C 268.313 226.108, 279.747 219.888, 283.831 218.332" fill="none" style="stroke:rgb(0,0,0);stroke-width:4" />
  <path d="M283.831 218.332 C 287.915 216.776, 294.334 216.632, 297.619 216.702" fill="none" style="stroke:rgb(0,0,0);stroke-width:4" />
  <path d="M492.93 155.761 C 470.702 119.027, 472.249 119.391, 496.199 154.96" fill="none" style="stroke:rgb(0,0,0);stroke-width:1" />
  <path d="M496.199 154.96 C 520.148 190.529, 518.601 190.164, 492.93 155.761" fill="none" style="stroke:rgb(0,0,0);stroke-width:1" />
  <path d="M492.93 155.761 C 492.059 157.084, 488.22 157.934, 488.027 163.804" fill="none" style="stroke:rgb(0,0,0);stroke-width:1" />
  <path d="M488.027 163.804 C 487.834 169.674, 492.805 199.553, 495.197 217.219" fill="none" style="stroke:rgb(0,0,0);stroke-width:1" />
  <path d="M272.888 589.762 C 315.945 587.541, 315.332 588.541, 272.499 592.845" fill="none" style="stroke:rgb(0,0,0);stroke-width:1" />
  <path d="M272.499 592.845 C 229.665 597.148, 230.279 596.148, 272.888 589.762" fill="none" style="stroke:rgb(0,0,0);stroke-width:1" />
  <path d="M272.888 589.762 C 272.222 588.385, 273.473 584.767, 268.596 581.673" fill="none" style="stroke:rgb(0,0,0);stroke-width:1" />
  <path d="M268.596 581.673 C 263.719 578.579, 235.96 568.099, 219.871 561.566" fill="none" style="stroke:rgb(0,0,0);stroke-width:1" />
  <path d="M7.12683 182.255 C -12.4628 220.634, -13.5395 219.621, 4.27753 180.449" fill="none" style="stroke:rgb(0,0,0);stroke-width:1" />
  <path d="M4.27753 180.449 C 22.0946 141.278, 23.1713 142.291, 7.12683 182.255" fill="none" style="stroke:rgb(0,0,0);stroke-width:1" />
  <path d="M7.12683 182.255 C 8.9 182.355, 11.1982 185.21, 16.2787 182.499" fill="none" style="stroke:rgb(0,0,0);stroke-width:1" />
  <path d="M16.2787 182.499 C 21.3592 179.788, 44.4735 160.951, 57.9518 150.29" fill="none" style="stroke:rgb(0,0,0);stroke-width:1" />
  <path d="M242.633 387.918 C 243.005 383.8, 244.623 379.566, 244.758 379.482" fill="none" style="stroke:rgb(0,0,0);stroke-width:1" />
  <path d="M244.758 379.482 C 244.893 379.399, 243.275 383.633, 242.633 387.918" fill="none" style="stroke:rgb(0,0,0);stroke-width:1" />
  <path d="M242.633 387.918 C 242.354 390.599, 241.706 396.551, 241.147 400.932" fill="none" style="stroke:rgb(0,0,0);stroke-width:1" />
  <path d="M241.147 400.932 C 240.588 405.314, 239.003 419.017, 238.167 427.227" fill="none" style="stroke:rgb(0,0,0);stroke-width:1" />
  <path d="M265.996 470.028 C 257.916 472.701, 251.189 474.864, 250.978 474.769" fill="none" style="stroke:rgb(0,0,0);stroke-width:1" />
  <path d="M250.978 474.769 C 250.767 474.673, 257.495 472.509, 265.996 470.028" fill="none" style="stroke:rgb(0,0,0);stroke-width:1" />
  <path d="M265.996 470.028 C 270.584 468.661, 280.788 465.42, 288.255 462.968" fill="none" style="stroke:rgb(0,0,0);stroke-width:1" />
  <path d="M288.255 462.968 C 295.721 460.517, 319.213 452.939, 333.388 448.391" fill="none" style="stroke:rgb(0,0,0);stroke-width:1" />
  <path d="M377.79 404.977 C 383.512 406.492, 389.144 408.567, 389.138 408.591" fill="none" style="stroke:rgb(0,0,0);stroke-width:1" />
  <path d="M389.138 408.591 C 389.132 408.616, 383.5 406.542, 377.79 404.977" fill="none" style="stroke:rgb(0,0,0);stroke-width:1" />
  <path d="M377.79 404.977 C 373.661 403.867, 363.944 401.439, 357.182 399.608" fill="none" style="stroke:rgb(0,0,0);stroke-width:1" />
  <path d="M357.182 399.608 C 350.421 397.777, 330.233 392.236, 317.981 389.037" fill="none" style="stroke:rgb(0,0,0);stroke-width:1" />
  <path d="M281.491 157.191 C 279.669 150.469, 278.046 144.102, 278.143 144.54" fill="none" style="stroke:rgb(0,0,0);stroke-width:1" />
  <path d="M278.143 144.54 C 278.241 144.978, 279.864 151.345, 281.491 157.191" fill="none" style="stroke:rgb(0,0,0);stroke-width:1" />
  <path d="M281.491 157.191 C 282.571 161.125, 285.078 170.618, 286.934 177.357" fill="none" style="stroke:rgb(0,0,0);stroke-width:1" />
  <path d="M286.934 177.357 C 288.79 184.095, 294.347 204.357, 297.619 216.702" fill="none" style="stroke:rgb(0,0,0);stroke-width:1" />
  <path d="M334.208 282.86 C 330.535 284.598, 326.973 285.893, 326.862 285.7" fill="none" style="stroke:rgb(0,0,0);stroke-width:1" />
  <path d="M326.862 285.7 C 326.752 285.507, 330.313 284.212, 334.208 282.86" fill="none" style="stroke:rgb(0,0,0);stroke-width:1" />
  <path d="M334.208 282.86 C 336.646 281.831, 342.321 279.624, 346.341 277.918" fill="none" style="stroke:rgb(0,0,0);stroke-width:1" />
  <path d="M346.341 277.918 C 350.361 276.212, 362.79 270.87, 370.417 267.762" fill="none" style="stroke:rgb(0,0,0);stroke-width:1" />
  <path d="M393.915 222.813 C 399.689 227.984, 405.089 233.132, 405.503 233.69" fill="none" style="stroke:rgb(0,0,0);stroke-width:1" />
  <path d="M405.503 233.69 C 405.917 234.248, 400.517 229.1, 393.915 222.813" fill="none" style="stroke:rgb(0,0,0);stroke-width:1" />
  <path d="M393.915 222.813 C 390.218 219.35, 381.824 211.417, 375.918 205.936" fill="none" style="stroke:rgb(0,0,0);stroke-width:1" />
  <path d="M375.918 205.936 C 370.012 200.454, 351.876 184.086, 340.858 174.21" fill="none" style="stroke:rgb(0,0,0);stroke-width:1" />
  <path d="M197.506 255.992 C 200.869 258.449, 204.305 260.578, 204.286 260.642" fill="none" style="stroke:rgb(0,0,0);stroke-width:1" />
  <path d="M204.286 260.642 C 204.266 260.707, 200.829 258.579, 197.506 255.992" fill="none" style="stroke:rgb(0,0,0);stroke-width:1" />
  <path d="M197.506 255.992 C 195.364 254.348, 190.495 250.683, 186.958 248.011" fill="none" style="stroke:rgb(0,0,0);stroke-width:1" />
  <path d="M186.958 248.011 C 183.422 245.339, 172.417 237.207, 165.756 232.398" fill="none" style="stroke:rgb(0,0,0);stroke-width:1" />
  <path d="M114.657 235.174 C 116.446 226.726, 118.001 219.895, 118.147 219.709" fill="none" style="stroke:rgb(0,0,0);stroke-width:1" />
  <path d="M118.147 219.709 C 118.293 219.523, 116.738 226.353, 114.657 235.174" fill="none" style="stroke:rgb(0,0,0);stroke-width:1" />
  <path d="M114.657 235.174 C 113.601 240.08, 111.089 250.981, 109.326 258.781" fill="none" style="stroke:rgb(0,0,0);stroke-width:1" />
  <path d="M109.326 258.781 C 107.564 266.581, 102.497 290.599, 99.4984 305.013" fill="none" style="stroke:rgb(0,0,0);stroke-width:1" />
  <path d="M115.966 363.924 C 110.473 369.62, 106.285 374.006, 106.374 373.775" fill="none" style="stroke:rgb(0,0,0);stroke-width:1" />
  <path d="M106.374 373.775 C 106.463 373.544, 110.65 369.158, 115.966 363.924" fill="none" style="stroke:rgb(0,0,0);stroke-width:1" />
  <path d="M115.966 363.924 C 118.665 361.152, 125.148 354.775, 129.927 349.894" fill="none" style="stroke:rgb(0,0,0);stroke-width:1" />
  <path d="M129.927 349.894 C 134.706 345.013, 149.45 329.868, 158.421 320.878" fill="none" style="stroke:rgb(0,0,0);stroke-width:1" />
  <ellipse cx="257.621" cy="309.263" rx="1.42446" ry="1.42446"  style="fill:rgb(0,0,0)" />
  <ellipse cx="234.292" cy="519.867" rx="1.42446" ry="1.42446"  style="fill:rgb(0,0,0)" />
  <ellipse cx="410.805" cy="485.304" rx="1.42446" ry="1.42446"  style="fill:rgb(0,0,0)" />
  <ellipse cx="451.628" cy="224.151" rx="1.42446" ry="1.42446"  style="fill:rgb(0,0,0)" />
  <ellipse cx="470.1" cy="400.913" rx="1.42446" ry="1.42446"  style="fill:rgb(0,0,0)" />
  <ellipse cx="333.685" cy="88.5373" rx="1.42446" ry="1.42446"  style="fill:rgb(0,0,0)" />
  <ellipse cx="86.7247" cy="183.637" rx="1.42446" ry="1.42446"  style="fill:rgb(0,0,0)" />
  <ellipse cx="230.763" cy="79.5625" rx="1.42446" ry="1.42446"  style="fill:rgb(0,0,0)" />
  <ellipse cx="72.5075" cy="447.42" rx="1.42446" ry="1.42446"  style="fill:rgb(0,0,0)" />
  <ellipse cx="28.6941" cy="354.099" rx="1.42446" ry="1.42446"  style="fill:rgb(0,0,0)" />
  <ellipse cx="295.34" cy="421.746" rx="1.42446" ry="1.42446"  style="fill:rgb(0,0,0)" />
  <ellipse cx="176.961" cy="414.867" rx="1.42446" ry="1.42446"  style="fill:rgb(0,0,0)" />
  <ellipse cx="390.401" cy="326.938" rx="1.42446" ry="1.42446"  style="fill:rgb(0,0,0)" />
  <ellipse cx="337.122" cy="220.389" rx="1.42446" ry="1.42446"  style="fill:rgb(0,0,0)" />
  <ellipse cx="325.171" cy="351.593" rx="1.42446" ry="1.42446"  style="fill:rgb(0,0,0)" />
  <ellipse cx="207.46" cy="185.415" rx="1.42446" ry="1.42446"  style="fill:rgb(0,0,0)" />
  <ellipse cx="141.54" cy="284.843" rx="1.42446" ry="1.42446"  style="fill:rgb(0,0,0)" />
  <ellipse cx="187.205" cy="345.651" rx="1.42446" ry="1.42446"  style="fill:rgb(0,0,0)" />
  <ellipse cx="261.916" cy="229.43" rx="1.42446" ry="1.42446"  style="fill:rgb(0,0,0)" />
  <ellipse cx="258.323" cy="308.727" rx="1.42446" ry="1.42446"  style="fill:rgb(0,0,0)" />
  <ellipse cx="492.93" cy="155.761" rx="1.42446" ry="1.42446"  style="fill:rgb(0,0,0)" />
  <ellipse cx="495.197" cy="217.219" rx="1.42446" ry="1.42446"  style="fill:rgb(0,0,0)" />
  <ellipse cx="272.888" cy="589.762" rx="1.42446" ry="1.42446"  style="fill:rgb(0,0,0)" />
  <ellipse cx="219.871" cy="561.566" rx="1.42446" ry="1.42446"  style="fill:rgb(0,0,0)" />
  <ellipse cx="7.12683" cy="182.255" rx="1.42446" ry="1.42446"  style="fill:rgb(0,0,0)" />
  <ellipse cx="57.9518" cy="150.29" rx="1.42446" ry="1.42446"  style="fill:rgb(0,0,0)" />
  <ellipse cx="242.633" cy="387.918" rx="1.42446" ry="1.42446"  style="fill:rgb(0,0,0)" />
  <ellipse cx="238.167" cy="427.227" rx="1.42446" ry="1.42446"  style="fill:rgb(0,0,0)" />
  <ellipse cx="265.996" cy="470.028" rx="1.42446" ry="1.42446"  style="fill:rgb(0,0,0)" />
  <ellipse cx="333.388" cy="448.391" rx="1.42446" ry="1.42446"  style="fill:rgb(0,0,0)" />
  <ellipse cx="377.79" cy="404.977" rx="1.42446" ry="1.42446"  style="fill:rgb(0,0,0)" />
  <ellipse cx="317.981" cy="389.037" rx="1.42446" ry="1.42446"  style="fill:rgb(0,0,0)" />
  <ellipse cx="281.491" cy="157.191" rx="1.42446" ry="1.42446"  style="fill:rgb(0,0,0)" />
  <ellipse cx="297.619" cy="216.702" rx="1.42446" ry="1.42446"  style="fill:rgb(0,0,0)" />
  <ellipse cx="334.208" cy="282.86" rx="1.42446" ry="1.42446"  style="fill:rgb(0,0,0)" />
  <ellipse cx="370.417" cy="267.762" rx="1.42446" ry="1.42446"  style="fill:rgb(0,0,0)" />
  <ellipse cx="393.915" cy="222.813" rx="1.42446" ry="1.42446"  style="fill:rgb(0,0,0)" />
  <ellipse cx="340.858" cy="174.21" rx="1.42446" ry="1.42446"  style="fill:rgb(0,0,0)" />
  <ellipse cx="197.506" cy="255.992" rx="1.42446" ry="1.42446"  style="fill:rgb(0,0,0)" />
  <ellipse cx="165.756" cy="232.398" rx="1.42446" ry="1.42446"  style="fill:rgb(0,0,0)" />
  <ellipse cx="114.657" cy="235.174" rx="1.42446" ry="1.42446"  style="fill:rgb(0,0,0)" />
  <ellipse cx="99.4984" cy="305.013" rx="1.42446" ry="1.42446"  style="fill:rgb(0,0,0)" />
  <ellipse cx="115.966" cy="363.924" rx="1.42446" ry="1.42446"  style="fill:rgb(0,0,0)" />
  <ellipse cx="158.421" cy="320.878" rx="1.42446" ry="1.42446"  style="fill:rgb(0,0,0)" />
</svg>
