<svg height="600" width="600">
  <line x1="477.275" y1="213.037" x2="587.126" y2="354.934" style="stroke:rgb(0,0,0);stroke-width:4" />
  <line x1="587.126" y1="354.934" x2="542.623" y2="349.269" style="stroke:rgb(0,0,0);stroke-width:4" />
  <line x1="587.126" y1="354.934" x2="592.791" y2="310.431" style="stroke:rgb(0,0,0);stroke-width:4" />
  <line x1="231.802" y1="548.505" x2="51.5588" y2="572.353" style="stroke:rgb(0,0,0);stroke-width:4" />
  <line x1="51.5588" y1="572.353" x2="79.2057" y2="536.275" style="stroke:rgb(0,0,0);stroke-width:4" />
  <line x1="51.5588" y1="572.353" x2="87.6373" y2="600" style="stroke:rgb(0,0,0);stroke-width:4" />
  <line x1="62.6848" y1="168.014" x2="132.381" y2="0" style="stroke:rgb(0,0,0);stroke-width:4" />
  <line x1="132.381" y1="0" x2="149.762" y2="42.0216" style="stroke:rgb(0,0,0);stroke-width:4" />
  <line x1="132.381" y1="0" x2="90.3598" y2="17.3802" style="stroke:rgb(0,0,0);stroke-width:4" />
  <path d="M477.275 213.037 C 468.742 211.615, 453.887 211.842, 447.857 214.395" fill="none" style="stroke:rgb(0,0,0);stroke-width:4" />
  <path d="M447.857 214.395 C 441.828 216.948, 429.114 223.959, 422.135 227.511" fill="none" style="stroke:rgb(0,0,0);stroke-width:4" />
  <path d="M422.135 227.511 C 438.56 276.069, 459.207 349.929, 457.609 369.329" fill="none" style="stroke:rgb(0,0,0);stroke-width:4" />
  <path d="M457.609 369.329 C 456.01 388.728, 433.606 409.624, 418.621 417.024" fill="none" style="stroke:rgb(0,0,0);stroke-width:4" />
  <path d="M418.621 417.024 C 417.613 433.755, 407.006 462.199, 389.722 471.047" fill="none" style="stroke:rgb(0,0,0);stroke-width:4" />
  <path d="M389.722 471.047 C 372.438 479.894, 296.626 489.644, 245.784 493.411" fill="none" style="stroke:rgb(0,0,0);stroke-width:4" />
  <path d="M245.784 493.411 C 245.303 501.16, 244.879 515.632, 244.109 522.16" fill="none" style="stroke:rgb(0,0,0);stroke-width:4" />
  <path d="M244.109 522.16 C 243.339 528.688, 236.771 541.763, 231.802 548.505" fill="none" style="stroke:rgb(0,0,0);stroke-width:4" />
  <path d="M290.257 578.803 C 228.893 611.743, 359.158 595.466, 290.257 578.803" fill="none" style="stroke:rgb(0,0,0);stroke-width:1" />
  <path d="M290.257 578.803 C 289.281 576.976, 290.377 572.769, 284.977 569.417" fill="none" style="stroke:rgb(0,0,0);stroke-width:1" />
  <path d="M284.977 569.417 C 279.578 566.065, 249.255 555.123, 231.802 548.505" fill="none" style="stroke:rgb(0,0,0);stroke-width:1" />
  <path d="M245.784 493.411 C 195.666 483.413, 121.416 464.451, 105.36 453.411" fill="none" style="stroke:rgb(0,0,0);stroke-width:4" />
  <path d="M105.36 453.411 C 89.3042 442.372, 82.3806 412.536, 83.4368 395.815" fill="none" style="stroke:rgb(0,0,0);stroke-width:4" />
  <path d="M83.4368 395.815 C 69.6233 386.638, 50.0877 363.306, 50.894 343.899" fill="none" style="stroke:rgb(0,0,0);stroke-width:4" />
  <path d="M50.894 343.899 C 51.7002 324.492, 81.286 253.75, 103.537 207.667" fill="none" style="stroke:rgb(0,0,0);stroke-width:4" />
  <path d="M103.537 207.667 C 97.0284 203.373, 84.6946 195.772, 79.4107 191.814" fill="none" style="stroke:rgb(0,0,0);stroke-width:4" />
  <path d="M79.4107 191.814 C 74.1268 187.856, 66.0342 175.631, 62.6848 168.014" fill="none" style="stroke:rgb(0,0,0);stroke-width:4" />
  <path d="M7.20926 203.482 C 10.275 133.766, -41.4807 254.862, 7.20926 203.482" fill="none" style="stroke:rgb(0,0,0);stroke-width:1" />
  <path d="M7.20926 203.482 C 9.21667 203.568, 12.2801 206.658, 17.8831 203.674" fill="none" style="stroke:rgb(0,0,0);stroke-width:1" />
  <path d="M17.8831 203.674 C 23.4861 200.691, 48.1605 179.867, 62.6848 168.014" fill="none" style="stroke:rgb(0,0,0);stroke-width:1" />
  <path d="M256.979 309.321 C 257.538 297.301, 257.879 275, 257.413 266.573" fill="none" style="stroke:rgb(0,0,0);stroke-width:4" />
  <path d="M257.413 266.573 C 256.947 258.147, 256.608 243.648, 256.983 235.721" fill="none" style="stroke:rgb(0,0,0);stroke-width:4" />
  <path d="M256.983 235.721 C 259.123 227.079, 262.648 210.288, 263.896 196.448" fill="none" style="stroke:rgb(0,0,0);stroke-width:4" />
  <path d="M263.896 196.448 C 265.145 182.608, 267.852 139.567, 269.445 116.057" fill="none" style="stroke:rgb(0,0,0);stroke-width:4" />
  <path d="M269.445 116.057 C 255.388 106.669, 226.157 97.5909, 208.593 105.952" fill="none" style="stroke:rgb(0,0,0);stroke-width:4" />
  <path d="M208.593 105.952 C 191.029 114.313, 137.306 169.196, 103.537 207.667" fill="none" style="stroke:rgb(0,0,0);stroke-width:4" />
  <path d="M83.4368 395.815 C 104.616 385.334, 143.279 366.17, 155.871 360.344" fill="none" style="stroke:rgb(0,0,0);stroke-width:4" />
  <path d="M155.871 360.344 C 168.462 354.518, 184.682 349.095, 193.201 346.64" fill="none" style="stroke:rgb(0,0,0);stroke-width:4" />
  <path d="M193.201 346.64 C 200.221 342.895, 212.574 335.054, 219.668 330.413" fill="none" style="stroke:rgb(0,0,0);stroke-width:4" />
  <path d="M219.668 330.413 C 226.761 325.772, 246.297 314.953, 256.979 309.321" fill="none" style="stroke:rgb(0,0,0);stroke-width:4" />
  <path d="M169.601 276.018 C 141.561 187.6, 145.254 199.885, 169.601 276.018" fill="none" style="stroke:rgb(0,0,0);stroke-width:1" />
  <path d="M169.601 276.018 C 171.085 280.446, 174.345 291.425, 176.974 299.421" fill="none" style="stroke:rgb(0,0,0);stroke-width:1" />
  <path d="M176.974 299.421 C 179.602 307.416, 188.142 331.749, 193.201 346.64" fill="none" style="stroke:rgb(0,0,0);stroke-width:1" />
  <path d="M418.621 417.024 C 399.061 404.066, 363.011 380.225, 351.677 372.218" fill="none" style="stroke:rgb(0,0,0);stroke-width:4" />
  <path d="M351.677 372.218 C 340.342 364.211, 327.569 352.724, 320.978 346.369" fill="none" style="stroke:rgb(0,0,0);stroke-width:4" />
  <path d="M320.978 346.369 C 314.381 342.218, 301.307 335.186, 293.745 331.251" fill="none" style="stroke:rgb(0,0,0);stroke-width:4" />
  <path d="M293.745 331.251 C 286.183 327.316, 267.257 315.824, 256.979 309.321" fill="none" style="stroke:rgb(0,0,0);stroke-width:4" />
  <path d="M271.328 402.418 C 216.981 461.604, 213.852 464.53, 271.328 402.418" fill="none" style="stroke:rgb(0,0,0);stroke-width:1" />
  <path d="M271.328 402.418 C 274.717 398.767, 282.404 390.344, 288.008 384.088" fill="none" style="stroke:rgb(0,0,0);stroke-width:1" />
  <path d="M288.008 384.088 C 293.612 377.833, 310.749 358.231, 320.978 346.369" fill="none" style="stroke:rgb(0,0,0);stroke-width:1" />
  <path d="M269.445 116.057 C 284.237 108.536, 314.346 103.334, 330.721 113.775" fill="none" style="stroke:rgb(0,0,0);stroke-width:4" />
  <path d="M330.721 113.775 C 347.096 124.215, 393.332 185.145, 422.135 227.511" fill="none" style="stroke:rgb(0,0,0);stroke-width:4" />
  <path d="M474.01 145.867 C 532.6 183.929, 453.77 78.3074, 474.01 145.867" fill="none" style="stroke:rgb(0,0,0);stroke-width:1" />
  <path d="M474.01 145.867 C 472.893 147.639, 468.603 148.853, 468.426 155.298" fill="none" style="stroke:rgb(0,0,0);stroke-width:1" />
  <path d="M468.426 155.298 C 468.249 161.743, 474.172 194.115, 477.275 213.037" fill="none" style="stroke:rgb(0,0,0);stroke-width:1" />
  <path d="M330.022 250.523 C 416.544 271.366, 414.712 270.348, 330.022 250.523" fill="none" style="stroke:rgb(0,0,0);stroke-width:1" />
  <path d="M330.022 250.523 C 325.419 249.551, 314.263 246.896, 306.008 245.206" fill="none" style="stroke:rgb(0,0,0);stroke-width:1" />
  <path d="M306.008 245.206 C 297.752 243.517, 272.387 238.771, 256.983 235.721" fill="none" style="stroke:rgb(0,0,0);stroke-width:1" />
  <ellipse cx="257.138" cy="309.474" rx="1.3812" ry="1.3812"  style="fill:rgb(0,0,0)" />
  <ellipse cx="477.275" cy="213.037" rx="1.3812" ry="1.3812"  style="fill:rgb(0,0,0)" />
  <ellipse cx="422.135" cy="227.511" rx="1.3812" ry="1.3812"  style="fill:rgb(0,0,0)" />
  <ellipse cx="418.621" cy="417.024" rx="1.3812" ry="1.3812"  style="fill:rgb(0,0,0)" />
  <ellipse cx="245.784" cy="493.411" rx="1.3812" ry="1.3812"  style="fill:rgb(0,0,0)" />
  <ellipse cx="231.802" cy="548.505" rx="1.3812" ry="1.3812"  style="fill:rgb(0,0,0)" />
  <ellipse cx="290.257" cy="578.803" rx="1.3812" ry="1.3812"  style="fill:rgb(0,0,0)" />
  <ellipse cx="83.4368" cy="395.815" rx="1.3812" ry="1.3812"  style="fill:rgb(0,0,0)" />
  <ellipse cx="103.537" cy="207.667" rx="1.3812" ry="1.3812"  style="fill:rgb(0,0,0)" />
  <ellipse cx="62.6848" cy="168.014" rx="1.3812" ry="1.3812"  style="fill:rgb(0,0,0)" />
  <ellipse cx="7.20926" cy="203.482" rx="1.3812" ry="1.3812"  style="fill:rgb(0,0,0)" />
  <ellipse cx="256.979" cy="309.321" rx="1.3812" ry="1.3812"  style="fill:rgb(0,0,0)" />
  <ellipse cx="256.983" cy="235.721" rx="1.3812" ry="1.3812"  style="fill:rgb(0,0,0)" />
  <ellipse cx="269.445" cy="116.057" rx="1.3812" ry="1.3812"  style="fill:rgb(0,0,0)" />
  <ellipse cx="193.201" cy="346.64" rx="1.3812" ry="1.3812"  style="fill:rgb(0,0,0)" />
  <ellipse cx="169.601" cy="276.018" rx="1.3812" ry="1.3812"  style="fill:rgb(0,0,0)" />
  <ellipse cx="320.978" cy="346.369" rx="1.3812" ry="1.3812"  style="fill:rgb(0,0,0)" />
  <ellipse cx="271.328" cy="402.418" rx="1.3812" ry="1.3812"  style="fill:rgb(0,0,0)" />
  <ellipse cx="474.01" cy="145.867" rx="1.3812" ry="1.3812"  style="fill:rgb(0,0,0)" />
  <ellipse cx="330.022" cy="250.523" rx="1.3812" ry="1.3812"  style="fill:rgb(0,0,0)" />
</svg>
