<svg height="600" width="600">
  <line x1="572.937" y1="302.954" x2="592.131" y2="252.544" style="stroke:rgb(0,0,0);stroke-width:4" />
  <line x1="592.131" y1="252.544" x2="597.649" y2="264.848" style="stroke:rgb(0,0,0);stroke-width:4" />
  <line x1="592.131" y1="252.544" x2="579.827" y2="258.062" style="stroke:rgb(0,0,0);stroke-width:4" />
  <line x1="346.846" y1="568.688" x2="297.767" y2="596.185" style="stroke:rgb(0,0,0);stroke-width:4" />
  <line x1="297.767" y1="596.185" x2="301.582" y2="582.648" style="stroke:rgb(0,0,0);stroke-width:4" />
  <line x1="297.767" y1="596.185" x2="311.304" y2="600" style="stroke:rgb(0,0,0);stroke-width:4" />
  <line x1="27.4496" y1="296.998" x2="7.78852" y2="347.419" style="stroke:rgb(0,0,0);stroke-width:4" />
  <line x1="7.78852" y1="347.419" x2="2.35084" y2="335.031" style="stroke:rgb(0,0,0);stroke-width:4" />
  <line x1="7.78852" y1="347.419" x2="20.1775" y2="341.982" style="stroke:rgb(0,0,0);stroke-width:4" />
  <line x1="253.313" y1="31.2077" x2="302.38" y2="3.83511" style="stroke:rgb(0,0,0);stroke-width:4" />
  <line x1="302.38" y1="3.83511" x2="298.545" y2="17.3479" style="stroke:rgb(0,0,0);stroke-width:4" />
  <line x1="302.38" y1="3.83511" x2="288.868" y2="0" style="stroke:rgb(0,0,0);stroke-width:4" />
  <path d="M572.937 302.954 C 569.854 304.781, 563.739 307.925, 559.221 305.627" fill="none" style="stroke:rgb(0,0,0);stroke-width:4" />
  <path d="M559.221 305.627 C 554.703 303.328, 540.141 289.372, 531.585 281.33" fill="none" style="stroke:rgb(0,0,0);stroke-width:4" />
  <path d="M531.585 281.33 C 521.369 282.347, 501.396 284.241, 478.968 286" fill="none" style="stroke:rgb(0,0,0);stroke-width:4" />
  <path d="M478.968 286 C 456.539 287.758, 360.826 295.239, 300.213 300.079" fill="none" style="stroke:rgb(0,0,0);stroke-width:4" />
  <path d="M300.213 300.079 C 304.929 360.71, 312.476 456.526, 314.244 478.96" fill="none" style="stroke:rgb(0,0,0);stroke-width:4" />
  <path d="M314.244 478.96 C 316.012 501.394, 317.265 521.3, 317.814 531.524" fill="none" style="stroke:rgb(0,0,0);stroke-width:4" />
  <path d="M317.814 531.524 C 327.038 538.657, 343.075 550.773, 346.079 554.853" fill="none" style="stroke:rgb(0,0,0);stroke-width:4" />
  <path d="M346.079 554.853 C 349.083 558.932, 347.562 565.397, 346.846 568.688" fill="none" style="stroke:rgb(0,0,0);stroke-width:4" />
  <path d="M346.846 568.688 C 427.373 610.077, 459.035 518.879, 346.846 568.688" fill="none" style="stroke:rgb(0,0,0);stroke-width:1" />
  <path d="M572.937 302.954 C 625.311 378.701, 542.02 424.15, 572.937 302.954" fill="none" style="stroke:rgb(0,0,0);stroke-width:1" />
  <path d="M300.213 300.079 C 239.528 304.796, 143.989 312.405, 121.533 314.169" fill="none" style="stroke:rgb(0,0,0);stroke-width:4" />
  <path d="M121.533 314.169 C 99.077 315.933, 78.9133 317.644, 68.8085 318.717" fill="none" style="stroke:rgb(0,0,0);stroke-width:4" />
  <path d="M68.8085 318.717 C 60.1156 310.616, 45.7818 296.73, 41.2724 294.434" fill="none" style="stroke:rgb(0,0,0);stroke-width:4" />
  <path d="M41.2724 294.434 C 36.7631 292.137, 30.4175 295.164, 27.4496 296.998" fill="none" style="stroke:rgb(0,0,0);stroke-width:4" />
  <path d="M317.814 531.524 C 28.9882 507.416, 100.327 675.464, 317.814 531.524" fill="none" style="stroke:rgb(0,0,0);stroke-width:1" />
  <path d="M68.8085 318.717 C 136.645 601.469, -39.4486 555.95, 68.8085 318.717" fill="none" style="stroke:rgb(0,0,0);stroke-width:1" />
  <path d="M300.213 300.079 C 295.334 239.283, 287.827 143.736, 286.065 121.312" fill="none" style="stroke:rgb(0,0,0);stroke-width:4" />
  <path d="M286.065 121.312 C 284.302 98.8892, 282.921 78.7278, 282.437 68.6612" fill="none" style="stroke:rgb(0,0,0);stroke-width:4" />
  <path d="M282.437 68.6612 C 273.107 61.3409, 257.026 49.1503, 254.041 45.0713" fill="none" style="stroke:rgb(0,0,0);stroke-width:4" />
  <path d="M254.041 45.0713 C 251.055 40.9923, 252.575 34.4562, 253.313 31.2077" fill="none" style="stroke:rgb(0,0,0);stroke-width:4" />
  <path d="M253.313 31.2077 C 173.324 -10.2774, 141.232 81.2119, 253.313 31.2077" fill="none" style="stroke:rgb(0,0,0);stroke-width:1" />
  <path d="M27.4496 296.998 C -26.5727 222.575, 58.7468 175.164, 27.4496 296.998" fill="none" style="stroke:rgb(0,0,0);stroke-width:1" />
  <path d="M282.437 68.6612 C 572.004 92.2415, 499.002 -76.0894, 282.437 68.6612" fill="none" style="stroke:rgb(0,0,0);stroke-width:1" />
  <path d="M531.585 281.33 C 462.665 -0.386907, 639.472 43.3798, 531.585 281.33" fill="none" style="stroke:rgb(0,0,0);stroke-width:1" />
  <ellipse cx="300.077" cy="299.979" rx="1.41665" ry="1.41665"  style="fill:rgb(0,0,0)" />
  <ellipse cx="572.937" cy="302.954" rx="1.41665" ry="1.41665"  style="fill:rgb(0,0,0)" />
  <ellipse cx="531.585" cy="281.33" rx="1.41665" ry="1.41665"  style="fill:rgb(0,0,0)" />
  <ellipse cx="300.213" cy="300.079" rx="1.41665" ry="1.41665"  style="fill:rgb(0,0,0)" />
  <ellipse cx="317.814" cy="531.524" rx="1.41665" ry="1.41665"  style="fill:rgb(0,0,0)" />
  <ellipse cx="346.846" cy="568.688" rx="1.41665" ry="1.41665"  style="fill:rgb(0,0,0)" />
  <ellipse cx="68.8085" cy="318.717" rx="1.41665" ry="1.41665"  style="fill:rgb(0,0,0)" />
  <ellipse cx="27.4496" cy="296.998" rx="1.41665" ry="1.41665"  style="fill:rgb(0,0,0)" />
  <ellipse cx="282.437" cy="68.6612" rx="1.41665" ry="1.41665"  style="fill:rgb(0,0,0)" />
  <ellipse cx="253.313" cy="31.2077" rx="1.41665" ry="1.41665"  style="fill:rgb(0,0,0)" />
</svg>
