<svg height="600" width="600">
  <line x1="58.7991" y1="291.38" x2="0" y2="264.556" style="stroke:rgb(0,0,0);stroke-width:4" />
  <line x1="0" y1="264.556" x2="15.1361" y2="258.904" style="stroke:rgb(0,0,0);stroke-width:4" />
  <line x1="0" y1="264.556" x2="5.65256" y2="279.693" style="stroke:rgb(0,0,0);stroke-width:4" />
  <line x1="541.255" y1="309.119" x2="600" y2="334.959" style="stroke:rgb(0,0,0);stroke-width:4" />
  <line x1="600" y1="334.959" x2="585.047" y2="340.776" style="stroke:rgb(0,0,0);stroke-width:4" />
  <line x1="600" y1="334.959" x2="594.183" y2="320.006" style="stroke:rgb(0,0,0);stroke-width:4" />
  <path d="M348.781 102.652 C 361.071 98.6177, 385.986 100.347, 398.16 103.705" fill="none" style="stroke:rgb(0,0,0);stroke-width:4" />
  <path d="M398.16 103.705 C 410.334 107.062, 439.953 119.702, 457.849 131.39" fill="none" style="stroke:rgb(0,0,0);stroke-width:4" />
  <path d="M457.849 131.39 C 473.82 148.577, 497.027 179.726, 503.811 190.27" fill="none" style="stroke:rgb(0,0,0);stroke-width:4" />
  <path d="M503.811 190.27 C 510.594 200.814, 521.116 216.157, 525.306 224.374" fill="none" style="stroke:rgb(0,0,0);stroke-width:4" />
  <path d="M525.306 224.374 C 527.923 232.512, 530.096 248.685, 532.03 258.374" fill="none" style="stroke:rgb(0,0,0);stroke-width:4" />
  <path d="M532.03 258.374 C 533.964 268.064, 539.766 294.263, 541.255 309.119" fill="none" style="stroke:rgb(0,0,0);stroke-width:4" />
  <path d="M58.7991 291.38 C 62.622 279.33, 71.401 259.845, 74.5199 251.722" fill="none" style="stroke:rgb(0,0,0);stroke-width:4" />
  <path d="M74.5199 251.722 C 77.6388 243.598, 81.7174 227.637, 84.5144 220.486" fill="none" style="stroke:rgb(0,0,0);stroke-width:4" />
  <path d="M84.5144 220.486 C 89.1432 215.568, 98.3136 206.635, 104.362 201.556" fill="none" style="stroke:rgb(0,0,0);stroke-width:4" />
  <path d="M104.362 201.556 C 110.411 196.476, 130.172 188.221, 142.377 186.112" fill="none" style="stroke:rgb(0,0,0);stroke-width:4" />
  <path d="M142.377 186.112 C 141.523 167.714, 148.057 138.884, 157.011 127.962" fill="none" style="stroke:rgb(0,0,0);stroke-width:4" />
  <path d="M157.011 127.962 C 165.965 117.041, 198.215 94.7792, 219.942 83.929" fill="none" style="stroke:rgb(0,0,0);stroke-width:4" />
  <path d="M219.942 83.929 C 243.361 78.1306, 281.848 74.2059, 296.118 75.8784" fill="none" style="stroke:rgb(0,0,0);stroke-width:4" />
  <path d="M296.118 75.8784 C 310.387 77.5509, 336.319 90.8369, 348.781 102.652" fill="none" style="stroke:rgb(0,0,0);stroke-width:4" />
  <path d="M207.807 49.037 C 210.32 46.6767, 209.755 44.8977, 206.793 45.9766" fill="none" style="stroke:rgb(0,0,0);stroke-width:1" />
  <path d="M206.793 45.9766 C 203.83 47.0554, 204.395 48.8344, 207.807 49.037" fill="none" style="stroke:rgb(0,0,0);stroke-width:1" />
  <path d="M207.807 49.037 C 208.334 50.5002, 209.628 54.0106, 210.883 57.5973" fill="none" style="stroke:rgb(0,0,0);stroke-width:1" />
  <path d="M210.883 57.5973 C 212.138 61.184, 216.912 75.1196, 219.942 83.929" fill="none" style="stroke:rgb(0,0,0);stroke-width:1" />
  <path d="M457.849 131.39 C 462.751 123.648, 470.806 111.047, 473.016 107.939" fill="none" style="stroke:rgb(0,0,0);stroke-width:1" />
  <path d="M473.016 107.939 C 475.226 104.831, 477.603 102.189, 478.711 100.905" fill="none" style="stroke:rgb(0,0,0);stroke-width:1" />
  <path d="M478.711 100.905 C 477.115 97.9964, 478.43 96.3653, 480.769 98.4621" fill="none" style="stroke:rgb(0,0,0);stroke-width:1" />
  <path d="M480.769 98.4621 C 483.108 100.559, 481.793 102.19, 478.711 100.905" fill="none" style="stroke:rgb(0,0,0);stroke-width:1" />
  <path d="M362.898 299.117 C 359.652 282.304, 353.539 251.514, 351.874 240.847" fill="none" style="stroke:rgb(0,0,0);stroke-width:4" />
  <path d="M351.874 240.847 C 350.208 230.179, 349.462 214.728, 349.18 206.635" fill="none" style="stroke:rgb(0,0,0);stroke-width:4" />
  <path d="M349.18 206.635 C 347.904 197.61, 345.98 180.933, 346.011 169.019" fill="none" style="stroke:rgb(0,0,0);stroke-width:4" />
  <path d="M346.011 169.019 C 346.042 157.104, 347.766 121.789, 348.781 102.652" fill="none" style="stroke:rgb(0,0,0);stroke-width:4" />
  <path d="M142.377 186.112 C 157.049 203.514, 184.115 235.573, 194.96 248.643" fill="none" style="stroke:rgb(0,0,0);stroke-width:4" />
  <path d="M194.96 248.643 C 205.806 261.713, 226.166 286.969, 237.229 300.741" fill="none" style="stroke:rgb(0,0,0);stroke-width:4" />
  <path d="M237.229 300.741 C 247.671 300, 266.733 298.966, 272.692 298.658" fill="none" style="stroke:rgb(0,0,0);stroke-width:4" />
  <path d="M272.692 298.658 C 278.651 298.351, 284.658 296.128, 287.366 294.227" fill="none" style="stroke:rgb(0,0,0);stroke-width:4" />
  <path d="M287.366 294.227 C 290.034 293.781, 296.15 296.249, 299.791 299.364" fill="none" style="stroke:rgb(0,0,0);stroke-width:4" />
  <path d="M299.791 299.364 C 303.433 302.478, 309.857 305.475, 312.446 305.158" fill="none" style="stroke:rgb(0,0,0);stroke-width:4" />
  <path d="M312.446 305.158 C 315.357 303.364, 321.222 301.255, 327.18 300.933" fill="none" style="stroke:rgb(0,0,0);stroke-width:4" />
  <path d="M327.18 300.933 C 333.137 300.61, 352.498 299.698, 362.898 299.117" fill="none" style="stroke:rgb(0,0,0);stroke-width:4" />
  <path d="M269.752 212.916 C 267.346 207.811, 261.972 196.365, 261.798 195.992" fill="none" style="stroke:rgb(0,0,0);stroke-width:1" />
  <path d="M261.798 195.992 C 261.624 195.618, 266.999 207.063, 269.752 212.916" fill="none" style="stroke:rgb(0,0,0);stroke-width:1" />
  <path d="M269.752 212.916 C 272.655 219.191, 279.409 233.238, 284.269 243.551" fill="none" style="stroke:rgb(0,0,0);stroke-width:1" />
  <path d="M284.269 243.551 C 289.129 253.863, 303.723 285.937, 312.446 305.158" fill="none" style="stroke:rgb(0,0,0);stroke-width:1" />
  <path d="M349.18 206.635 C 334.836 201.659, 311.111 193.676, 303.446 191.092" fill="none" style="stroke:rgb(0,0,0);stroke-width:1" />
  <path d="M303.446 191.092 C 295.782 188.507, 285.402 184.951, 280.971 183.559" fill="none" style="stroke:rgb(0,0,0);stroke-width:1" />
  <path d="M280.971 183.559 C 277.01 182.168, 267.888 179.07, 267.74 179.01" fill="none" style="stroke:rgb(0,0,0);stroke-width:1" />
  <path d="M267.74 179.01 C 267.591 178.949, 276.713 182.047, 280.971 183.559" fill="none" style="stroke:rgb(0,0,0);stroke-width:1" />
  <path d="M237.229 300.741 C 240.416 317.331, 246.549 348.178, 248.257 358.828" fill="none" style="stroke:rgb(0,0,0);stroke-width:4" />
  <path d="M248.257 358.828 C 249.964 369.478, 250.811 384.857, 251.189 393.193" fill="none" style="stroke:rgb(0,0,0);stroke-width:4" />
  <path d="M251.189 393.193 C 252.417 402.06, 254.285 418.827, 254.227 430.793" fill="none" style="stroke:rgb(0,0,0);stroke-width:4" />
  <path d="M254.227 430.793 C 254.17 442.758, 252.632 478.071, 251.851 497.353" fill="none" style="stroke:rgb(0,0,0);stroke-width:4" />
  <path d="M251.851 497.353 C 263.997 508.988, 289.826 522.322, 304.057 524.082" fill="none" style="stroke:rgb(0,0,0);stroke-width:4" />
  <path d="M304.057 524.082 C 318.289 525.842, 356.501 521.925, 379.933 516.187" fill="none" style="stroke:rgb(0,0,0);stroke-width:4" />
  <path d="M379.933 516.187 C 401.716 505.284, 433.744 483.255, 442.684 472.374" fill="none" style="stroke:rgb(0,0,0);stroke-width:4" />
  <path d="M442.684 472.374 C 451.624 461.493, 458.411 432.594, 457.564 414.331" fill="none" style="stroke:rgb(0,0,0);stroke-width:4" />
  <path d="M457.564 414.331 C 442.867 396.697, 416.036 364.504, 405.223 351.342" fill="none" style="stroke:rgb(0,0,0);stroke-width:4" />
  <path d="M405.223 351.342 C 394.409 338.18, 373.907 312.765, 362.898 299.117" fill="none" style="stroke:rgb(0,0,0);stroke-width:4" />
  <path d="M330.21 386.662 C 333.289 393.24, 339.593 406.605, 339.781 406.96" fill="none" style="stroke:rgb(0,0,0);stroke-width:1" />
  <path d="M339.781 406.96 C 339.969 407.315, 333.665 393.95, 330.21 386.662" fill="none" style="stroke:rgb(0,0,0);stroke-width:1" />
  <path d="M330.21 386.662 C 327.333 380.695, 320.602 366.578, 315.779 356.151" fill="none" style="stroke:rgb(0,0,0);stroke-width:1" />
  <path d="M315.779 356.151 C 310.957 345.724, 296.266 313.624, 287.366 294.227" fill="none" style="stroke:rgb(0,0,0);stroke-width:1" />
  <path d="M251.189 393.193 C 265.408 398.019, 288.975 406.135, 296.598 408.732" fill="none" style="stroke:rgb(0,0,0);stroke-width:1" />
  <path d="M296.598 408.732 C 304.222 411.329, 314.724 414.778, 319.325 416.323" fill="none" style="stroke:rgb(0,0,0);stroke-width:1" />
  <path d="M319.325 416.323 C 324.097 417.924, 333.618 421.154, 333.518 421.14" fill="none" style="stroke:rgb(0,0,0);stroke-width:1" />
  <path d="M333.518 421.14 C 333.417 421.126, 323.896 417.896, 319.325 416.323" fill="none" style="stroke:rgb(0,0,0);stroke-width:1" />
  <path d="M58.7991 291.38 C 60.3418 305.862, 66.0416 332.111, 67.9167 341.786" fill="none" style="stroke:rgb(0,0,0);stroke-width:4" />
  <path d="M67.9167 341.786 C 69.7918 351.46, 72.0672 367.327, 74.7495 375.611" fill="none" style="stroke:rgb(0,0,0);stroke-width:4" />
  <path d="M74.7495 375.611 C 78.8913 383.636, 89.5545 399.029, 96.3671 409.623" fill="none" style="stroke:rgb(0,0,0);stroke-width:4" />
  <path d="M96.3671 409.623 C 103.18 420.218, 126.376 451.267, 142.47 468.495" fill="none" style="stroke:rgb(0,0,0);stroke-width:4" />
  <path d="M142.47 468.495 C 160.296 480.225, 190.191 493.079, 202.379 496.439" fill="none" style="stroke:rgb(0,0,0);stroke-width:4" />
  <path d="M202.379 496.439 C 214.566 499.799, 239.362 501.374, 251.851 497.353" fill="none" style="stroke:rgb(0,0,0);stroke-width:4" />
  <path d="M141.023 313.887 C 144.703 320.081, 152.429 332.97, 152.388 332.878" fill="none" style="stroke:rgb(0,0,0);stroke-width:1" />
  <path d="M152.388 332.878 C 152.347 332.786, 144.621 319.897, 141.023 313.887" fill="none" style="stroke:rgb(0,0,0);stroke-width:1" />
  <path d="M141.023 313.887 C 137.321 307.74, 128.394 292.876, 122.046 282.314" fill="none" style="stroke:rgb(0,0,0);stroke-width:1" />
  <path d="M122.046 282.314 C 115.698 271.752, 96.3702 239.916, 84.5144 220.486" fill="none" style="stroke:rgb(0,0,0);stroke-width:1" />
  <path d="M74.7495 375.611 C 88.0166 372.519, 110.092 367.6, 117.164 365.97" fill="none" style="stroke:rgb(0,0,0);stroke-width:1" />
  <path d="M117.164 365.97 C 124.236 364.34, 133.763 361.927, 137.955 360.949" fill="none" style="stroke:rgb(0,0,0);stroke-width:1" />
  <path d="M137.955 360.949 C 142.251 359.914, 150.658 357.784, 150.685 357.799" fill="none" style="stroke:rgb(0,0,0);stroke-width:1" />
  <path d="M150.685 357.799 C 150.712 357.813, 142.304 359.944, 137.955 360.949" fill="none" style="stroke:rgb(0,0,0);stroke-width:1" />
  <path d="M457.564 414.331 C 469.689 412.021, 489.389 403.539, 495.501 398.443" fill="none" style="stroke:rgb(0,0,0);stroke-width:4" />
  <path d="M495.501 398.443 C 501.613 393.347, 510.912 384.453, 515.561 379.58" fill="none" style="stroke:rgb(0,0,0);stroke-width:4" />
  <path d="M515.561 379.58 C 518.412 372.454, 522.459 356.639, 525.552 348.524" fill="none" style="stroke:rgb(0,0,0);stroke-width:4" />
  <path d="M525.552 348.524 C 528.644 340.409, 537.445 320.994, 541.255 309.119" fill="none" style="stroke:rgb(0,0,0);stroke-width:4" />
  <path d="M458.728 285.269 C 455.044 279.146, 447.693 266.933, 447.554 266.728" fill="none" style="stroke:rgb(0,0,0);stroke-width:1" />
  <path d="M447.554 266.728 C 447.414 266.524, 454.765 278.737, 458.728 285.269" fill="none" style="stroke:rgb(0,0,0);stroke-width:1" />
  <path d="M458.728 285.269 C 462.627 291.783, 471.585 306.652, 477.906 317.236" fill="none" style="stroke:rgb(0,0,0);stroke-width:1" />
  <path d="M477.906 317.236 C 484.227 327.82, 503.686 360.106, 515.561 379.58" fill="none" style="stroke:rgb(0,0,0);stroke-width:1" />
  <path d="M525.306 224.374 C 512.008 227.334, 489.966 232.426, 482.912 234.083" fill="none" style="stroke:rgb(0,0,0);stroke-width:1" />
  <path d="M482.912 234.083 C 475.858 235.741, 466.37 238.057, 462.246 239.189" fill="none" style="stroke:rgb(0,0,0);stroke-width:1" />
  <path d="M462.246 239.189 C 458.175 240.133, 449.751 242.098, 449.772 242.07" fill="none" style="stroke:rgb(0,0,0);stroke-width:1" />
  <path d="M449.772 242.07 C 449.792 242.042, 458.216 240.078, 462.246 239.189" fill="none" style="stroke:rgb(0,0,0);stroke-width:1" />
  <path d="M392.257 551.118 C 389.753 553.425, 390.358 555.108, 393.321 554.023" fill="none" style="stroke:rgb(0,0,0);stroke-width:1" />
  <path d="M393.321 554.023 C 396.285 552.939, 395.68 551.256, 392.257 551.118" fill="none" style="stroke:rgb(0,0,0);stroke-width:1" />
  <path d="M392.257 551.118 C 391.794 549.658, 390.467 546.246, 389.199 542.624" fill="none" style="stroke:rgb(0,0,0);stroke-width:1" />
  <path d="M389.199 542.624 C 387.931 539.003, 383.096 524.949, 379.933 516.187" fill="none" style="stroke:rgb(0,0,0);stroke-width:1" />
  <path d="M142.47 468.495 C 137.321 476.333, 129.374 488.814, 127.155 491.946" fill="none" style="stroke:rgb(0,0,0);stroke-width:1" />
  <path d="M127.155 491.946 C 124.935 495.077, 122.316 497.908, 121.336 499.119" fill="none" style="stroke:rgb(0,0,0);stroke-width:1" />
  <path d="M121.336 499.119 C 122.814 502.228, 121.674 503.558, 119.323 501.453" fill="none" style="stroke:rgb(0,0,0);stroke-width:1" />
  <path d="M119.323 501.453 C 116.972 499.348, 118.113 498.018, 121.336 499.119" fill="none" style="stroke:rgb(0,0,0);stroke-width:1" />
  <ellipse cx="348.781" cy="102.652" rx="1.35755" ry="1.35755"  style="fill:rgb(0,0,0)" />
  <ellipse cx="457.849" cy="131.39" rx="1.35755" ry="1.35755"  style="fill:rgb(0,0,0)" />
  <ellipse cx="525.306" cy="224.374" rx="1.35755" ry="1.35755"  style="fill:rgb(0,0,0)" />
  <ellipse cx="541.255" cy="309.119" rx="1.35755" ry="1.35755"  style="fill:rgb(0,0,0)" />
  <ellipse cx="58.7991" cy="291.38" rx="1.35755" ry="1.35755"  style="fill:rgb(0,0,0)" />
  <ellipse cx="84.5144" cy="220.486" rx="1.35755" ry="1.35755"  style="fill:rgb(0,0,0)" />
  <ellipse cx="142.377" cy="186.112" rx="1.35755" ry="1.35755"  style="fill:rgb(0,0,0)" />
  <ellipse cx="219.942" cy="83.929" rx="1.35755" ry="1.35755"  style="fill:rgb(0,0,0)" />
  <ellipse cx="207.807" cy="49.037" rx="1.35755" ry="1.35755"  style="fill:rgb(0,0,0)" />
  <ellipse cx="478.711" cy="100.905" rx="1.35755" ry="1.35755"  style="fill:rgb(0,0,0)" />
  <ellipse cx="362.898" cy="299.117" rx="1.35755" ry="1.35755"  style="fill:rgb(0,0,0)" />
  <ellipse cx="349.18" cy="206.635" rx="1.35755" ry="1.35755"  style="fill:rgb(0,0,0)" />
  <ellipse cx="237.229" cy="300.741" rx="1.35755" ry="1.35755"  style="fill:rgb(0,0,0)" />
  <ellipse cx="287.366" cy="294.227" rx="1.35755" ry="1.35755"  style="fill:rgb(0,0,0)" />
  <ellipse cx="312.446" cy="305.158" rx="1.35755" ry="1.35755"  style="fill:rgb(0,0,0)" />
  <ellipse cx="269.752" cy="212.916" rx="1.35755" ry="1.35755"  style="fill:rgb(0,0,0)" />
  <ellipse cx="280.971" cy="183.559" rx="1.35755" ry="1.35755"  style="fill:rgb(0,0,0)" />
  <ellipse cx="251.189" cy="393.193" rx="1.35755" ry="1.35755"  style="fill:rgb(0,0,0)" />
  <ellipse cx="251.851" cy="497.353" rx="1.35755" ry="1.35755"  style="fill:rgb(0,0,0)" />
  <ellipse cx="379.933" cy="516.187" rx="1.35755" ry="1.35755"  style="fill:rgb(0,0,0)" />
  <ellipse cx="457.564" cy="414.331" rx="1.35755" ry="1.35755"  style="fill:rgb(0,0,0)" />
  <ellipse cx="330.21" cy="386.662" rx="1.35755" ry="1.35755"  style="fill:rgb(0,0,0)" />
  <ellipse cx="319.325" cy="416.323" rx="1.35755" ry="1.35755"  style="fill:rgb(0,0,0)" />
  <ellipse cx="74.7495" cy="375.611" rx="1.35755" ry="1.35755"  style="fill:rgb(0,0,0)" />
  <ellipse cx="142.47" cy="468.495" rx="1.35755" ry="1.35755"  style="fill:rgb(0,0,0)" />
  <ellipse cx="141.023" cy="313.887" rx="1.35755" ry="1.35755"  style="fill:rgb(0,0,0)" />
  <ellipse cx="137.955" cy="360.949" rx="1.35755" ry="1.35755"  style="fill:rgb(0,0,0)" />
  <ellipse cx="515.561" cy="379.58" rx="1.35755" ry="1.35755"  style="fill:rgb(0,0,0)" />
  <ellipse cx="458.728" cy="285.269" rx="1.35755" ry="1.35755"  style="fill:rgb(0,0,0)" />
  <ellipse cx="462.246" cy="239.189" rx="1.35755" ry="1.35755"  style="fill:rgb(0,0,0)" />
  <ellipse cx="392.257" cy="551.118" rx="1.35755" ry="1.35755"  style="fill:rgb(0,0,0)" />
  <ellipse cx="121.336" cy="499.119" rx="1.35755" ry="1.35755"  style="fill:rgb(0,0,0)" />
</svg>
