<svg height="600" width="600">
  <line x1="585.093" y1="263.231" x2="600" y2="261.811" style="stroke:rgb(0,0,0);stroke-width:4" />
  <line x1="600" y1="261.811" x2="597.616" y2="264.697" style="stroke:rgb(0,0,0);stroke-width:4" />
  <line x1="600" y1="261.811" x2="597.114" y2="259.427" style="stroke:rgb(0,0,0);stroke-width:4" />
  <line x1="150.109" y1="571.896" x2="142.71" y2="584.773" style="stroke:rgb(0,0,0);stroke-width:4" />
  <line x1="142.71" y1="584.773" x2="141.741" y2="581.189" style="stroke:rgb(0,0,0);stroke-width:4" />
  <line x1="142.71" y1="584.773" x2="146.294" y2="583.805" style="stroke:rgb(0,0,0);stroke-width:4" />
  <line x1="99.4138" y1="40.6483" x2="92.536" y2="27.4753" style="stroke:rgb(0,0,0);stroke-width:4" />
  <line x1="92.536" y1="27.4753" x2="96.0805" y2="28.5881" style="stroke:rgb(0,0,0);stroke-width:4" />
  <line x1="92.536" y1="27.4753" x2="91.4232" y2="31.0198" style="stroke:rgb(0,0,0);stroke-width:4" />
  <path d="M177.096 511.547 C 132.027 484.032, 63.1096 439.204, 49.4831 424.491" fill="none" style="stroke:rgb(0,0,0);stroke-width:4" />
  <path d="M49.4831 424.491 C 35.8567 409.778, 30.7679 386.109, 29.0832 374.552" fill="none" style="stroke:rgb(0,0,0);stroke-width:4" />
  <path d="M177.096 511.547 C 174.462 517.318, 169.604 527.923, 167.458 532.587" fill="none" style="stroke:rgb(0,0,0);stroke-width:4" />
  <path d="M167.458 532.587 C 165.313 537.25, 161.63 545.282, 160.013 548.824" fill="none" style="stroke:rgb(0,0,0);stroke-width:4" />
  <path d="M177.096 511.547 C 227.273 527.846, 305.901 550.913, 325.924 551.696" fill="none" style="stroke:rgb(0,0,0);stroke-width:4" />
  <path d="M325.924 551.696 C 345.947 552.478, 367.426 541.081, 377.312 534.889" fill="none" style="stroke:rgb(0,0,0);stroke-width:4" />
  <path d="M377.312 534.889 C 396.43 533.643, 428.756 527.537, 439.91 519.606" fill="none" style="stroke:rgb(0,0,0);stroke-width:4" />
  <path d="M439.91 519.606 C 451.065 511.675, 467.544 483.278, 474.922 465.882" fill="none" style="stroke:rgb(0,0,0);stroke-width:4" />
  <path d="M377.312 534.889 C 363.071 522.699, 337.065 500.43, 329.402 493.597" fill="none" style="stroke:rgb(0,0,0);stroke-width:4" />
  <path d="M329.402 493.597 C 321.739 486.763, 314.226 479.596, 310.273 476.017" fill="none" style="stroke:rgb(0,0,0);stroke-width:4" />
  <path d="M519.335 269.333 C 508.408 217.833, 489.004 137.958, 479.794 120.234" fill="none" style="stroke:rgb(0,0,0);stroke-width:4" />
  <path d="M479.794 120.234 C 470.584 102.51, 450.191 89.8945, 439.742 84.3517" fill="none" style="stroke:rgb(0,0,0);stroke-width:4" />
  <path d="M519.335 269.333 C 518.042 321.839, 513.652 404.022, 507.796 423.242" fill="none" style="stroke:rgb(0,0,0);stroke-width:4" />
  <path d="M507.796 423.242 C 501.94 442.463, 484.124 458.555, 474.922 465.882" fill="none" style="stroke:rgb(0,0,0);stroke-width:4" />
  <path d="M519.335 269.333 C 525.688 268.733, 537.327 267.639, 542.485 267.16" fill="none" style="stroke:rgb(0,0,0);stroke-width:4" />
  <path d="M542.485 267.16 C 547.643 266.68, 556.488 265.859, 560.305 265.502" fill="none" style="stroke:rgb(0,0,0);stroke-width:4" />
  <path d="M474.922 465.882 C 468.244 448.354, 455.75 416.684, 451.844 407.213" fill="none" style="stroke:rgb(0,0,0);stroke-width:4" />
  <path d="M451.844 407.213 C 447.937 397.742, 443.969 387.935, 441.997 382.928" fill="none" style="stroke:rgb(0,0,0);stroke-width:4" />
  <path d="M439.742 84.3517 C 436.436 102.871, 430.053 136.487, 427.962 146.587" fill="none" style="stroke:rgb(0,0,0);stroke-width:4" />
  <path d="M427.962 146.587 C 425.871 156.686, 423.684 167.02, 422.602 172.25" fill="none" style="stroke:rgb(0,0,0);stroke-width:4" />
  <path d="M439.742 84.3517 C 429.251 68.6184, 407.789 43.6992, 395.422 37.929" fill="none" style="stroke:rgb(0,0,0);stroke-width:4" />
  <path d="M395.422 37.929 C 383.055 32.1589, 350.288 32.0496, 331.284 34.2948" fill="none" style="stroke:rgb(0,0,0);stroke-width:4" />
  <path d="M138.225 93.8674 C 184.781 68.5644, 257.971 31.3479, 277.542 26.9194" fill="none" style="stroke:rgb(0,0,0);stroke-width:4" />
  <path d="M277.542 26.9194 C 297.113 22.4908, 320.452 29.921, 331.284 34.2948" fill="none" style="stroke:rgb(0,0,0);stroke-width:4" />
  <path d="M138.225 93.8674 C 134.612 88.6841, 127.826 79.0448, 124.835 74.8288" fill="none" style="stroke:rgb(0,0,0);stroke-width:4" />
  <path d="M124.835 74.8288 C 121.843 70.6128, 116.84 63.5304, 114.648 60.4239" fill="none" style="stroke:rgb(0,0,0);stroke-width:4" />
  <path d="M138.225 93.8674 C 99.273 129.044, 39.921 185.873, 29.1817 202.768" fill="none" style="stroke:rgb(0,0,0);stroke-width:4" />
  <path d="M29.1817 202.768 C 18.4424 219.662, 17.7264 243.58, 18.0888 255.362" fill="none" style="stroke:rgb(0,0,0);stroke-width:4" />
  <path d="M331.284 34.2948 C 319.49 48.8699, 298.272 75.4081, 291.997 83.5195" fill="none" style="stroke:rgb(0,0,0);stroke-width:4" />
  <path d="M291.997 83.5195 C 285.721 91.6309, 279.407 100.051, 276.22 104.212" fill="none" style="stroke:rgb(0,0,0);stroke-width:4" />
  <path d="M29.0832 374.552 C 47.5765 377.428, 81.1702 382.469, 91.298 383.748" fill="none" style="stroke:rgb(0,0,0);stroke-width:4" />
  <path d="M91.298 383.748 C 101.426 385.028, 111.811 386.171, 117.042 386.921" fill="none" style="stroke:rgb(0,0,0);stroke-width:4" />
  <path d="M29.0832 374.552 C 17.5534 359.16, 1.20059 330.723, 0 317.112" fill="none" style="stroke:rgb(0,0,0);stroke-width:4" />
  <path d="M0 317.112 C -1.20059 303.502, 9.6551 272.344, 18.0888 255.362" fill="none" style="stroke:rgb(0,0,0);stroke-width:4" />
  <path d="M18.0888 255.362 C 35.7689 248.962, 68.1763 237.486, 77.9255 234.251" fill="none" style="stroke:rgb(0,0,0);stroke-width:4" />
  <path d="M77.9255 234.251 C 87.6747 231.016, 97.6804 227.877, 102.915 226.131" fill="none" style="stroke:rgb(0,0,0);stroke-width:4" />
  <path d="M274.651 421.48 C 260.057 419.405, 233.385 415.845, 222.727 410.922" fill="none" style="stroke:rgb(0,0,0);stroke-width:4" />
  <path d="M222.727 410.922 C 212.069 405.999, 191.902 387.764, 180.974 377.893" fill="none" style="stroke:rgb(0,0,0);stroke-width:4" />
  <path d="M274.651 421.48 C 277.948 428.363, 283.927 441.004, 285.834 445.017" fill="none" style="stroke:rgb(0,0,0);stroke-width:4" />
  <path d="M285.834 445.017 C 287.74 449.031, 290.165 453.869, 291.456 456.44" fill="none" style="stroke:rgb(0,0,0);stroke-width:4" />
  <path d="M274.651 421.48 C 286.148 417.326, 308.159 409.73, 315.55 404.649" fill="none" style="stroke:rgb(0,0,0);stroke-width:4" />
  <path d="M315.55 404.649 C 322.941 399.569, 332.664 384.643, 338.12 376.435" fill="none" style="stroke:rgb(0,0,0);stroke-width:4" />
  <path d="M180.974 377.893 C 176.554 366.328, 168.081 344.709, 167.237 335.78" fill="none" style="stroke:rgb(0,0,0);stroke-width:4" />
  <path d="M167.237 335.78 C 166.393 326.851, 171.666 309.573, 174.575 300.099" fill="none" style="stroke:rgb(0,0,0);stroke-width:4" />
  <path d="M180.974 377.893 C 173.552 379.904, 160.192 383.552, 155.941 384.747" fill="none" style="stroke:rgb(0,0,0);stroke-width:4" />
  <path d="M155.941 384.747 C 151.691 385.941, 146.546 387.368, 143.965 388.043" fill="none" style="stroke:rgb(0,0,0);stroke-width:4" />
  <path d="M402.317 332.368 C 394.587 341.884, 380.173 359.723, 372.874 364.952" fill="none" style="stroke:rgb(0,0,0);stroke-width:4" />
  <path d="M372.874 364.952 C 365.574 370.181, 347.89 374.375, 338.12 376.435" fill="none" style="stroke:rgb(0,0,0);stroke-width:4" />
  <path d="M402.317 332.368 C 407.66 337.769, 417.392 347.329, 420.533 350.409" fill="none" style="stroke:rgb(0,0,0);stroke-width:4" />
  <path d="M420.533 350.409 C 423.674 353.49, 427.395 357.418, 429.223 359.343" fill="none" style="stroke:rgb(0,0,0);stroke-width:4" />
  <path d="M402.317 332.368 C 405.307 318.042, 410.89 291.838, 409.78 280.155" fill="none" style="stroke:rgb(0,0,0);stroke-width:4" />
  <path d="M409.78 280.155 C 408.671 268.471, 398.492 243.516, 393.124 230.049" fill="none" style="stroke:rgb(0,0,0);stroke-width:4" />
  <path d="M393.124 230.049 C 383.58 222.071, 366.316 206.99, 358.214 203.128" fill="none" style="stroke:rgb(0,0,0);stroke-width:4" />
  <path d="M358.214 203.128 C 350.111 199.267, 331.937 197.992, 322.248 197.337" fill="none" style="stroke:rgb(0,0,0);stroke-width:4" />
  <path d="M393.124 230.049 C 397.363 223.771, 405.221 211.963, 407.699 208.245" fill="none" style="stroke:rgb(0,0,0);stroke-width:4" />
  <path d="M407.699 208.245 C 410.177 204.527, 413.166 200.29, 414.818 197.96" fill="none" style="stroke:rgb(0,0,0);stroke-width:4" />
  <path d="M338.12 376.435 C 331.944 367.653, 320.451 351.248, 316.984 346.329" fill="none" style="stroke:rgb(0,0,0);stroke-width:4" />
  <path d="M316.984 346.329 C 313.517 341.41, 309.968 336.56, 308.037 333.926" fill="none" style="stroke:rgb(0,0,0);stroke-width:4" />
  <path d="M251.773 163.781 C 264.003 165.731, 286.98 169.249, 295.131 173.021" fill="none" style="stroke:rgb(0,0,0);stroke-width:4" />
  <path d="M295.131 173.021 C 303.282 176.792, 315.542 190.051, 322.248 197.337" fill="none" style="stroke:rgb(0,0,0);stroke-width:4" />
  <path d="M251.773 163.781 C 253.636 156.593, 257.386 143.128, 258.562 138.872" fill="none" style="stroke:rgb(0,0,0);stroke-width:4" />
  <path d="M258.562 138.872 C 259.739 134.615, 261.007 129.617, 261.808 126.856" fill="none" style="stroke:rgb(0,0,0);stroke-width:4" />
  <path d="M251.773 163.781 C 237.795 168.315, 212.133 176.415, 202.519 183.208" fill="none" style="stroke:rgb(0,0,0);stroke-width:4" />
  <path d="M202.519 183.208 C 192.906 190.001, 176.41 211.426, 167.458 222.833" fill="none" style="stroke:rgb(0,0,0);stroke-width:4" />
  <path d="M167.458 222.833 C 159.899 222.267, 146.147 221.157, 141.724 220.819" fill="none" style="stroke:rgb(0,0,0);stroke-width:4" />
  <path d="M141.724 220.819 C 137.3 220.481, 131.967 220.141, 129.287 219.935" fill="none" style="stroke:rgb(0,0,0);stroke-width:4" />
  <path d="M167.458 222.833 C 165.123 235.053, 160.6 257.409, 161.37 266.313" fill="none" style="stroke:rgb(0,0,0);stroke-width:4" />
  <path d="M161.37 266.313 C 162.141 275.218, 170.223 291.494, 174.575 300.099" fill="none" style="stroke:rgb(0,0,0);stroke-width:4" />
  <path d="M174.575 300.099 C 185.252 299.105, 205.03 297.364, 211.026 296.877" fill="none" style="stroke:rgb(0,0,0);stroke-width:4" />
  <path d="M211.026 296.877 C 217.022 296.389, 223.221 295.842, 226.529 295.522" fill="none" style="stroke:rgb(0,0,0);stroke-width:4" />
  <path d="M322.248 197.337 C 317.673 207.109, 309.435 225.012, 306.871 230.508" fill="none" style="stroke:rgb(0,0,0);stroke-width:4" />
  <path d="M306.871 230.508 C 304.306 236.003, 301.598 241.669, 300.356 244.475" fill="none" style="stroke:rgb(0,0,0);stroke-width:4" />
  <path d="M278.375 291.407 C 282.286 297.146, 289.425 307.393, 291.693 310.6" fill="none" style="stroke:rgb(0,0,0);stroke-width:4" />
  <path d="M291.693 310.6 C 293.961 313.807, 296.477 317.593, 297.686 319.472" fill="none" style="stroke:rgb(0,0,0);stroke-width:4" />
  <path d="M278.375 291.407 C 281.324 285.192, 286.744 274.047, 288.413 270.489" fill="none" style="stroke:rgb(0,0,0);stroke-width:4" />
  <path d="M288.413 270.489 C 290.082 266.931, 291.876 262.676, 292.803 260.605" fill="none" style="stroke:rgb(0,0,0);stroke-width:4" />
  <path d="M278.375 291.407 C 271.638 291.897, 258.96 292.897, 255.034 293.192" fill="none" style="stroke:rgb(0,0,0);stroke-width:4" />
  <path d="M255.034 293.192 C 251.109 293.487, 246.764 293.699, 244.329 293.831" fill="none" style="stroke:rgb(0,0,0);stroke-width:4" />
  <path d="M585.093 263.231 C 585.016 285.687, 583.7 328.354, 580.981 331.986" fill="none" style="stroke:rgb(0,0,0);stroke-width:1" />
  <path d="M580.981 331.986 C 578.263 335.619, 567.185 294.087, 560.305 265.502" fill="none" style="stroke:rgb(0,0,0);stroke-width:1" />
  <path d="M585.093 263.231 C 580.889 241.134, 571.769 199.423, 568.433 196.373" fill="none" style="stroke:rgb(0,0,0);stroke-width:4" />
  <path d="M568.433 196.373 C 565.097 193.324, 561.822 236.17, 560.305 265.502" fill="none" style="stroke:rgb(0,0,0);stroke-width:4" />
  <path d="M150.109 571.896 C 130.575 560.512, 94.0631 537.948, 92.2125 533.73" fill="none" style="stroke:rgb(0,0,0);stroke-width:1" />
  <path d="M92.2125 533.73 C 90.3619 529.512, 131.826 540.54, 160.013 548.824" fill="none" style="stroke:rgb(0,0,0);stroke-width:1" />
  <path d="M150.109 571.896 C 171.115 579.187, 211.282 591.918, 215.605 590.55" fill="none" style="stroke:rgb(0,0,0);stroke-width:4" />
  <path d="M215.605 590.55 C 219.928 589.182, 184.713 564.915, 160.013 548.824" fill="none" style="stroke:rgb(0,0,0);stroke-width:4" />
  <path d="M99.4138 40.6483 C 119.258 29.2563, 157.278 8.83673, 161.722 9.44993" fill="none" style="stroke:rgb(0,0,0);stroke-width:1" />
  <path d="M161.722 9.44993 C 166.167 10.0631, 135.764 40.3706, 114.648 60.4239" fill="none" style="stroke:rgb(0,0,0);stroke-width:1" />
  <path d="M99.4138 40.6483 C 82.5861 55.2575, 51.5066 83.6724, 50.7127 87.9711" fill="none" style="stroke:rgb(0,0,0);stroke-width:4" />
  <path d="M50.7127 87.9711 C 49.9187 92.2697, 88.6153 73.7427, 114.648 60.4239" fill="none" style="stroke:rgb(0,0,0);stroke-width:4" />
  <path d="M310.273 476.017 C 294.009 474.071, 263.591 470.481, 261.204 468.167" fill="none" style="stroke:rgb(0,0,0);stroke-width:1" />
  <path d="M261.204 468.167 C 258.817 465.852, 279.826 459.653, 291.456 456.44" fill="none" style="stroke:rgb(0,0,0);stroke-width:1" />
  <path d="M310.273 476.017 C 319.749 471.781, 337.776 463.818, 335.708 461.471" fill="none" style="stroke:rgb(0,0,0);stroke-width:4" />
  <path d="M335.708 461.471 C 333.64 459.123, 306.204 457.297, 291.456 456.44" fill="none" style="stroke:rgb(0,0,0);stroke-width:4" />
  <path d="M441.997 382.928 C 434.703 390.593, 421.27 404.712, 419.708 402.154" fill="none" style="stroke:rgb(0,0,0);stroke-width:1" />
  <path d="M419.708 402.154 C 418.147 399.597, 425.193 373.685, 429.223 359.343" fill="none" style="stroke:rgb(0,0,0);stroke-width:1" />
  <path d="M441.997 382.928 C 445.466 367.118, 451.888 337.258, 450.534 334.216" fill="none" style="stroke:rgb(0,0,0);stroke-width:4" />
  <path d="M450.534 334.216 C 449.181 331.173, 436.372 349.241, 429.223 359.343" fill="none" style="stroke:rgb(0,0,0);stroke-width:4" />
  <path d="M422.602 172.25 C 428.906 187.155, 440.723 214.894, 439.915 218.095" fill="none" style="stroke:rgb(0,0,0);stroke-width:1" />
  <path d="M439.915 218.095 C 439.107 221.296, 423.399 206.413, 414.818 197.96" fill="none" style="stroke:rgb(0,0,0);stroke-width:1" />
  <path d="M422.602 172.25 C 414.131 166.092, 398.091 154.319, 397.053 157.212" fill="none" style="stroke:rgb(0,0,0);stroke-width:4" />
  <path d="M397.053 157.212 C 396.015 160.106, 408.162 184.735, 414.818 197.96" fill="none" style="stroke:rgb(0,0,0);stroke-width:4" />
  <path d="M276.22 104.212 C 286.527 106.777, 305.76 111.456, 304.154 114.121" fill="none" style="stroke:rgb(0,0,0);stroke-width:1" />
  <path d="M304.154 114.121 C 302.548 116.785, 276.109 123.429, 261.808 126.856" fill="none" style="stroke:rgb(0,0,0);stroke-width:1" />
  <path d="M276.22 104.212 C 260.88 109.002, 231.701 117.969, 229.718 120.696" fill="none" style="stroke:rgb(0,0,0);stroke-width:4" />
  <path d="M229.718 120.696 C 227.736 123.424, 249.708 125.778, 261.808 126.856" fill="none" style="stroke:rgb(0,0,0);stroke-width:4" />
  <path d="M117.042 386.921 C 114.125 376.969, 108.569 358.108, 111.56 358.012" fill="none" style="stroke:rgb(0,0,0);stroke-width:1" />
  <path d="M111.56 358.012 C 114.552 357.916, 133.569 377.339, 143.965 388.043" fill="none" style="stroke:rgb(0,0,0);stroke-width:1" />
  <path d="M117.042 386.921 C 129.008 397.962, 151.468 418.614, 154.778 418.978" fill="none" style="stroke:rgb(0,0,0);stroke-width:4" />
  <path d="M154.778 418.978 C 158.088 419.342, 149.09 399.251, 143.965 388.043" fill="none" style="stroke:rgb(0,0,0);stroke-width:4" />
  <path d="M102.915 226.131 C 112.592 213.177, 131.002 188.755, 134.241 187.755" fill="none" style="stroke:rgb(0,0,0);stroke-width:1" />
  <path d="M134.241 187.755 C 137.481 186.755, 132.258 208.079, 129.287 219.935" fill="none" style="stroke:rgb(0,0,0);stroke-width:1" />
  <path d="M102.915 226.131 C 101.654 236.449, 99.5133 256.099, 102.534 255.637" fill="none" style="stroke:rgb(0,0,0);stroke-width:4" />
  <path d="M102.534 255.637 C 105.555 255.175, 120.881 232.428, 129.287 219.935" fill="none" style="stroke:rgb(0,0,0);stroke-width:4" />
  <path d="M297.686 319.472 C 306.635 315.776, 322.688 309.229, 323.739 311.046" fill="none" style="stroke:rgb(0,0,0);stroke-width:4" />
  <path d="M323.739 311.046 C 324.791 312.863, 313.915 326.637, 308.037 333.926" fill="none" style="stroke:rgb(0,0,0);stroke-width:4" />
  <path d="M297.686 319.472 C 291.223 326.423, 279.586 339.084, 280.966 340.712" fill="none" style="stroke:rgb(0,0,0);stroke-width:1" />
  <path d="M280.966 340.712 C 282.347 342.341, 299.159 336.907, 308.037 333.926" fill="none" style="stroke:rgb(0,0,0);stroke-width:1" />
  <path d="M292.803 260.605 C 285.482 254.821, 271.7 244.001, 272.561 242.131" fill="none" style="stroke:rgb(0,0,0);stroke-width:4" />
  <path d="M272.561 242.131 C 273.421 240.262, 290.98 243.016, 300.356 244.475" fill="none" style="stroke:rgb(0,0,0);stroke-width:4" />
  <path d="M292.803 260.605 C 302.14 262.712, 319.147 266.454, 319.921 264.543" fill="none" style="stroke:rgb(0,0,0);stroke-width:1" />
  <path d="M319.921 264.543 C 320.694 262.633, 307.464 250.826, 300.356 244.475" fill="none" style="stroke:rgb(0,0,0);stroke-width:1" />
  <path d="M244.329 293.831 C 243.127 303.306, 240.757 320.499, 238.598 320.526" fill="none" style="stroke:rgb(0,0,0);stroke-width:4" />
  <path d="M238.598 320.526 C 236.438 320.554, 229.907 304.206, 226.529 295.522" fill="none" style="stroke:rgb(0,0,0);stroke-width:4" />
  <path d="M244.329 293.831 C 241.616 284.717, 236.412 267.951, 234.273 268.292" fill="none" style="stroke:rgb(0,0,0);stroke-width:1" />
  <path d="M234.273 268.292 C 232.133 268.633, 228.437 286.243, 226.529 295.522" fill="none" style="stroke:rgb(0,0,0);stroke-width:1" />
  <ellipse cx="278.31" cy="291.639" rx="1.57791" ry="1.57791"  style="fill:rgb(0,0,0)" />
  <ellipse cx="177.096" cy="511.547" rx="1.57791" ry="1.57791"  style="fill:rgb(0,0,0)" />
  <ellipse cx="377.312" cy="534.889" rx="1.57791" ry="1.57791"  style="fill:rgb(0,0,0)" />
  <ellipse cx="519.335" cy="269.333" rx="1.57791" ry="1.57791"  style="fill:rgb(0,0,0)" />
  <ellipse cx="474.922" cy="465.882" rx="1.57791" ry="1.57791"  style="fill:rgb(0,0,0)" />
  <ellipse cx="439.742" cy="84.3517" rx="1.57791" ry="1.57791"  style="fill:rgb(0,0,0)" />
  <ellipse cx="138.225" cy="93.8674" rx="1.57791" ry="1.57791"  style="fill:rgb(0,0,0)" />
  <ellipse cx="331.284" cy="34.2948" rx="1.57791" ry="1.57791"  style="fill:rgb(0,0,0)" />
  <ellipse cx="29.0832" cy="374.552" rx="1.57791" ry="1.57791"  style="fill:rgb(0,0,0)" />
  <ellipse cx="18.0888" cy="255.362" rx="1.57791" ry="1.57791"  style="fill:rgb(0,0,0)" />
  <ellipse cx="274.651" cy="421.48" rx="1.57791" ry="1.57791"  style="fill:rgb(0,0,0)" />
  <ellipse cx="180.974" cy="377.893" rx="1.57791" ry="1.57791"  style="fill:rgb(0,0,0)" />
  <ellipse cx="402.317" cy="332.368" rx="1.57791" ry="1.57791"  style="fill:rgb(0,0,0)" />
  <ellipse cx="393.124" cy="230.049" rx="1.57791" ry="1.57791"  style="fill:rgb(0,0,0)" />
  <ellipse cx="338.12" cy="376.435" rx="1.57791" ry="1.57791"  style="fill:rgb(0,0,0)" />
  <ellipse cx="251.773" cy="163.781" rx="1.57791" ry="1.57791"  style="fill:rgb(0,0,0)" />
  <ellipse cx="167.458" cy="222.833" rx="1.57791" ry="1.57791"  style="fill:rgb(0,0,0)" />
  <ellipse cx="174.575" cy="300.099" rx="1.57791" ry="1.57791"  style="fill:rgb(0,0,0)" />
  <ellipse cx="322.248" cy="197.337" rx="1.57791" ry="1.57791"  style="fill:rgb(0,0,0)" />
  <ellipse cx="278.375" cy="291.407" rx="1.57791" ry="1.57791"  style="fill:rgb(0,0,0)" />
  <ellipse cx="560.305" cy="265.502" rx="1.57791" ry="1.57791"  style="fill:rgb(0,0,0)" />
  <ellipse cx="585.093" cy="263.231" rx="1.57791" ry="1.57791"  style="fill:rgb(0,0,0)" />
  <ellipse cx="160.013" cy="548.824" rx="1.57791" ry="1.57791"  style="fill:rgb(0,0,0)" />
  <ellipse cx="150.109" cy="571.896" rx="1.57791" ry="1.57791"  style="fill:rgb(0,0,0)" />
  <ellipse cx="114.648" cy="60.4239" rx="1.57791" ry="1.57791"  style="fill:rgb(0,0,0)" />
  <ellipse cx="99.4138" cy="40.6483" rx="1.57791" ry="1.57791"  style="fill:rgb(0,0,0)" />
  <ellipse cx="291.456" cy="456.44" rx="1.57791" ry="1.57791"  style="fill:rgb(0,0,0)" />
  <ellipse cx="310.273" cy="476.017" rx="1.57791" ry="1.57791"  style="fill:rgb(0,0,0)" />
  <ellipse cx="429.223" cy="359.343" rx="1.57791" ry="1.57791"  style="fill:rgb(0,0,0)" />
  <ellipse cx="441.997" cy="382.928" rx="1.57791" ry="1.57791"  style="fill:rgb(0,0,0)" />
  <ellipse cx="414.818" cy="197.96" rx="1.57791" ry="1.57791"  style="fill:rgb(0,0,0)" />
  <ellipse cx="422.602" cy="172.25" rx="1.57791" ry="1.57791"  style="fill:rgb(0,0,0)" />
  <ellipse cx="261.808" cy="126.856" rx="1.57791" ry="1.57791"  style="fill:rgb(0,0,0)" />
  <ellipse cx="276.22" cy="104.212" rx="1.57791" ry="1.57791"  style="fill:rgb(0,0,0)" />
  <ellipse cx="143.965" cy="388.043" rx="1.57791" ry="1.57791"  style="fill:rgb(0,0,0)" />
  <ellipse cx="117.042" cy="386.921" rx="1.57791" ry="1.57791"  style="fill:rgb(0,0,0)" />
  <ellipse cx="129.287" cy="219.935" rx="1.57791" ry="1.57791"  style="fill:rgb(0,0,0)" />
  <ellipse cx="102.915" cy="226.131" rx="1.57791" ry="1.57791"  style="fill:rgb(0,0,0)" />
  <ellipse cx="308.037" cy="333.926" rx="1.57791" ry="1.57791"  style="fill:rgb(0,0,0)" />
  <ellipse cx="297.686" cy="319.472" rx="1.57791" ry="1.57791"  style="fill:rgb(0,0,0)" />
  <ellipse cx="300.356" cy="244.475" rx="1.57791" ry="1.57791"  style="fill:rgb(0,0,0)" />
  <ellipse cx="292.803" cy="260.605" rx="1.57791" ry="1.57791"  style="fill:rgb(0,0,0)" />
  <ellipse cx="226.529" cy="295.522" rx="1.57791" ry="1.57791"  style="fill:rgb(0,0,0)" />
  <ellipse cx="244.329" cy="293.831" rx="1.57791" ry="1.57791"  style="fill:rgb(0,0,0)" />
</svg>
