<svg height="600" width="600">
  <path d="M568.357 193.777 C 579.517 232.808, 599.162 321.662, 587.537 368.195" fill="none" style="stroke:rgb(0,0,0);stroke-width:4" />
  <path d="M587.537 368.195 C 575.912 414.728, 513.353 492.458, 482.528 526.945" fill="none" style="stroke:rgb(0,0,0);stroke-width:4" />
  <path d="M482.528 526.945 C 438.989 553.522, 347.369 599.872, 299.774 600" fill="none" style="stroke:rgb(0,0,0);stroke-width:4" />
  <path d="M299.774 600 C 252.18 600.128, 163.482 555.203, 121.893 529.793" fill="none" style="stroke:rgb(0,0,0);stroke-width:4" />
  <path d="M121.893 529.793 C 89.1301 498.384, 26.2458 430.411, 12.4626 387.687" fill="none" style="stroke:rgb(0,0,0);stroke-width:4" />
  <path d="M12.4626 387.687 C -1.32067 344.963, 8.41867 250.429, 15.6028 204.779" fill="none" style="stroke:rgb(0,0,0);stroke-width:4" />
  <path d="M15.6028 204.779 C 36.2297 161.719, 83.3976 76.9204, 120.086 49.9665" fill="none" style="stroke:rgb(0,0,0);stroke-width:4" />
  <path d="M120.086 49.9665 C 156.774 23.0126, 249.418 5.42158, 295.226 -5.68434e-14" fill="none" style="stroke:rgb(0,0,0);stroke-width:4" />
  <path d="M295.226 -5.68434e-14 C 330.172 29.3411, 395.495 83.9027, 427.122 106.346" fill="none" style="stroke:rgb(0,0,0);stroke-width:4" />
  <path d="M427.122 106.346 C 458.749 128.79, 529.991 171.117, 568.357 193.777" fill="none" style="stroke:rgb(0,0,0);stroke-width:4" />
  <path d="M568.357 193.777 C 554.017 152.468, 515.392 70.0337, 478.354 43.5138" fill="none" style="stroke:rgb(0,0,0);stroke-width:1" />
  <path d="M478.354 43.5138 C 441.317 16.9939, 343.377 2.53948, 295.226 -5.68434e-14" fill="none" style="stroke:rgb(0,0,0);stroke-width:1" />
  <path d="M424.721 270.796 C 439.437 261.123, 467.618 243.685, 484.34 235.236" fill="none" style="stroke:rgb(0,0,0);stroke-width:4" />
  <path d="M484.34 235.236 C 501.063 226.787, 544.7 205.716, 568.357 193.777" fill="none" style="stroke:rgb(0,0,0);stroke-width:4" />
  <path d="M295.226 -5.68434e-14 C 293.333 24.7003, 290.746 70.1423, 288.691 87.0644" fill="none" style="stroke:rgb(0,0,0);stroke-width:4" />
  <path d="M288.691 87.0644 C 286.637 103.987, 277.855 131.866, 272.489 146.642" fill="none" style="stroke:rgb(0,0,0);stroke-width:4" />
  <path d="M272.489 146.642 C 293.807 150.318, 333.381 157.095, 342.004 164.495" fill="none" style="stroke:rgb(0,0,0);stroke-width:4" />
  <path d="M342.004 164.495 C 350.627 171.895, 347.726 197.493, 345.836 211.391" fill="none" style="stroke:rgb(0,0,0);stroke-width:4" />
  <path d="M345.836 211.391 C 343.764 224.863, 340.838 249.522, 350.06 256.249" fill="none" style="stroke:rgb(0,0,0);stroke-width:4" />
  <path d="M350.06 256.249 C 359.281 262.976, 401.649 268.019, 424.721 270.796" fill="none" style="stroke:rgb(0,0,0);stroke-width:4" />
  <path d="M424.721 270.796 C 417.341 251.022, 403.846 214.234, 394.726 207.141" fill="none" style="stroke:rgb(0,0,0);stroke-width:1" />
  <path d="M394.726 207.141 C 385.607 200.048, 359.659 207.134, 345.836 211.391" fill="none" style="stroke:rgb(0,0,0);stroke-width:1" />
  <path d="M272.489 146.642 C 260.501 158.677, 239.214 181.247, 231.03 194.571" fill="none" style="stroke:rgb(0,0,0);stroke-width:4" />
  <path d="M231.03 194.571 C 222.845 207.895, 206.903 241.542, 198.03 259.074" fill="none" style="stroke:rgb(0,0,0);stroke-width:4" />
  <path d="M198.03 259.074 C 198.373 277.918, 198.939 312.646, 207.442 324.582" fill="none" style="stroke:rgb(0,0,0);stroke-width:4" />
  <path d="M207.442 324.582 C 215.944 336.518, 252.488 354.157, 272.251 363.808" fill="none" style="stroke:rgb(0,0,0);stroke-width:4" />
  <path d="M272.251 363.808 C 300.055 351.919, 352.435 330.232, 370.499 319.836" fill="none" style="stroke:rgb(0,0,0);stroke-width:4" />
  <path d="M370.499 319.836 C 388.563 309.44, 412.418 284.622, 424.721 270.796" fill="none" style="stroke:rgb(0,0,0);stroke-width:4" />
  <path d="M272.489 146.642 C 278.799 167.744, 290.588 206.808, 298.869 214.428" fill="none" style="stroke:rgb(0,0,0);stroke-width:1" />
  <path d="M298.869 214.428 C 307.149 222.049, 332.034 215.359, 345.836 211.391" fill="none" style="stroke:rgb(0,0,0);stroke-width:1" />
  <path d="M15.6028 204.779 C 42.4687 193.135, 92.2452 171.6, 104.569 174.686" fill="none" style="stroke:rgb(0,0,0);stroke-width:1" />
  <path d="M104.569 174.686 C 116.892 177.772, 119.601 213.699, 120.572 233.564" fill="none" style="stroke:rgb(0,0,0);stroke-width:1" />
  <path d="M120.572 233.564 C 123.358 253.457, 128.885 289.795, 137.884 292.55" fill="none" style="stroke:rgb(0,0,0);stroke-width:1" />
  <path d="M137.884 292.55 C 146.883 295.305, 180.084 271.722, 198.03 259.074" fill="none" style="stroke:rgb(0,0,0);stroke-width:1" />
  <path d="M198.03 259.074 C 189.812 237.593, 174.788 197.504, 165.93 194.331" fill="none" style="stroke:rgb(0,0,0);stroke-width:4" />
  <path d="M165.93 194.331 C 157.071 191.159, 133.367 218.493, 120.572 233.564" fill="none" style="stroke:rgb(0,0,0);stroke-width:4" />
  <path d="M246.339 499.29 C 238.389 501.369, 222.993 505.754, 208.689 509.488" fill="none" style="stroke:rgb(0,0,0);stroke-width:4" />
  <path d="M208.689 509.488 C 194.385 513.221, 147.558 524.087, 121.893 529.793" fill="none" style="stroke:rgb(0,0,0);stroke-width:4" />
  <path d="M482.528 526.945 C 454.359 522.501, 402.159 514.715, 390.44 504.102" fill="none" style="stroke:rgb(0,0,0);stroke-width:4" />
  <path d="M390.44 504.102 C 378.722 493.488, 380.596 454.328, 381.875 433.054" fill="none" style="stroke:rgb(0,0,0);stroke-width:4" />
  <path d="M381.875 433.054 C 363.934 442.726, 331.303 460.446, 321.094 466.034" fill="none" style="stroke:rgb(0,0,0);stroke-width:4" />
  <path d="M321.094 466.034 C 310.886 471.621, 299.495 477.861, 293.829 480.974" fill="none" style="stroke:rgb(0,0,0);stroke-width:4" />
  <path d="M293.829 480.974 C 287.516 483.377, 275.775 487.764, 270.21 489.897" fill="none" style="stroke:rgb(0,0,0);stroke-width:4" />
  <path d="M270.21 489.897 C 264.645 492.03, 252.64 496.8, 246.339 499.29" fill="none" style="stroke:rgb(0,0,0);stroke-width:4" />
  <path d="M246.339 499.29 C 258.216 504.941, 280.796 515.348, 286.455 513.281" fill="none" style="stroke:rgb(0,0,0);stroke-width:1" />
  <path d="M286.455 513.281 C 292.114 511.213, 293.279 491.647, 293.829 480.974" fill="none" style="stroke:rgb(0,0,0);stroke-width:1" />
  <path d="M272.251 363.808 C 295.679 370.903, 339.674 383.625, 352.705 391.355" fill="none" style="stroke:rgb(0,0,0);stroke-width:4" />
  <path d="M352.705 391.355 C 365.736 399.084, 376.553 420.985, 381.875 433.054" fill="none" style="stroke:rgb(0,0,0);stroke-width:4" />
  <path d="M482.528 526.945 C 478.289 497.374, 470.211 443.046, 458.563 432.142" fill="none" style="stroke:rgb(0,0,0);stroke-width:1" />
  <path d="M458.563 432.142 C 446.915 421.238, 404.666 428.621, 381.875 433.054" fill="none" style="stroke:rgb(0,0,0);stroke-width:1" />
  <path d="M121.893 529.793 C 132.733 500.462, 151.917 445.897, 168.652 426.726" fill="none" style="stroke:rgb(0,0,0);stroke-width:4" />
  <path d="M168.652 426.726 C 185.386 407.556, 241.38 379.128, 272.251 363.808" fill="none" style="stroke:rgb(0,0,0);stroke-width:4" />
  <path d="M15.6028 204.779 C 32.2164 227.91, 63.0822 270.901, 75.2618 274.65" fill="none" style="stroke:rgb(0,0,0);stroke-width:4" />
  <path d="M75.2618 274.65 C 87.4414 278.399, 109.061 249.801, 120.572 233.564" fill="none" style="stroke:rgb(0,0,0);stroke-width:4" />
  <path d="M293.829 480.974 C 283.096 475.374, 263.319 465.315, 257.744 467.609" fill="none" style="stroke:rgb(0,0,0);stroke-width:1" />
  <path d="M257.744 467.609 C 252.169 469.903, 248.201 489.12, 246.339 499.29" fill="none" style="stroke:rgb(0,0,0);stroke-width:1" />
  <ellipse cx="568.357" cy="193.777" rx="1.69435" ry="1.69435"  style="fill:rgb(0,0,0)" />
  <ellipse cx="482.528" cy="526.945" rx="1.69435" ry="1.69435"  style="fill:rgb(0,0,0)" />
  <ellipse cx="121.893" cy="529.793" rx="1.69435" ry="1.69435"  style="fill:rgb(0,0,0)" />
  <ellipse cx="15.6028" cy="204.779" rx="1.69435" ry="1.69435"  style="fill:rgb(0,0,0)" />
  <ellipse cx="295.226" cy="-5.68434e-14" rx="1.69435" ry="1.69435"  style="fill:rgb(0,0,0)" />
  <ellipse cx="424.721" cy="270.796" rx="1.69435" ry="1.69435"  style="fill:rgb(0,0,0)" />
  <ellipse cx="272.489" cy="146.642" rx="1.69435" ry="1.69435"  style="fill:rgb(0,0,0)" />
  <ellipse cx="345.836" cy="211.391" rx="1.69435" ry="1.69435"  style="fill:rgb(0,0,0)" />
  <ellipse cx="198.03" cy="259.074" rx="1.69435" ry="1.69435"  style="fill:rgb(0,0,0)" />
  <ellipse cx="272.251" cy="363.808" rx="1.69435" ry="1.69435"  style="fill:rgb(0,0,0)" />
  <ellipse cx="120.572" cy="233.564" rx="1.69435" ry="1.69435"  style="fill:rgb(0,0,0)" />
  <ellipse cx="246.339" cy="499.29" rx="1.69435" ry="1.69435"  style="fill:rgb(0,0,0)" />
  <ellipse cx="381.875" cy="433.054" rx="1.69435" ry="1.69435"  style="fill:rgb(0,0,0)" />
  <ellipse cx="293.829" cy="480.974" rx="1.69435" ry="1.69435"  style="fill:rgb(0,0,0)" />
</svg>
